{
  "accessors": [
    {
      "name": "Mesh1 Group1 Model_1_positions",
      "componentType": 5126,
      "count": 290,
      "min": [
        -1.3387500047683716,
        -4.5119499571435854e-17,
        -1.8095999956130981
      ],
      "max": [
        1.3387500047683716,
        2.3994998931884766,
        2.834399938583374
      ],
      "type": "VEC3",
      "bufferView": 0,
      "byteOffset": 0
    },
    {
      "name": "Mesh1 Group1 Model_1_normals",
      "componentType": 5126,
      "count": 290,
      "min": [
        -1,
        -1,
        -1
      ],
      "max": [
        1,
        1,
        1
      ],
      "type": "VEC3",
      "bufferView": 0,
      "byteOffset": 3480
    },
    {
      "name": "Mesh1 Group1 Model_1_texcoords",
      "componentType": 5126,
      "count": 290,
      "min": [
        -111.59100341796875,
        -98.81320190429688
      ],
      "max": [
        111.59100341796875,
        112.59100341796875
      ],
      "type": "VEC2",
      "bufferView": 1,
      "byteOffset": 0
    },
    {
      "name": "Mesh1 Group1 Model_1_0_indices",
      "componentType": 5123,
      "count": 114,
      "min": [
        0
      ],
      "max": [
        289
      ],
      "type": "SCALAR",
      "bufferView": 2,
      "byteOffset": 0
    },
    {
      "name": "Mesh1 Group1 Model_1_1_indices",
      "componentType": 5123,
      "count": 174,
      "min": [
        15
      ],
      "max": [
        271
      ],
      "type": "SCALAR",
      "bufferView": 2,
      "byteOffset": 228
    },
    {
      "name": "Mesh1 Group1 Model_1_2_indices",
      "componentType": 5123,
      "count": 162,
      "min": [
        28
      ],
      "max": [
        201
      ],
      "type": "SCALAR",
      "bufferView": 2,
      "byteOffset": 576
    },
    {
      "name": "Mesh1 Group1 Model_1_3_indices",
      "componentType": 5123,
      "count": 36,
      "min": [
        32
      ],
      "max": [
        79
      ],
      "type": "SCALAR",
      "bufferView": 2,
      "byteOffset": 900
    },
    {
      "name": "Mesh1 Group1 Model_1_4_indices",
      "componentType": 5123,
      "count": 30,
      "min": [
        117
      ],
      "max": [
        207
      ],
      "type": "SCALAR",
      "bufferView": 2,
      "byteOffset": 972
    },
    {
      "name": "Mesh1 Group1 Model_1_5_indices",
      "componentType": 5123,
      "count": 54,
      "min": [
        62
      ],
      "max": [
        267
      ],
      "type": "SCALAR",
      "bufferView": 2,
      "byteOffset": 1032
    }
  ],
  "asset": {
    "generator": "obj2gltf",
    "version": "2.0"
  },
  "buffers": [
    {
      "name": "watercraftPack_025",
      "byteLength": 10420,
      "uri": "data:application/octet-stream;base64,"
    }
  ],
  "bufferViews": [
    {
      "name": "bufferView_0",
      "buffer": 0,
      "byteLength": 6960,
      "byteOffset": 0,
      "byteStride": 12,
      "target": 34962
    },
    {
      "name": "bufferView_1",
      "buffer": 0,
      "byteLength": 2320,
      "byteOffset": 6960,
      "byteStride": 8,
      "target": 34962
    },
    {
      "name": "bufferView_2",
      "buffer": 0,
      "byteLength": 1140,
      "byteOffset": 9280,
      "target": 34963
    }
  ],
  "materials": [
    {
      "name": "Red_metal",
      "pbrMetallicRoughness": {
        "baseColorFactor": [
          0.909804,
          0.333333,
          0.32549,
          1
        ],
        "metallicFactor": 0,
        "roughnessFactor": 1
      },
      "emissiveFactor": [
        0,
        0,
        0
      ],
      "alphaMode": "OPAQUE",
      "doubleSided": false
    },
    {
      "name": "Green_metal",
      "pbrMetallicRoughness": {
        "baseColorFactor": [
          0.443137,
          0.788235,
          0.584314,
          1
        ],
        "metallicFactor": 0,
        "roughnessFactor": 1
      },
      "emissiveFactor": [
        0,
        0,
        0
      ],
      "alphaMode": "OPAQUE",
      "doubleSided": false
    },
    {
      "name": "Cloth",
      "pbrMetallicRoughness": {
        "baseColorFactor": [
          0.94902,
          0.945098,
          0.827451,
          1
        ],
        "metallicFactor": 0,
        "roughnessFactor": 1
      },
      "emissiveFactor": [
        0,
        0,
        0
      ],
      "alphaMode": "OPAQUE",
      "doubleSided": false
    },
    {
      "name": "Grey_metal_1",
      "pbrMetallicRoughness": {
        "baseColorFactor": [
          0.768627,
          0.768627,
          0.768627,
          1
        ],
        "metallicFactor": 0,
        "roughnessFactor": 1
      },
      "emissiveFactor": [
        0,
        0,
        0
      ],
      "alphaMode": "OPAQUE",
      "doubleSided": false
    },
    {
      "name": "Glass",
      "pbrMetallicRoughness": {
        "baseColorFactor": [
          0.776471,
          0.901961,
          0.94902,
          1
        ],
        "metallicFactor": 0,
        "roughnessFactor": 1
      },
      "emissiveFactor": [
        0,
        0,
        0
      ],
      "alphaMode": "OPAQUE",
      "doubleSided": false
    },
    {
      "name": "Dark_metal",
      "pbrMetallicRoughness": {
        "baseColorFactor": [
          0.266667,
          0.266667,
          0.266667,
          1
        ],
        "metallicFactor": 0,
        "roughnessFactor": 1
      },
      "emissiveFactor": [
        0,
        0,
        0
      ],
      "alphaMode": "OPAQUE",
      "doubleSided": false
    }
  ],
  "meshes": [
    {
      "name": "Mesh1 Group1 Model_1",
      "primitives": [
        {
          "attributes": {
            "POSITION": 0,
            "NORMAL": 1,
            "TEXCOORD_0": 2
          },
          "indices": 3,
          "material": 0,
          "mode": 4
        },
        {
          "attributes": {
            "POSITION": 0,
            "NORMAL": 1,
            "TEXCOORD_0": 2
          },
          "indices": 4,
          "material": 1,
          "mode": 4
        },
        {
          "attributes": {
            "POSITION": 0,
            "NORMAL": 1,
            "TEXCOORD_0": 2
          },
          "indices": 5,
          "material": 2,
          "mode": 4
        },
        {
          "attributes": {
            "POSITION": 0,
            "NORMAL": 1,
            "TEXCOORD_0": 2
          },
          "indices": 6,
          "material": 3,
          "mode": 4
        },
        {
          "attributes": {
            "POSITION": 0,
            "NORMAL": 1,
            "TEXCOORD_0": 2
          },
          "indices": 7,
          "material": 4,
          "mode": 4
        },
        {
          "attributes": {
            "POSITION": 0,
            "NORMAL": 1,
            "TEXCOORD_0": 2
          },
          "indices": 8,
          "material": 5,
          "mode": 4
        }
      ]
    }
  ],
  "nodes": [
    {
      "name": "Mesh1 Group1 Model",
      "mesh": 0
    }
  ],
  "scene": 0,
  "scenes": [
    {
      "nodes": [
        0
      ]
    }
  ]
}
