{
    "asset" : {
        "generator" : "Khronos glTF Blender I/O v0.9.36",
        "version" : "2.0"
    },
    "scene" : 0,
    "scenes" : [
        {
            "name" : "Scene",
            "nodes" : [
                4
            ]
        }
    ],
    "nodes" : [
        {
            "mesh" : 0,
            "name" : "character_jackArmLeft.",
            "translation" : [
                0.20404529571533203,
                0.6335563659667969,
                0
            ]
        },
        {
            "mesh" : 1,
            "name" : "character_jackArmRight",
            "translation" : [
                -0.20404553413391113,
                0.6335563063621521,
                0
            ]
        },
        {
            "mesh" : 2,
            "name" : "character_jackHat",
            "translation" : [
                0,
                0.7037110328674316,
                0
            ]
        },
        {
            "mesh" : 3,
            "name" : "character_jackHead",
            "translation" : [
                0,
                0.7037110328674316,
                0
            ]
        },
        {
            "children" : [
                0,
                1,
                2,
                3
            ],
            "mesh" : 4,
            "name" : "character_jack"
        }
    ],
    "materials" : [
        {
            "name" : "BrownDark",
            "pbrMetallicRoughness" : {
                "baseColorFactor" : [
                    0.32694560289382935,
                    0.10152623057365417,
                    0.05927089974284172,
                    1
                ],
                "metallicFactor" : 0,
                "roughnessFactor" : 0.4000000059604645
            }
        },
        {
            "name" : "Orange",
            "pbrMetallicRoughness" : {
                "baseColorFactor" : [
                    1,
                    0.16606298089027405,
                    0.017658168449997902,
                    1
                ],
                "metallicFactor" : 0,
                "roughnessFactor" : 0.20000000298023224
            }
        },
        {
            "name" : "Black",
            "pbrMetallicRoughness" : {
                "baseColorFactor" : [
                    0.019794002175331116,
                    0.03207586705684662,
                    0.037408243864774704,
                    1
                ],
                "metallicFactor" : 0,
                "roughnessFactor" : 0.5
            }
        }
    ],
    "meshes" : [
        {
            "name" : "Cube.031",
            "primitives" : [
                {
                    "attributes" : {
                        "POSITION" : 0,
                        "NORMAL" : 1,
                        "TEXCOORD_0" : 2
                    },
                    "indices" : 3,
                    "material" : 0
                },
                {
                    "attributes" : {
                        "POSITION" : 4,
                        "NORMAL" : 5,
                        "TEXCOORD_0" : 6
                    },
                    "indices" : 7,
                    "material" : 1
                }
            ]
        },
        {
            "name" : "Cube.030",
            "primitives" : [
                {
                    "attributes" : {
                        "POSITION" : 8,
                        "NORMAL" : 9,
                        "TEXCOORD_0" : 10
                    },
                    "indices" : 11,
                    "material" : 0
                },
                {
                    "attributes" : {
                        "POSITION" : 12,
                        "NORMAL" : 13,
                        "TEXCOORD_0" : 14
                    },
                    "indices" : 15,
                    "material" : 1
                }
            ]
        },
        {
            "name" : "Sphere.001",
            "primitives" : [
                {
                    "attributes" : {
                        "POSITION" : 16,
                        "NORMAL" : 17,
                        "TEXCOORD_0" : 18
                    },
                    "indices" : 19,
                    "material" : 1
                },
                {
                    "attributes" : {
                        "POSITION" : 20,
                        "NORMAL" : 21,
                        "TEXCOORD_0" : 22
                    },
                    "indices" : 23,
                    "material" : 0
                }
            ]
        },
        {
            "name" : "Cube.025",
            "primitives" : [
                {
                    "attributes" : {
                        "POSITION" : 24,
                        "NORMAL" : 25,
                        "TEXCOORD_0" : 26
                    },
                    "indices" : 27,
                    "material" : 2
                }
            ]
        },
        {
            "name" : "Cube.028",
            "primitives" : [
                {
                    "attributes" : {
                        "POSITION" : 28,
                        "NORMAL" : 29,
                        "TEXCOORD_0" : 30
                    },
                    "indices" : 31,
                    "material" : 0
                },
                {
                    "attributes" : {
                        "POSITION" : 32,
                        "NORMAL" : 33,
                        "TEXCOORD_0" : 34
                    },
                    "indices" : 35,
                    "material" : 2
                }
            ]
        }
    ],
    "accessors" : [
        {
            "bufferView" : 0,
            "componentType" : 5126,
            "count" : 154,
            "max" : [
                0.29561761021614075,
                0.09418356418609619,
                0.10963337868452072
            ],
            "min" : [
                -0.11533478647470474,
                -0.3850511610507965,
                -0.10963332653045654
            ],
            "type" : "VEC3"
        },
        {
            "bufferView" : 1,
            "componentType" : 5126,
            "count" : 154,
            "type" : "VEC3"
        },
        {
            "bufferView" : 2,
            "componentType" : 5126,
            "count" : 154,
            "type" : "VEC2"
        },
        {
            "bufferView" : 3,
            "componentType" : 5123,
            "count" : 621,
            "type" : "SCALAR"
        },
        {
            "bufferView" : 4,
            "componentType" : 5126,
            "count" : 110,
            "max" : [
                0.2643008232116699,
                -0.38504183292388916,
                0.09047043323516846
            ],
            "min" : [
                0.12564954161643982,
                -0.47665560245513916,
                -0.09047037363052368
            ],
            "type" : "VEC3"
        },
        {
            "bufferView" : 5,
            "componentType" : 5126,
            "count" : 110,
            "type" : "VEC3"
        },
        {
            "bufferView" : 6,
            "componentType" : 5126,
            "count" : 110,
            "type" : "VEC2"
        },
        {
            "bufferView" : 7,
            "componentType" : 5123,
            "count" : 459,
            "type" : "SCALAR"
        },
        {
            "bufferView" : 8,
            "componentType" : 5126,
            "count" : 162,
            "max" : [
                0.11533510684967041,
                0.09418362379074097,
                0.10963337123394012
            ],
            "min" : [
                -0.29561740159988403,
                -0.38505110144615173,
                -0.10963334143161774
            ],
            "type" : "VEC3"
        },
        {
            "bufferView" : 9,
            "componentType" : 5126,
            "count" : 162,
            "type" : "VEC3"
        },
        {
            "bufferView" : 10,
            "componentType" : 5126,
            "count" : 162,
            "type" : "VEC2"
        },
        {
            "bufferView" : 11,
            "componentType" : 5123,
            "count" : 621,
            "type" : "SCALAR"
        },
        {
            "bufferView" : 12,
            "componentType" : 5126,
            "count" : 118,
            "max" : [
                -0.12564924359321594,
                -0.3850417733192444,
                0.09047042578458786
            ],
            "min" : [
                -0.2643005847930908,
                -0.4766555428504944,
                -0.09047038853168488
            ],
            "type" : "VEC3"
        },
        {
            "bufferView" : 13,
            "componentType" : 5126,
            "count" : 118,
            "type" : "VEC3"
        },
        {
            "bufferView" : 14,
            "componentType" : 5126,
            "count" : 118,
            "type" : "VEC2"
        },
        {
            "bufferView" : 15,
            "componentType" : 5123,
            "count" : 459,
            "type" : "SCALAR"
        },
        {
            "bufferView" : 16,
            "componentType" : 5126,
            "count" : 1204,
            "max" : [
                0.6720703840255737,
                1.0356944799423218,
                0.63694828748703
            ],
            "min" : [
                -0.6720980405807495,
                -0.03395897150039673,
                -0.6644389033317566
            ],
            "type" : "VEC3"
        },
        {
            "bufferView" : 17,
            "componentType" : 5126,
            "count" : 1204,
            "type" : "VEC3"
        },
        {
            "bufferView" : 18,
            "componentType" : 5126,
            "count" : 1204,
            "type" : "VEC2"
        },
        {
            "bufferView" : 19,
            "componentType" : 5123,
            "count" : 5934,
            "type" : "SCALAR"
        },
        {
            "bufferView" : 20,
            "componentType" : 5126,
            "count" : 94,
            "max" : [
                0.11955079436302185,
                1.257515549659729,
                0.14678676426410675
            ],
            "min" : [
                -0.1076185330748558,
                0.8362064957618713,
                -0.08333646506071091
            ],
            "type" : "VEC3"
        },
        {
            "bufferView" : 21,
            "componentType" : 5126,
            "count" : 94,
            "type" : "VEC3"
        },
        {
            "bufferView" : 22,
            "componentType" : 5126,
            "count" : 94,
            "type" : "VEC2"
        },
        {
            "bufferView" : 23,
            "componentType" : 5123,
            "count" : 312,
            "type" : "SCALAR"
        },
        {
            "bufferView" : 24,
            "componentType" : 5126,
            "count" : 364,
            "max" : [
                0.49999964237213135,
                0.9339144229888916,
                0.4999997019767761
            ],
            "min" : [
                -0.4999997615814209,
                0,
                -0.49999961256980896
            ],
            "type" : "VEC3"
        },
        {
            "bufferView" : 25,
            "componentType" : 5126,
            "count" : 364,
            "type" : "VEC3"
        },
        {
            "bufferView" : 26,
            "componentType" : 5126,
            "count" : 364,
            "type" : "VEC2"
        },
        {
            "bufferView" : 27,
            "componentType" : 5123,
            "count" : 1584,
            "type" : "SCALAR"
        },
        {
            "bufferView" : 28,
            "componentType" : 5126,
            "count" : 289,
            "max" : [
                0.33807387948036194,
                0.7255613207817078,
                0.3499997556209564
            ],
            "min" : [
                -0.33807387948036194,
                -2.2351741790771484e-08,
                -0.3499997556209564
            ],
            "type" : "VEC3"
        },
        {
            "bufferView" : 29,
            "componentType" : 5126,
            "count" : 289,
            "type" : "VEC3"
        },
        {
            "bufferView" : 30,
            "componentType" : 5126,
            "count" : 289,
            "type" : "VEC2"
        },
        {
            "bufferView" : 31,
            "componentType" : 5123,
            "count" : 1284,
            "type" : "SCALAR"
        },
        {
            "bufferView" : 32,
            "componentType" : 5126,
            "count" : 270,
            "max" : [
                0.45495763421058655,
                0.7760487794876099,
                0.42927709221839905
            ],
            "min" : [
                -0.45495766401290894,
                0.14121994376182556,
                -0.47305828332901
            ],
            "type" : "VEC3"
        },
        {
            "bufferView" : 33,
            "componentType" : 5126,
            "count" : 270,
            "type" : "VEC3"
        },
        {
            "bufferView" : 34,
            "componentType" : 5126,
            "count" : 270,
            "type" : "VEC2"
        },
        {
            "bufferView" : 35,
            "componentType" : 5123,
            "count" : 1116,
            "type" : "SCALAR"
        }
    ],
    "bufferViews" : [
        {
            "buffer" : 0,
            "byteLength" : 1848,
            "byteOffset" : 0
        },
        {
            "buffer" : 0,
            "byteLength" : 1848,
            "byteOffset" : 1848
        },
        {
            "buffer" : 0,
            "byteLength" : 1232,
            "byteOffset" : 3696
        },
        {
            "buffer" : 0,
            "byteLength" : 1242,
            "byteOffset" : 4928
        },
        {
            "buffer" : 0,
            "byteLength" : 1320,
            "byteOffset" : 6172
        },
        {
            "buffer" : 0,
            "byteLength" : 1320,
            "byteOffset" : 7492
        },
        {
            "buffer" : 0,
            "byteLength" : 880,
            "byteOffset" : 8812
        },
        {
            "buffer" : 0,
            "byteLength" : 918,
            "byteOffset" : 9692
        },
        {
            "buffer" : 0,
            "byteLength" : 1944,
            "byteOffset" : 10612
        },
        {
            "buffer" : 0,
            "byteLength" : 1944,
            "byteOffset" : 12556
        },
        {
            "buffer" : 0,
            "byteLength" : 1296,
            "byteOffset" : 14500
        },
        {
            "buffer" : 0,
            "byteLength" : 1242,
            "byteOffset" : 15796
        },
        {
            "buffer" : 0,
            "byteLength" : 1416,
            "byteOffset" : 17040
        },
        {
            "buffer" : 0,
            "byteLength" : 1416,
            "byteOffset" : 18456
        },
        {
            "buffer" : 0,
            "byteLength" : 944,
            "byteOffset" : 19872
        },
        {
            "buffer" : 0,
            "byteLength" : 918,
            "byteOffset" : 20816
        },
        {
            "buffer" : 0,
            "byteLength" : 14448,
            "byteOffset" : 21736
        },
        {
            "buffer" : 0,
            "byteLength" : 14448,
            "byteOffset" : 36184
        },
        {
            "buffer" : 0,
            "byteLength" : 9632,
            "byteOffset" : 50632
        },
        {
            "buffer" : 0,
            "byteLength" : 11868,
            "byteOffset" : 60264
        },
        {
            "buffer" : 0,
            "byteLength" : 1128,
            "byteOffset" : 72132
        },
        {
            "buffer" : 0,
            "byteLength" : 1128,
            "byteOffset" : 73260
        },
        {
            "buffer" : 0,
            "byteLength" : 752,
            "byteOffset" : 74388
        },
        {
            "buffer" : 0,
            "byteLength" : 624,
            "byteOffset" : 75140
        },
        {
            "buffer" : 0,
            "byteLength" : 4368,
            "byteOffset" : 75764
        },
        {
            "buffer" : 0,
            "byteLength" : 4368,
            "byteOffset" : 80132
        },
        {
            "buffer" : 0,
            "byteLength" : 2912,
            "byteOffset" : 84500
        },
        {
            "buffer" : 0,
            "byteLength" : 3168,
            "byteOffset" : 87412
        },
        {
            "buffer" : 0,
            "byteLength" : 3468,
            "byteOffset" : 90580
        },
        {
            "buffer" : 0,
            "byteLength" : 3468,
            "byteOffset" : 94048
        },
        {
            "buffer" : 0,
            "byteLength" : 2312,
            "byteOffset" : 97516
        },
        {
            "buffer" : 0,
            "byteLength" : 2568,
            "byteOffset" : 99828
        },
        {
            "buffer" : 0,
            "byteLength" : 3240,
            "byteOffset" : 102396
        },
        {
            "buffer" : 0,
            "byteLength" : 3240,
            "byteOffset" : 105636
        },
        {
            "buffer" : 0,
            "byteLength" : 2160,
            "byteOffset" : 108876
        },
        {
            "buffer" : 0,
            "byteLength" : 2232,
            "byteOffset" : 111036
        }
    ],
    "buffers" : [
        {
            "byteLength" : 113268,
            "uri" : "data:application/octet-stream;base64,"
        }
    ]
}
