<?xml version="1.0" encoding="UTF-8" standalone="no"?>
<!-- Created with Inkscape (http://www.inkscape.org/) -->

<svg
   xmlns:dc="http://purl.org/dc/elements/1.1/"
   xmlns:cc="http://creativecommons.org/ns#"
   xmlns:rdf="http://www.w3.org/1999/02/22-rdf-syntax-ns#"
   xmlns:svg="http://www.w3.org/2000/svg"
   xmlns="http://www.w3.org/2000/svg"
   xmlns:sodipodi="http://sodipodi.sourceforge.net/DTD/sodipodi-0.dtd"
   xmlns:inkscape="http://www.inkscape.org/namespaces/inkscape"
   width="1000"
   height="2000"
   viewBox="0 0 1000 2000"
   id="svg2"
   version="1.1"
   inkscape:version="0.91 r13725"
   sodipodi:docname="Line Following - Sharp.svg"
   inkscape:export-filename="/home/cort/Sharp.png"
   inkscape:export-xdpi="90"
   inkscape:export-ydpi="90">
  <defs
     id="defs4" />
  <sodipodi:namedview
     id="base"
     pagecolor="#ffffff"
     bordercolor="#666666"
     borderopacity="1.0"
     inkscape:pageopacity="1"
     inkscape:pageshadow="2"
     inkscape:zoom="0.98994949"
     inkscape:cx="521.95307"
     inkscape:cy="1558.5937"
     inkscape:document-units="px"
     inkscape:current-layer="layer1"
     showgrid="false"
     units="px"
     inkscape:window-width="1855"
     inkscape:window-height="1056"
     inkscape:window-x="65"
     inkscape:window-y="24"
     inkscape:window-maximized="1"
     showguides="false">
    <sodipodi:guide
       position="316.42857,977.14286"
       orientation="1,0"
       id="guide4197" />
  </sodipodi:namedview>
  <metadata
     id="metadata7">
    <rdf:RDF>
      <cc:Work
         rdf:about="">
        <dc:format>image/svg+xml</dc:format>
        <dc:type
           rdf:resource="http://purl.org/dc/dcmitype/StillImage" />
        <dc:title />
      </cc:Work>
    </rdf:RDF>
  </metadata>
  <g
     inkscape:label="Layer 1"
     inkscape:groupmode="layer"
     id="layer1"
     transform="translate(0,947.63782)">
    <path
       style="fill:none;fill-rule:evenodd;stroke:#000000;stroke-width:20;stroke-linecap:butt;stroke-linejoin:miter;stroke-miterlimit:4;stroke-dasharray:none;stroke-opacity:1"
       d="m 650.07143,1053.0601 0,-250.71423 c 0,-92.70656 -2.84223,-68.39546 -152.55263,-218.10586 L 653.8608,424.36256 494.2331,262.88612 645.60555,110.22188 494.2215,-44.061672 c -1.20215,-118.081628 182.74774,-92.637538 182.34198,-170.712848 -0.40576,-78.07531 -194.5891,-39.3934 -193.97594,-113.16251 0.61316,-73.76911 192.4682,-16.31526 193.72172,-95.58526 1.25353,-79.27 -201.27429,-26.21333 -201.37002,-104.49319 -0.0957,-78.27985 190.97095,-18.21781 193.70911,-112.72637 2.73817,-94.50856 0.98985,83.01015 -1.30136,-135.61641 l -194.9985,-0.6933 0,-57.8781 -119.28721,0 0,125.71425 54.28571,0 0,63.57143 -94.56128,98.41842 1.24511,1258.57143 -118.57143,0 0,60 -80,0 0,-178.57148 75.71429,0 0,48.57148 52.85714,0 0,-188.99998"
       id="path4136"
       inkscape:connector-curvature="0"
       sodipodi:nodetypes="ccccccczzzzzccccccccccccccccc" />
  </g>
</svg>
