<?xml version="1.0" encoding="UTF-8" standalone="no"?>
<!-- Created with Inkscape (http://www.inkscape.org/) -->

<svg
   sodipodi:docname="buttons.svg"
   inkscape:version="1.1.1 (3bf5ae0d25, 2021-09-20)"
   version="1.1"
   id="svg2"
   viewBox="0 0 708.66142 708.66141"
   height="200mm"
   width="200mm"
   xmlns:inkscape="http://www.inkscape.org/namespaces/inkscape"
   xmlns:sodipodi="http://sodipodi.sourceforge.net/DTD/sodipodi-0.dtd"
   xmlns="http://www.w3.org/2000/svg"
   xmlns:svg="http://www.w3.org/2000/svg"
   xmlns:rdf="http://www.w3.org/1999/02/22-rdf-syntax-ns#"
   xmlns:cc="http://creativecommons.org/ns#"
   xmlns:dc="http://purl.org/dc/elements/1.1/">
  <sodipodi:namedview
     inkscape:snap-global="false"
     inkscape:window-maximized="1"
     inkscape:window-y="27"
     inkscape:window-x="0"
     inkscape:window-height="1016"
     inkscape:window-width="1920"
     inkscape:snap-bbox-midpoints="true"
     inkscape:bbox-nodes="true"
     inkscape:snap-bbox-edge-midpoints="true"
     inkscape:bbox-paths="true"
     inkscape:snap-bbox="true"
     showgrid="false"
     inkscape:current-layer="layer1"
     inkscape:document-units="px"
     inkscape:cy="593.75"
     inkscape:cx="-325"
     inkscape:zoom="0.4"
     inkscape:pageshadow="2"
     inkscape:pageopacity="0.0"
     borderopacity="1.0"
     bordercolor="#666666"
     pagecolor="#ffffff"
     id="base"
     inkscape:pagecheckerboard="0" />
  <defs
     id="defs4">
    <inkscape:path-effect
       effect="fillet_chamfer"
       id="path-effect4188"
       is_visible="true"
       lpeversion="1"
       satellites_param="F,0,0,1,0,0,0,1 @ F,0,0,1,0,0,0,1 @ F,0,0,1,0,0,0,1 @ F,0,0,1,0,0,0,1"
       unit="px"
       method="auto"
       mode="F"
       radius="21"
       chamfer_steps="1"
       flexible="false"
       use_knot_distance="true"
       apply_no_radius="true"
       apply_with_radius="true"
       only_selected="true"
       hide_knots="false" />
    <inkscape:path-effect
       effect="fillet_chamfer"
       id="path-effect3314"
       is_visible="true"
       lpeversion="1"
       satellites_param="C,0,0,1,0,26,0,1 @ C,0,0,1,0,26,0,1 @ C,0,0,1,0,26,0,1 @ C,0,0,1,0,26,0,1"
       unit="px"
       method="auto"
       mode="F"
       radius="26"
       chamfer_steps="1"
       flexible="false"
       use_knot_distance="true"
       apply_no_radius="true"
       apply_with_radius="true"
       only_selected="false"
       hide_knots="false" />
  </defs>
  <metadata
     id="metadata7">
    <rdf:RDF>
      <cc:Work
         rdf:about="">
        <dc:format>image/svg+xml</dc:format>
        <dc:type
           rdf:resource="http://purl.org/dc/dcmitype/StillImage" />
      </cc:Work>
    </rdf:RDF>
  </metadata>
  <g
     transform="translate(0,-343.70079)"
     id="layer1"
     inkscape:groupmode="layer"
     inkscape:label="layer1">
    <path
       style="color:#000000;fill:#000000;-inkscape-stroke:none"
       d="m 24.105469,593.16992 v 14.07813 195.32226 H 168.44922 l 62.16992,-58.81445 v -93.14258 l -56.79883,-57.27539 z m 28.125,28.15625 109.857421,0.12305 40.40625,40.74609 v 69.45117 l -45.24023,42.79883 H 52.230469 Z"
       id="path904" />
    <path
       style="color:#000000;fill:#000000;-inkscape-stroke:none"
       d="m 540.06836,593.06836 -4.06641,3.8457 -57.93554,54.81055 v 93.6875 l 56.625,57.09961 149.86328,0.16797 V 593.06836 Z m 11.19531,28.125 h 105.16602 v 153.33008 l -110.00586,-0.12305 -40.23242,-40.57031 v -69.99805 z"
       id="path904-2" />
    <path
       style="color:#000000;fill:#000000;-inkscape-stroke:none"
       d="m 307.4375,824.57031 -4.11133,4.07617 -52.25976,51.82618 -0.16993,147.86914 H 457.72266 V 885.77148 l -57.89844,-61.20117 z m 11.58203,28.125 h 68.69531 l 41.88282,44.27149 v 103.25 H 279.05469 l 0.12304,-108.01172 z"
       id="path904-9" />
    <path
       style="color:#000000;fill:#000000;-inkscape-stroke:none"
       d="m 250.90234,367.7207 v 14.0625 128.50782 l 57.88868,61.19335 h 92.40625 l 56.36328,-55.89453 0.16601,-147.86914 z m 28.125,28.125 h 150.54297 l -0.12109,108.01172 -39.83399,39.50195 H 320.90039 L 279.02734,499.0957 Z"
       id="path904-3" />
    <path
       style="color:#000000;fill:#000000;stroke-linecap:round;-inkscape-stroke:none"
       d="m 284.03125,594.25586 -3.92578,3.92578 -29.92578,29.92578 v 140.81445 l 33.85156,33.85157 H 424.8457 l 33.85157,-33.85157 V 628.10742 L 424.8457,594.25586 Z m 11.10352,26.80664 h 118.60742 l 18.14843,18.14844 V 757.81836 L 413.74219,775.9668 H 295.13477 L 276.98633,757.81836 V 639.21094 Z"
       id="rect2964" />
    <path
       style="color:#000000;fill:#000000;stroke-linecap:round;-inkscape-stroke:none"
       d="M 26.720703,370.3125 V 384.375 527.79492 H 168.54492 l 48.84375,-64.65039 V 370.3125 Z m 28.125,28.125 H 189.26367 v 55.27734 l -34.7207,45.95508 H 54.845703 Z"
       id="rect3840" />
  </g>
</svg>
