<?xml version="1.0" encoding="UTF-8" standalone="no"?>
<svg
   xmlns:dc="http://purl.org/dc/elements/1.1/"
   xmlns:cc="http://creativecommons.org/ns#"
   xmlns:rdf="http://www.w3.org/1999/02/22-rdf-syntax-ns#"
   xmlns:svg="http://www.w3.org/2000/svg"
   xmlns="http://www.w3.org/2000/svg"
   xmlns:sodipodi="http://sodipodi.sourceforge.net/DTD/sodipodi-0.dtd"
   xmlns:inkscape="http://www.inkscape.org/namespaces/inkscape"
   width="200mm"
   height="200mm"
   viewBox="0 0 708.66142 708.66141"
   id="svg2"
   version="1.1"
   inkscape:version="1.0.2 (e86c870879, 2021-01-15)"
   sodipodi:docname="cameraFollow.svg">
  <defs
     id="defs4" />
  <sodipodi:namedview
     id="base"
     pagecolor="#ffffff"
     bordercolor="#666666"
     borderopacity="1.0"
     inkscape:pageopacity="0.0"
     inkscape:pageshadow="2"
     inkscape:zoom="0.0875"
     inkscape:cx="-2608.9789"
     inkscape:cy="2341.9724"
     inkscape:document-units="px"
     inkscape:current-layer="layer1"
     showgrid="false"
     inkscape:snap-bbox="true"
     inkscape:bbox-paths="true"
     inkscape:snap-bbox-edge-midpoints="true"
     inkscape:bbox-nodes="true"
     inkscape:snap-bbox-midpoints="true"
     inkscape:window-width="1920"
     inkscape:window-height="1016"
     inkscape:window-x="0"
     inkscape:window-y="27"
     inkscape:window-maximized="1"
     inkscape:snap-global="false"
     inkscape:document-rotation="0" />
  <metadata
     id="metadata7">
    <rdf:RDF>
      <cc:Work
         rdf:about="">
        <dc:format>image/svg+xml</dc:format>
        <dc:type
           rdf:resource="http://purl.org/dc/dcmitype/StillImage" />
        <dc:title></dc:title>
      </cc:Work>
    </rdf:RDF>
  </metadata>
  <g
     inkscape:label="layer1"
     inkscape:groupmode="layer"
     id="layer1"
     transform="translate(0,-343.70079)">
    <g
       id="g4505"
       transform="matrix(0.80687232,-0.69953869,0.69652932,0.81362417,-227.40684,299.75958)">
      <path
         style="color:#000000;clip-rule:nonzero;display:inline;overflow:visible;visibility:visible;opacity:1;isolation:auto;mix-blend-mode:normal;color-interpolation:sRGB;color-interpolation-filters:linearRGB;solid-color:#000000;solid-opacity:1;fill:#000000;fill-opacity:1;fill-rule:evenodd;stroke:none;stroke-width:15;stroke-linecap:round;stroke-linejoin:miter;stroke-miterlimit:4;stroke-dasharray:none;stroke-dashoffset:0;stroke-opacity:1;color-rendering:auto;image-rendering:auto;shape-rendering:auto;text-rendering:auto;enable-background:accumulate"
         d="m 486.03516,47.404297 c -11.72276,0.237564 -23.54407,3.620712 -34.20899,10.431641 L 152.56445,248.95312 c -31.02522,19.81361 -40.1615,60.91389 -20.48437,92.1543 l 65.48633,103.9707 c 19.67713,31.24042 60.49626,40.43861 91.52148,20.625 L 588.34961,274.58594 c 31.02522,-19.81361 40.1615,-60.91389 20.48437,-92.1543 L 543.3457,78.460938 C 530.43259,57.959416 508.41497,46.950765 486.03516,47.404297 Z m -6.59961,39.878906 a 14.508049,14.608677 0 0 1 7.73437,27.054687 L 182.65625,308.80859 A 14.508049,14.608677 0 1 1 167.11719,284.13672 L 471.63086,89.666016 a 14.508049,14.608677 0 0 1 7.80469,-2.382813 z m 57.51562,121.285157 26.63867,42.29297 -42.00195,26.82422 -26.63867,-42.29297 z m -66.50195,42.4707 26.63867,42.29297 -42.00195,26.82422 -26.63867,-42.29297 z m -61.25391,39.11719 26.63867,42.29297 -42,26.82422 -26.63867,-42.29297 z M 250.71484,394.375 a 17.142855,17.142855 0 0 1 17.14258,17.14453 17.142855,17.142855 0 0 1 -17.14258,17.14258 17.142855,17.142855 0 0 1 -17.14257,-17.14258 17.142855,17.142855 0 0 1 17.14257,-17.14453 z"
         transform="matrix(0.58213274,0.36920609,-0.36666293,0.5781229,258.1834,327.82381)"
         id="rect4451" />
      <path
         sodipodi:nodetypes="ccccccccc"
         inkscape:connector-curvature="0"
         id="rect4484"
         d="m 183.55106,644.61299 h 15.33726 v -67.45958 h -15.33726 l -23.42392,-28.82499 h -21.11692 v 125.10884 h 21.11692 z"
         style="color:#000000;clip-rule:nonzero;display:inline;overflow:visible;visibility:visible;opacity:1;isolation:auto;mix-blend-mode:normal;color-interpolation:sRGB;color-interpolation-filters:linearRGB;solid-color:#000000;solid-opacity:1;fill:#000000;fill-opacity:1;fill-rule:evenodd;stroke:none;stroke-width:20;stroke-linecap:round;stroke-linejoin:miter;stroke-miterlimit:4;stroke-dasharray:none;stroke-dashoffset:0;stroke-opacity:1;color-rendering:auto;image-rendering:auto;shape-rendering:auto;text-rendering:auto;enable-background:accumulate" />
    </g>
    <g
       id="g1032"
       transform="matrix(1.7097904,0,0,1.7097904,-75.449732,-777.57344)">
      <path
         id="rect853"
         style="fill:#000000;fill-opacity:1;stroke:none;stroke-width:2.51714"
         d="m 80.736328,627.34961 v 34.27148 h 7.203125 v 7.65625 H 63.955078 v 58.76954 h 9.03711 a 52.690312,52.690312 0 0 1 -2.09961,-14.71876 52.690312,52.690312 0 0 1 52.691402,-52.68945 52.690312,52.690312 0 0 1 52.68946,52.68945 52.690312,52.690312 0 0 1 -1.08008,10.61719 h 120.39648 a 51.628398,51.628398 0 0 0 48.65235,34.35157 51.628398,51.628398 0 0 0 48.65234,-34.35157 h 8.28711 V 653.5957 H 215.40625 v -13.38086 h -34.27148 v 13.38086 h -8.31836 v -13.38086 h -34.27344 v 13.38086 h -23.53516 v -26.24609 z"
         transform="matrix(0.93749999,0,0,0.93749999,0,343.70079)" />
      <path
         id="path855-3-6"
         style="fill:#000000;fill-opacity:1;stroke:none;stroke-width:3.09399"
         d="m 123.58398,668.35938 a 44.968623,44.968623 0 0 0 -44.968746,44.96874 44.968623,44.968623 0 0 0 44.968746,44.96876 44.968623,44.968623 0 0 0 44.96875,-44.96876 44.968623,44.968623 0 0 0 -44.96875,-44.96874 z m -5.96093,21.125 h 11.92187 v 17.88281 h 17.88281 v 11.92187 h -17.88281 v 17.88282 H 117.62305 V 719.28906 H 99.738281 v -11.92187 h 17.884769 z"
         transform="matrix(0.93749999,0,0,0.93749999,0,343.70079)" />
      <rect
         style="fill:#000000;fill-opacity:1;stroke:none;stroke-width:3.54331"
         id="rect1027"
         width="8.6591682"
         height="23.448696"
         x="64.538231"
         y="935.76605" />
    </g>
  </g>
</svg>
