<?xml version="1.0" encoding="UTF-8" standalone="no"?>
<!-- Created with Inkscape (http://www.inkscape.org/) -->

<svg
   width="200mm"
   height="200mm"
   viewBox="0 0 708.66142 708.66141"
   id="svg2"
   version="1.1"
   inkscape:version="1.1.2 (0a00cf5339, 2022-02-04)"
   sodipodi:docname="cancel.svg"
   xmlns:inkscape="http://www.inkscape.org/namespaces/inkscape"
   xmlns:sodipodi="http://sodipodi.sourceforge.net/DTD/sodipodi-0.dtd"
   xmlns="http://www.w3.org/2000/svg"
   xmlns:svg="http://www.w3.org/2000/svg"
   xmlns:rdf="http://www.w3.org/1999/02/22-rdf-syntax-ns#"
   xmlns:cc="http://creativecommons.org/ns#"
   xmlns:dc="http://purl.org/dc/elements/1.1/">
  <defs
     id="defs4" />
  <sodipodi:namedview
     id="base"
     pagecolor="#ffffff"
     bordercolor="#666666"
     borderopacity="1.0"
     inkscape:pageopacity="0.0"
     inkscape:pageshadow="2"
     inkscape:zoom="0.35355339"
     inkscape:cx="181.01934"
     inkscape:cy="97.580736"
     inkscape:document-units="px"
     inkscape:current-layer="layer1"
     showgrid="false"
     inkscape:snap-bbox="true"
     inkscape:bbox-paths="true"
     inkscape:snap-bbox-edge-midpoints="true"
     inkscape:bbox-nodes="true"
     inkscape:snap-bbox-midpoints="true"
     inkscape:window-width="1920"
     inkscape:window-height="1016"
     inkscape:window-x="0"
     inkscape:window-y="27"
     inkscape:window-maximized="1"
     inkscape:snap-global="false"
     inkscape:pagecheckerboard="0" />
  <metadata
     id="metadata7">
    <rdf:RDF>
      <cc:Work
         rdf:about="">
        <dc:format>image/svg+xml</dc:format>
        <dc:type
           rdf:resource="http://purl.org/dc/dcmitype/StillImage" />
      </cc:Work>
    </rdf:RDF>
  </metadata>
  <g
     inkscape:label="layer1"
     inkscape:groupmode="layer"
     id="layer1"
     transform="translate(0,-343.70079)">
    <path
       id="path1202-7-3"
       style="color:#000000;fill:#000000;stroke-width:1.50954;stroke-linecap:round;-inkscape-stroke:none"
       d="m 678.09051,374.27172 c -27.63329,-27.6333 -72.43562,-27.6332 -100.06883,0 L 354.33072,597.96267 130.63977,374.27172 c -27.63324,-27.63326 -72.435576,-27.63326 -100.068826,0 -27.6332496,27.63325 -27.6332386,72.43558 0,100.06883 L 254.26189,698.0315 30.570944,921.7225 c -27.6332496,27.63318 -27.6332926,72.43557 0,100.0688 27.633186,27.6332 72.435576,27.6333 100.068826,0 L 354.33072,798.10033 578.01975,1021.7893 c 27.63325,27.6333 72.43556,27.6333 100.06883,0 27.63325,-27.63323 27.63325,-72.43554 0,-100.06882 L 454.39956,698.0315 678.09051,474.34055 c 27.63321,-27.6332 27.63321,-72.43564 0,-100.06883 z"
       sodipodi:nodetypes="sscssscssscssscss" />
  </g>
</svg>
