<?xml version="1.0" encoding="UTF-8" standalone="no"?>
<!-- Created with Inkscape (http://www.inkscape.org/) -->

<svg
   width="200mm"
   height="200mm"
   viewBox="0 0 708.66142 708.66141"
   id="svg2"
   version="1.1"
   inkscape:version="1.1.2 (0a00cf5339, 2022-02-04)"
   sodipodi:docname="download.svg"
   xmlns:inkscape="http://www.inkscape.org/namespaces/inkscape"
   xmlns:sodipodi="http://sodipodi.sourceforge.net/DTD/sodipodi-0.dtd"
   xmlns="http://www.w3.org/2000/svg"
   xmlns:svg="http://www.w3.org/2000/svg"
   xmlns:rdf="http://www.w3.org/1999/02/22-rdf-syntax-ns#"
   xmlns:cc="http://creativecommons.org/ns#"
   xmlns:dc="http://purl.org/dc/elements/1.1/">
  <defs
     id="defs4" />
  <sodipodi:namedview
     id="base"
     pagecolor="#ffffff"
     bordercolor="#666666"
     borderopacity="1.0"
     inkscape:pageopacity="0.0"
     inkscape:pageshadow="2"
     inkscape:zoom="0.175"
     inkscape:cx="314.28571"
     inkscape:cy="542.85714"
     inkscape:document-units="px"
     inkscape:current-layer="layer1"
     showgrid="false"
     inkscape:snap-bbox="true"
     inkscape:bbox-paths="true"
     inkscape:snap-bbox-edge-midpoints="true"
     inkscape:bbox-nodes="true"
     inkscape:snap-bbox-midpoints="true"
     inkscape:window-width="1551"
     inkscape:window-height="991"
     inkscape:window-x="26"
     inkscape:window-y="23"
     inkscape:window-maximized="0"
     inkscape:pagecheckerboard="0"
     inkscape:snap-global="false" />
  <metadata
     id="metadata7">
    <rdf:RDF>
      <cc:Work
         rdf:about="">
        <dc:format>image/svg+xml</dc:format>
        <dc:type
           rdf:resource="http://purl.org/dc/dcmitype/StillImage" />
      </cc:Work>
    </rdf:RDF>
  </metadata>
  <g
     inkscape:label="layer1"
     inkscape:groupmode="layer"
     id="layer1"
     transform="translate(0,-343.70079)">
    <path
       id="path4172-3"
       style="color:#000000;clip-rule:nonzero;display:inline;overflow:visible;visibility:visible;isolation:auto;mix-blend-mode:normal;color-interpolation:sRGB;color-interpolation-filters:linearRGB;solid-color:#000000;solid-opacity:1;fill:#000000;fill-opacity:1;fill-rule:evenodd;stroke:none;stroke-width:18.4029;stroke-linecap:round;stroke-linejoin:miter;stroke-miterlimit:4;stroke-dasharray:none;stroke-dashoffset:0;stroke-opacity:1;color-rendering:auto;image-rendering:auto;shape-rendering:auto;text-rendering:auto;enable-background:accumulate"
       inkscape:transform-center-x="5.5502495e-05"
       inkscape:transform-center-y="51.592542"
       d="M 374.1986,945.4864 195.4767,750.94955 H 309.5121 V 546.93502 h 127.7072 v 204.01453 h 115.7012 z"
       sodipodi:nodetypes="cccccccc" />
    <path
       style="color:#000000;fill:#000000;fill-opacity:1;stroke-linecap:round;-inkscape-stroke:none"
       d="m 377.21289,427.36133 c -96.81141,0.18564 -175.21951,82.28576 -194.33789,189.35156 -2.46652,-0.16446 -4.93054,-0.38904 -7.40234,-0.39648 h -0.0391 -0.0371 c -77.328235,-4e-5 -135.392574,73.45281 -135.392574,158.09961 0,84.64678 58.064339,158.10161 135.392574,158.10156 h 0.38868 l 0.39062,-0.0137 c -2.29238,0.07 5.37173,-0.0196 12.875,-0.0215 7.50327,-0.002 17.24932,0.002 27.00586,-0.008 9.75654,-0.01 19.517,-0.0307 27.12305,-0.0801 3.80302,-0.0247 7.05515,-0.0567 9.58593,-0.0996 1.2654,-0.0215 2.33887,-0.045 3.31836,-0.0781 0.9795,-0.0331 0.62421,0.18329 4.17188,-0.32227 a 25.559999,25.559999 0 0 0 21.69726,-28.91016 25.559999,25.559999 0 0 0 -28.91015,-21.69921 c 3.12843,-0.44582 1.79673,-0.17451 1.31445,-0.15821 -0.48227,0.0163 -1.3571,0.0361 -2.45703,0.0547 -2.19985,0.0373 -5.34481,0.0697 -9.05273,0.0937 -7.41585,0.0481 -17.12627,0.0686 -26.8418,0.0781 -9.71553,0.01 -19.44456,0.008 -26.96875,0.01 -7.52419,0.002 -10.44142,-0.0766 -14.42188,0.0449 l 0.78125,-0.0117 c -43.98902,3e-5 -84.273433,-45.22767 -84.273433,-106.98046 0,-61.73628 40.263033,-106.95236 84.238283,-106.97657 2.18447,0.008 4.36843,0.12279 6.54883,0.34961 l 1.31836,0.13672 h 45.1289 l 2.19141,-23.15039 c 9.23545,-97.54568 74.50767,-166.13881 146.74023,-166.29102 55.30857,0.026 107.9679,39.79261 133.4336,107.38282 l 4.84765,12.86523 13.40625,3.04688 c 51.06108,11.60832 92.378,68.55518 92.39844,138.45898 -0.17103,76.52101 -48.99198,136.54045 -105.21094,141.02539 -9.07259,0.16516 -9.6147,0.0459 -18.33008,0.15625 a 25.559999,25.559999 0 0 0 -25.23437,25.88086 25.559999,25.559999 0 0 0 25.88086,25.23438 c 8.57908,-0.10864 8.55673,0.0495 19.66992,-0.16993 l 0.70117,-0.0137 0.69727,-0.0527 c 88.65386,-6.62359 152.74195,-93.32349 152.94726,-191.98047 v -0.0293 -0.0273 C 672.48548,655.36129 625.30536,579.14513 553.51758,555.65039 520.02311,478.82908 453.02381,427.37641 377.26758,427.36133 h -0.0274 z"
       id="path12949-1" />
  </g>
</svg>
