<?xml version="1.0" encoding="UTF-8" standalone="no"?>
<!-- Created with Inkscape (http://www.inkscape.org/) -->

<svg
   width="200mm"
   height="200mm"
   viewBox="0 0 708.66142 708.66141"
   id="svg2"
   version="1.1"
   inkscape:version="1.1.2 (0a00cf5339, 2022-02-04)"
   sodipodi:docname="hamburger.svg"
   xmlns:inkscape="http://www.inkscape.org/namespaces/inkscape"
   xmlns:sodipodi="http://sodipodi.sourceforge.net/DTD/sodipodi-0.dtd"
   xmlns="http://www.w3.org/2000/svg"
   xmlns:svg="http://www.w3.org/2000/svg"
   xmlns:rdf="http://www.w3.org/1999/02/22-rdf-syntax-ns#"
   xmlns:cc="http://creativecommons.org/ns#"
   xmlns:dc="http://purl.org/dc/elements/1.1/">
  <defs
     id="defs4" />
  <sodipodi:namedview
     id="base"
     pagecolor="#ffffff"
     bordercolor="#666666"
     borderopacity="1.0"
     inkscape:pageopacity="0.0"
     inkscape:pageshadow="2"
     inkscape:zoom="0.125"
     inkscape:cx="-768"
     inkscape:cy="1404"
     inkscape:document-units="px"
     inkscape:current-layer="layer1"
     showgrid="false"
     inkscape:snap-bbox="true"
     inkscape:bbox-paths="true"
     inkscape:snap-bbox-edge-midpoints="true"
     inkscape:bbox-nodes="true"
     inkscape:snap-bbox-midpoints="true"
     inkscape:window-width="1920"
     inkscape:window-height="1016"
     inkscape:window-x="0"
     inkscape:window-y="27"
     inkscape:window-maximized="1"
     inkscape:snap-global="false"
     inkscape:pagecheckerboard="0" />
  <metadata
     id="metadata7">
    <rdf:RDF>
      <cc:Work
         rdf:about="">
        <dc:format>image/svg+xml</dc:format>
        <dc:type
           rdf:resource="http://purl.org/dc/dcmitype/StillImage" />
      </cc:Work>
    </rdf:RDF>
  </metadata>
  <g
     inkscape:label="layer1"
     inkscape:groupmode="layer"
     id="layer1"
     transform="translate(0,-343.70079)">
    <path
       style="color:#000000;fill:#000000;stroke-linecap:round;-inkscape-stroke:none"
       d="m 121.51563,344.06445 c -66.633995,0 -121.156255,54.52226 -121.156255,121.15625 v 465.6211 c 0,66.63399 54.52226,121.1562 121.156255,121.1562 h 465.63085 c 66.63399,0 121.15625,-54.52221 121.15625,-121.1562 V 465.2207 c 0,-66.63399 -54.52226,-121.15625 -121.15625,-121.15625 z m 0,56.25 h 465.63085 c 36.44449,0 64.90625,28.46176 64.90625,64.90625 v 465.6211 c 0,36.44449 -28.46176,64.90625 -64.90625,64.90625 H 121.51563 c -36.444495,0 -64.906255,-28.46176 -64.906255,-64.90625 V 465.2207 c 0,-36.44449 28.46176,-64.90625 64.906255,-64.90625 z"
       id="rect867" />
    <path
       style="color:#000000;fill:#000000;stroke-linecap:round;-inkscape-stroke:none"
       d="m 171.95312,491.51953 a 46.875,46.875 0 0 0 -46.87499,46.875 46.875,46.875 0 0 0 46.87499,46.875 h 364.75586 a 46.875,46.875 0 0 0 46.875,-46.875 46.875,46.875 0 0 0 -46.875,-46.875 z"
       id="path1202" />
    <path
       style="color:#000000;fill:#000000;stroke-linecap:round;-inkscape-stroke:none"
       d="m 171.95312,651.15625 a 46.875,46.875 0 0 0 -46.87499,46.875 46.875,46.875 0 0 0 46.87499,46.875 h 364.75586 a 46.875,46.875 0 0 0 46.875,-46.875 46.875,46.875 0 0 0 -46.875,-46.875 z"
       id="path1202-7" />
    <path
       style="color:#000000;fill:#000000;stroke-linecap:round;-inkscape-stroke:none"
       d="m 171.95312,810.79492 a 46.875,46.875 0 0 0 -46.87499,46.875 46.875,46.875 0 0 0 46.87499,46.875 h 364.75586 a 46.875,46.875 0 0 0 46.875,-46.875 46.875,46.875 0 0 0 -46.875,-46.875 z"
       id="path1202-5" />
  </g>
</svg>
