<?xml version="1.0" encoding="UTF-8" standalone="no"?>
<!-- Created with Inkscape (http://www.inkscape.org/) -->

<svg
   width="200mm"
   height="200mm"
   viewBox="0 0 708.66142 708.66141"
   id="svg2"
   version="1.1"
   inkscape:version="1.1.2 (0a00cf5339, 2022-02-04)"
   sodipodi:docname="newFile.svg"
   xmlns:inkscape="http://www.inkscape.org/namespaces/inkscape"
   xmlns:sodipodi="http://sodipodi.sourceforge.net/DTD/sodipodi-0.dtd"
   xmlns="http://www.w3.org/2000/svg"
   xmlns:svg="http://www.w3.org/2000/svg"
   xmlns:rdf="http://www.w3.org/1999/02/22-rdf-syntax-ns#"
   xmlns:cc="http://creativecommons.org/ns#"
   xmlns:dc="http://purl.org/dc/elements/1.1/">
  <defs
     id="defs4" />
  <sodipodi:namedview
     id="base"
     pagecolor="#ffffff"
     bordercolor="#666666"
     borderopacity="1.0"
     inkscape:pageopacity="0.0"
     inkscape:pageshadow="2"
     inkscape:zoom="0.35"
     inkscape:cx="734.28571"
     inkscape:cy="497.14286"
     inkscape:document-units="px"
     inkscape:current-layer="layer1"
     showgrid="false"
     inkscape:snap-bbox="true"
     inkscape:bbox-paths="true"
     inkscape:snap-bbox-edge-midpoints="true"
     inkscape:bbox-nodes="true"
     inkscape:snap-bbox-midpoints="true"
     inkscape:window-width="1551"
     inkscape:window-height="991"
     inkscape:window-x="26"
     inkscape:window-y="23"
     inkscape:window-maximized="0"
     inkscape:pagecheckerboard="0"
     inkscape:snap-global="false" />
  <metadata
     id="metadata7">
    <rdf:RDF>
      <cc:Work
         rdf:about="">
        <dc:format>image/svg+xml</dc:format>
        <dc:type
           rdf:resource="http://purl.org/dc/dcmitype/StillImage" />
      </cc:Work>
    </rdf:RDF>
  </metadata>
  <g
     inkscape:label="layer1"
     inkscape:groupmode="layer"
     id="layer1"
     transform="translate(0,-343.70079)">
    <path
       id="path1854"
       style="color:#000000;fill:#000000;stroke-width:1.06667;-inkscape-stroke:none"
       d="M 137.2207 47.355469 L 137.2207 687.82422 L 361.76758 687.82422 L 361.76758 639.21094 L 185.83594 639.21094 L 185.83594 95.96875 L 428.0918 95.96875 L 428.0918 234.76172 L 566.93945 234.76172 L 566.93945 470.33984 L 615.55273 470.33984 L 615.55273 190.67188 L 462.96484 47.355469 L 137.2207 47.355469 z M 478.0918 128.25586 L 538.25195 184.76172 L 478.0918 184.76172 L 478.0918 128.25586 z "
       transform="matrix(0.93749999,0,0,0.93749999,0,343.70079)" />
    <path
       id="path2141"
       style="color:#000000;fill:#000000;stroke-width:1.06667;-inkscape-stroke:none"
       d="M 489.7207 464.0625 L 489.7207 565.94922 L 387.83594 565.94922 L 387.83594 615.94922 L 489.7207 615.94922 L 489.7207 717.83594 L 539.7207 717.83594 L 539.7207 615.94922 L 641.60547 615.94922 L 641.60547 565.94922 L 539.7207 565.94922 L 539.7207 464.0625 L 489.7207 464.0625 z "
       transform="matrix(0.93749999,0,0,0.93749999,0,343.70079)" />
  </g>
</svg>
