<?xml version="1.0" encoding="UTF-8" standalone="no"?>
<!-- Created with Inkscape (http://www.inkscape.org/) -->

<svg
   width="200mm"
   height="200mm"
   viewBox="0 0 708.66142 708.66141"
   id="svg2"
   version="1.1"
   sodipodi:docname="upload.svg"
   inkscape:version="1.1.2 (0a00cf5339, 2022-02-04)"
   xmlns:inkscape="http://www.inkscape.org/namespaces/inkscape"
   xmlns:sodipodi="http://sodipodi.sourceforge.net/DTD/sodipodi-0.dtd"
   xmlns="http://www.w3.org/2000/svg"
   xmlns:svg="http://www.w3.org/2000/svg"
   xmlns:rdf="http://www.w3.org/1999/02/22-rdf-syntax-ns#"
   xmlns:cc="http://creativecommons.org/ns#"
   xmlns:dc="http://purl.org/dc/elements/1.1/">
  <sodipodi:namedview
     id="namedview832"
     pagecolor="#ffffff"
     bordercolor="#666666"
     borderopacity="1.0"
     inkscape:pageshadow="2"
     inkscape:pageopacity="0.0"
     inkscape:pagecheckerboard="0"
     inkscape:document-units="mm"
     showgrid="false"
     inkscape:zoom="0.25863021"
     inkscape:cx="342.1874"
     inkscape:cy="554.84624"
     inkscape:window-width="1920"
     inkscape:window-height="1016"
     inkscape:window-x="0"
     inkscape:window-y="0"
     inkscape:window-maximized="1"
     inkscape:current-layer="svg2" />
  <defs
     id="defs4" />
  <metadata
     id="metadata7">
    <rdf:RDF>
      <cc:Work
         rdf:about="">
        <dc:format>image/svg+xml</dc:format>
        <dc:type
           rdf:resource="http://purl.org/dc/dcmitype/StillImage" />
      </cc:Work>
    </rdf:RDF>
  </metadata>
  <path
     id="path4172"
     style="color:#000000;clip-rule:nonzero;display:inline;overflow:visible;visibility:visible;isolation:auto;mix-blend-mode:normal;color-interpolation:sRGB;color-interpolation-filters:linearRGB;solid-color:#000000;solid-opacity:1;fill:#000000;fill-opacity:1;fill-rule:evenodd;stroke:none;stroke-width:18.4029;stroke-linecap:round;stroke-linejoin:miter;stroke-miterlimit:4;stroke-dasharray:none;stroke-dashoffset:0;stroke-opacity:1;color-rendering:auto;image-rendering:auto;shape-rendering:auto;text-rendering:auto;enable-background:accumulate"
     d="M 376.15516,201.28471 197.43328,395.82156 H 311.46866 V 599.83611 H 439.17593 V 395.82156 h 115.70112 z" />
  <path
     style="color:#000000;fill:#000000;fill-opacity:1;stroke-linecap:round;-inkscape-stroke:none"
     d="M 379.16992,91.085937 C 282.35851,91.271575 203.95043,173.37172 184.83203,280.4375 c -2.46652,-0.16446 -4.93054,-0.38904 -7.40234,-0.39648 h -0.0391 -0.0391 c -77.32824,-4e-5 -135.392576,73.45281 -135.392576,158.0996 0,84.64679 58.064336,158.10162 135.392576,158.10157 h 0.39063 l 0.39062,-0.0117 c -2.29238,0.07 5.37173,-0.0215 12.875,-0.0234 7.50327,-0.002 17.24737,0.002 27.00391,-0.008 9.75654,-0.01 19.51699,-0.0307 27.12305,-0.0801 3.80302,-0.0247 7.0571,-0.0567 9.58789,-0.0996 1.26539,-0.0215 2.33886,-0.045 3.31836,-0.0781 0.97949,-0.0331 0.62226,0.18329 4.16992,-0.32227 A 25.559999,25.559999 0 0 0 283.91016,566.70898 25.559999,25.559999 0 0 0 255,545.00977 c 3.12842,-0.44582 1.79673,-0.17451 1.31445,-0.15821 -0.48227,0.0163 -1.3571,0.0361 -2.45703,0.0547 -2.19985,0.0373 -5.34481,0.0697 -9.05273,0.0937 -7.41586,0.0481 -17.12627,0.0686 -26.8418,0.0781 -9.71553,0.01 -19.44455,0.008 -26.96875,0.01 -7.52419,0.002 -10.44142,-0.0766 -14.42187,0.0449 l 0.77929,-0.0117 c -43.98902,3e-5 -84.271482,-45.22767 -84.271482,-106.98047 0,-61.73626 40.261082,-106.95235 84.236332,-106.97656 2.18511,0.008 4.36974,0.12273 6.55078,0.34961 l 1.31836,0.13672 h 45.1289 L 232.50586,308.5 c 9.23539,-97.54482 74.50647,-166.13758 146.73828,-166.29102 55.30859,0.026 107.96987,39.79261 133.43555,107.38282 l 4.84765,12.86523 13.4043,3.04688 c 51.0611,11.60832 92.38002,68.55522 92.40039,138.45898 -0.17108,76.52102 -48.99197,136.54044 -105.21094,141.02539 -9.07267,0.16516 -9.61654,0.0459 -18.33203,0.15625 a 25.559999,25.559999 0 0 0 -25.23437,25.88086 25.559999,25.559999 0 0 0 25.88281,25.23438 c 8.57916,-0.10864 8.55485,0.0495 19.66797,-0.16993 l 0.70117,-0.0137 0.69922,-0.0527 c 88.65387,-6.62359 152.74188,-93.3235 152.94726,-191.98047 v -0.0293 -0.0273 C 674.44259,319.08585 627.26241,242.86974 555.47461,219.375 521.98016,142.55368 454.98085,91.101018 379.22461,91.085937 h -0.0273 z"
     id="path12949" />
</svg>
