{
    "asset" : {
        "generator" : "Khronos glTF Blender I/O v0.9.36",
        "version" : "2.0"
    },
    "scene" : 0,
    "scenes" : [
        {
            "name" : "Scene",
            "nodes" : [
                3,
                4
            ]
        }
    ],
    "nodes" : [
        {
            "mesh" : 0,
            "name" : "character_rogueArmLeft",
            "translation" : [
                0.20404481887817383,
                0.6335563659667969,
                0
            ]
        },
        {
            "mesh" : 1,
            "name" : "character_rogueArmRight",
            "translation" : [
                -0.20404481887817383,
                0.6335563659667969,
                0
            ]
        },
        {
            "mesh" : 2,
            "name" : "character_rogueHead",
            "translation" : [
                0,
                0.7037110328674316,
                0
            ]
        },
        {
            "children" : [
                0,
                1,
                2
            ],
            "mesh" : 3,
            "name" : "character_rogueBody"
        },
        {
            "mesh" : 4,
            "name" : "character_rogueHair",
            "translation" : [
                -0.00067138671875,
                0.7037097811698914,
                0
            ]
        }
    ],
    "materials" : [
        {
            "name" : "BrownDark",
            "pbrMetallicRoughness" : {
                "baseColorFactor" : [
                    0.32694560289382935,
                    0.10152623057365417,
                    0.05927089974284172,
                    1
                ],
                "metallicFactor" : 0,
                "roughnessFactor" : 0.4000000059604645
            }
        },
        {
            "doubleSided" : true,
            "name" : "GreenDark",
            "pbrMetallicRoughness" : {
                "baseColorFactor" : [
                    0.02141951024532318,
                    0.25731161236763,
                    0.26676133275032043,
                    1
                ],
                "metallicFactor" : 0,
                "roughnessFactor" : 0.4000000059604645
            }
        },
        {
            "doubleSided" : true,
            "name" : "Brown",
            "pbrMetallicRoughness" : {
                "baseColorFactor" : [
                    0.5778115391731262,
                    0.23347531259059906,
                    0.11534765362739563,
                    1
                ],
                "metallicFactor" : 0,
                "roughnessFactor" : 0.5
            }
        },
        {
            "doubleSided" : true,
            "name" : "PinkLight",
            "pbrMetallicRoughness" : {
                "baseColorFactor" : [
                    0.9215819239616394,
                    0.5271151065826416,
                    0.33245164155960083,
                    1
                ],
                "metallicFactor" : 0,
                "roughnessFactor" : 0.5
            }
        },
        {
            "name" : "Black",
            "pbrMetallicRoughness" : {
                "baseColorFactor" : [
                    0.019794002175331116,
                    0.03207586705684662,
                    0.037408243864774704,
                    1
                ],
                "metallicFactor" : 0,
                "roughnessFactor" : 0.5
            }
        },
        {
            "name" : "Metal",
            "pbrMetallicRoughness" : {
                "baseColorFactor" : [
                    0.40126433968544006,
                    0.47849249839782715,
                    0.5173344612121582,
                    1
                ],
                "metallicFactor" : 0.20000000298023224,
                "roughnessFactor" : 0.30000001192092896
            }
        }
    ],
    "meshes" : [
        {
            "name" : "Cube.013",
            "primitives" : [
                {
                    "attributes" : {
                        "POSITION" : 0,
                        "NORMAL" : 1,
                        "TEXCOORD_0" : 2
                    },
                    "indices" : 3,
                    "material" : 0
                },
                {
                    "attributes" : {
                        "POSITION" : 4,
                        "NORMAL" : 5,
                        "TEXCOORD_0" : 6
                    },
                    "indices" : 7,
                    "material" : 1
                },
                {
                    "attributes" : {
                        "POSITION" : 8,
                        "NORMAL" : 9,
                        "TEXCOORD_0" : 10
                    },
                    "indices" : 11,
                    "material" : 2
                }
            ]
        },
        {
            "name" : "Cube.012",
            "primitives" : [
                {
                    "attributes" : {
                        "POSITION" : 12,
                        "NORMAL" : 13,
                        "TEXCOORD_0" : 14
                    },
                    "indices" : 15,
                    "material" : 0
                },
                {
                    "attributes" : {
                        "POSITION" : 16,
                        "NORMAL" : 17,
                        "TEXCOORD_0" : 18
                    },
                    "indices" : 19,
                    "material" : 2
                }
            ]
        },
        {
            "name" : "Cube.019",
            "primitives" : [
                {
                    "attributes" : {
                        "POSITION" : 20,
                        "NORMAL" : 21,
                        "TEXCOORD_0" : 22
                    },
                    "indices" : 23,
                    "material" : 3
                },
                {
                    "attributes" : {
                        "POSITION" : 24,
                        "NORMAL" : 25,
                        "TEXCOORD_0" : 26
                    },
                    "indices" : 27,
                    "material" : 4
                }
            ]
        },
        {
            "name" : "Cube.007",
            "primitives" : [
                {
                    "attributes" : {
                        "POSITION" : 28,
                        "NORMAL" : 29,
                        "TEXCOORD_0" : 30
                    },
                    "indices" : 31,
                    "material" : 1
                },
                {
                    "attributes" : {
                        "POSITION" : 32,
                        "NORMAL" : 33,
                        "TEXCOORD_0" : 34
                    },
                    "indices" : 35,
                    "material" : 0
                },
                {
                    "attributes" : {
                        "POSITION" : 36,
                        "NORMAL" : 37,
                        "TEXCOORD_0" : 38
                    },
                    "indices" : 39,
                    "material" : 2
                },
                {
                    "attributes" : {
                        "POSITION" : 40,
                        "NORMAL" : 41,
                        "TEXCOORD_0" : 42
                    },
                    "indices" : 43,
                    "material" : 5
                }
            ]
        },
        {
            "name" : "Cube.018",
            "primitives" : [
                {
                    "attributes" : {
                        "POSITION" : 44,
                        "NORMAL" : 45,
                        "TEXCOORD_0" : 46
                    },
                    "indices" : 47,
                    "material" : 0
                }
            ]
        }
    ],
    "accessors" : [
        {
            "bufferView" : 0,
            "componentType" : 5126,
            "count" : 137,
            "max" : [
                0.2777803838253021,
                -0.23067732155323029,
                0.11717022955417633
            ],
            "min" : [
                0.12086157500743866,
                -0.47665560245513916,
                -0.11717025190591812
            ],
            "type" : "VEC3"
        },
        {
            "bufferView" : 1,
            "componentType" : 5126,
            "count" : 137,
            "type" : "VEC3"
        },
        {
            "bufferView" : 2,
            "componentType" : 5126,
            "count" : 137,
            "type" : "VEC2"
        },
        {
            "bufferView" : 3,
            "componentType" : 5123,
            "count" : 663,
            "type" : "SCALAR"
        },
        {
            "bufferView" : 4,
            "componentType" : 5126,
            "count" : 87,
            "max" : [
                0.23861877620220184,
                0.09418356418609619,
                0.08695708215236664
            ],
            "min" : [
                -0.11533478647470474,
                -0.28116485476493835,
                -0.08695711195468903
            ],
            "type" : "VEC3"
        },
        {
            "bufferView" : 5,
            "componentType" : 5126,
            "count" : 87,
            "type" : "VEC3"
        },
        {
            "bufferView" : 6,
            "componentType" : 5126,
            "count" : 87,
            "type" : "VEC2"
        },
        {
            "bufferView" : 7,
            "componentType" : 5123,
            "count" : 303,
            "type" : "SCALAR"
        },
        {
            "bufferView" : 8,
            "componentType" : 5126,
            "count" : 73,
            "max" : [
                0.19027698040008545,
                -0.02742292918264866,
                0.09527913480997086
            ],
            "min" : [
                0.039978645741939545,
                -0.13979434967041016,
                -0.09527906775474548
            ],
            "type" : "VEC3"
        },
        {
            "bufferView" : 9,
            "componentType" : 5126,
            "count" : 73,
            "type" : "VEC3"
        },
        {
            "bufferView" : 10,
            "componentType" : 5126,
            "count" : 73,
            "type" : "VEC2"
        },
        {
            "bufferView" : 11,
            "componentType" : 5123,
            "count" : 306,
            "type" : "SCALAR"
        },
        {
            "bufferView" : 12,
            "componentType" : 5126,
            "count" : 243,
            "max" : [
                0.11533478647470474,
                0.09418356418609619,
                0.11717022955417633
            ],
            "min" : [
                -0.2777803838253021,
                -0.47665560245513916,
                -0.11717025190591812
            ],
            "type" : "VEC3"
        },
        {
            "bufferView" : 13,
            "componentType" : 5126,
            "count" : 243,
            "type" : "VEC3"
        },
        {
            "bufferView" : 14,
            "componentType" : 5126,
            "count" : 243,
            "type" : "VEC2"
        },
        {
            "bufferView" : 15,
            "componentType" : 5123,
            "count" : 1080,
            "type" : "SCALAR"
        },
        {
            "bufferView" : 16,
            "componentType" : 5126,
            "count" : 66,
            "max" : [
                0.035008400678634644,
                0.04365527629852295,
                0.08695708215236664
            ],
            "min" : [
                -0.23861877620220184,
                -0.28116485476493835,
                -0.08695711195468903
            ],
            "type" : "VEC3"
        },
        {
            "bufferView" : 17,
            "componentType" : 5126,
            "count" : 66,
            "type" : "VEC3"
        },
        {
            "bufferView" : 18,
            "componentType" : 5126,
            "count" : 66,
            "type" : "VEC2"
        },
        {
            "bufferView" : 19,
            "componentType" : 5123,
            "count" : 192,
            "type" : "SCALAR"
        },
        {
            "bufferView" : 20,
            "componentType" : 5126,
            "count" : 723,
            "max" : [
                0.5870566964149475,
                0.9702995419502258,
                0.5643507242202759
            ],
            "min" : [
                -0.5883983969688416,
                -1.2516975402832031e-06,
                -0.49049949645996094
            ],
            "type" : "VEC3"
        },
        {
            "bufferView" : 21,
            "componentType" : 5126,
            "count" : 723,
            "type" : "VEC3"
        },
        {
            "bufferView" : 22,
            "componentType" : 5126,
            "count" : 723,
            "type" : "VEC2"
        },
        {
            "bufferView" : 23,
            "componentType" : 5123,
            "count" : 2820,
            "type" : "SCALAR"
        },
        {
            "bufferView" : 24,
            "componentType" : 5126,
            "count" : 115,
            "max" : [
                0.3514142334461212,
                0.49321943521499634,
                0.468027800321579
            ],
            "min" : [
                -0.35274338722229004,
                0.35582393407821655,
                0.33534204959869385
            ],
            "type" : "VEC3"
        },
        {
            "bufferView" : 25,
            "componentType" : 5126,
            "count" : 115,
            "type" : "VEC3"
        },
        {
            "bufferView" : 26,
            "componentType" : 5126,
            "count" : 115,
            "type" : "VEC2"
        },
        {
            "bufferView" : 27,
            "componentType" : 5123,
            "count" : 426,
            "type" : "SCALAR"
        },
        {
            "bufferView" : 28,
            "componentType" : 5126,
            "count" : 286,
            "max" : [
                0.35662585496902466,
                0.7255613207817078,
                0.3566257953643799
            ],
            "min" : [
                -0.35662588477134705,
                0.10682645440101624,
                -0.3566259443759918
            ],
            "type" : "VEC3"
        },
        {
            "bufferView" : 29,
            "componentType" : 5126,
            "count" : 286,
            "type" : "VEC3"
        },
        {
            "bufferView" : 30,
            "componentType" : 5126,
            "count" : 286,
            "type" : "VEC2"
        },
        {
            "bufferView" : 31,
            "componentType" : 5123,
            "count" : 1074,
            "type" : "SCALAR"
        },
        {
            "bufferView" : 32,
            "componentType" : 5126,
            "count" : 423,
            "max" : [
                0.3623746335506439,
                0.35441190004348755,
                0.3657035827636719
            ],
            "min" : [
                -0.3052912652492523,
                -2.2351741790771484e-08,
                -0.39706963300704956
            ],
            "type" : "VEC3"
        },
        {
            "bufferView" : 33,
            "componentType" : 5126,
            "count" : 423,
            "type" : "VEC3"
        },
        {
            "bufferView" : 34,
            "componentType" : 5126,
            "count" : 423,
            "type" : "VEC2"
        },
        {
            "bufferView" : 35,
            "componentType" : 5123,
            "count" : 1182,
            "type" : "SCALAR"
        },
        {
            "bufferView" : 36,
            "componentType" : 5126,
            "count" : 352,
            "max" : [
                0.3505779802799225,
                0.7287117838859558,
                0.36294496059417725
            ],
            "min" : [
                -0.3505779504776001,
                0.1739652156829834,
                -0.36294496059417725
            ],
            "type" : "VEC3"
        },
        {
            "bufferView" : 37,
            "componentType" : 5126,
            "count" : 352,
            "type" : "VEC3"
        },
        {
            "bufferView" : 38,
            "componentType" : 5126,
            "count" : 352,
            "type" : "VEC2"
        },
        {
            "bufferView" : 39,
            "componentType" : 5123,
            "count" : 1296,
            "type" : "SCALAR"
        },
        {
            "bufferView" : 40,
            "componentType" : 5126,
            "count" : 128,
            "max" : [
                0.3466424345970154,
                0.32667112350463867,
                0.3763223886489868
            ],
            "min" : [
                -0.2749398350715637,
                0.16499558091163635,
                -0.38900327682495117
            ],
            "type" : "VEC3"
        },
        {
            "bufferView" : 41,
            "componentType" : 5126,
            "count" : 128,
            "type" : "VEC3"
        },
        {
            "bufferView" : 42,
            "componentType" : 5126,
            "count" : 128,
            "type" : "VEC2"
        },
        {
            "bufferView" : 43,
            "componentType" : 5123,
            "count" : 414,
            "type" : "SCALAR"
        },
        {
            "bufferView" : 44,
            "componentType" : 5126,
            "count" : 566,
            "max" : [
                0.552702009677887,
                1.0640662908554077,
                0.5324633121490479
            ],
            "min" : [
                -0.5713285803794861,
                -0.15617205202579498,
                -0.5556555390357971
            ],
            "type" : "VEC3"
        },
        {
            "bufferView" : 45,
            "componentType" : 5126,
            "count" : 566,
            "type" : "VEC3"
        },
        {
            "bufferView" : 46,
            "componentType" : 5126,
            "count" : 566,
            "type" : "VEC2"
        },
        {
            "bufferView" : 47,
            "componentType" : 5123,
            "count" : 2916,
            "type" : "SCALAR"
        }
    ],
    "bufferViews" : [
        {
            "buffer" : 0,
            "byteLength" : 1644,
            "byteOffset" : 0
        },
        {
            "buffer" : 0,
            "byteLength" : 1644,
            "byteOffset" : 1644
        },
        {
            "buffer" : 0,
            "byteLength" : 1096,
            "byteOffset" : 3288
        },
        {
            "buffer" : 0,
            "byteLength" : 1326,
            "byteOffset" : 4384
        },
        {
            "buffer" : 0,
            "byteLength" : 1044,
            "byteOffset" : 5712
        },
        {
            "buffer" : 0,
            "byteLength" : 1044,
            "byteOffset" : 6756
        },
        {
            "buffer" : 0,
            "byteLength" : 696,
            "byteOffset" : 7800
        },
        {
            "buffer" : 0,
            "byteLength" : 606,
            "byteOffset" : 8496
        },
        {
            "buffer" : 0,
            "byteLength" : 876,
            "byteOffset" : 9104
        },
        {
            "buffer" : 0,
            "byteLength" : 876,
            "byteOffset" : 9980
        },
        {
            "buffer" : 0,
            "byteLength" : 584,
            "byteOffset" : 10856
        },
        {
            "buffer" : 0,
            "byteLength" : 612,
            "byteOffset" : 11440
        },
        {
            "buffer" : 0,
            "byteLength" : 2916,
            "byteOffset" : 12052
        },
        {
            "buffer" : 0,
            "byteLength" : 2916,
            "byteOffset" : 14968
        },
        {
            "buffer" : 0,
            "byteLength" : 1944,
            "byteOffset" : 17884
        },
        {
            "buffer" : 0,
            "byteLength" : 2160,
            "byteOffset" : 19828
        },
        {
            "buffer" : 0,
            "byteLength" : 792,
            "byteOffset" : 21988
        },
        {
            "buffer" : 0,
            "byteLength" : 792,
            "byteOffset" : 22780
        },
        {
            "buffer" : 0,
            "byteLength" : 528,
            "byteOffset" : 23572
        },
        {
            "buffer" : 0,
            "byteLength" : 384,
            "byteOffset" : 24100
        },
        {
            "buffer" : 0,
            "byteLength" : 8676,
            "byteOffset" : 24484
        },
        {
            "buffer" : 0,
            "byteLength" : 8676,
            "byteOffset" : 33160
        },
        {
            "buffer" : 0,
            "byteLength" : 5784,
            "byteOffset" : 41836
        },
        {
            "buffer" : 0,
            "byteLength" : 5640,
            "byteOffset" : 47620
        },
        {
            "buffer" : 0,
            "byteLength" : 1380,
            "byteOffset" : 53260
        },
        {
            "buffer" : 0,
            "byteLength" : 1380,
            "byteOffset" : 54640
        },
        {
            "buffer" : 0,
            "byteLength" : 920,
            "byteOffset" : 56020
        },
        {
            "buffer" : 0,
            "byteLength" : 852,
            "byteOffset" : 56940
        },
        {
            "buffer" : 0,
            "byteLength" : 3432,
            "byteOffset" : 57792
        },
        {
            "buffer" : 0,
            "byteLength" : 3432,
            "byteOffset" : 61224
        },
        {
            "buffer" : 0,
            "byteLength" : 2288,
            "byteOffset" : 64656
        },
        {
            "buffer" : 0,
            "byteLength" : 2148,
            "byteOffset" : 66944
        },
        {
            "buffer" : 0,
            "byteLength" : 5076,
            "byteOffset" : 69092
        },
        {
            "buffer" : 0,
            "byteLength" : 5076,
            "byteOffset" : 74168
        },
        {
            "buffer" : 0,
            "byteLength" : 3384,
            "byteOffset" : 79244
        },
        {
            "buffer" : 0,
            "byteLength" : 2364,
            "byteOffset" : 82628
        },
        {
            "buffer" : 0,
            "byteLength" : 4224,
            "byteOffset" : 84992
        },
        {
            "buffer" : 0,
            "byteLength" : 4224,
            "byteOffset" : 89216
        },
        {
            "buffer" : 0,
            "byteLength" : 2816,
            "byteOffset" : 93440
        },
        {
            "buffer" : 0,
            "byteLength" : 2592,
            "byteOffset" : 96256
        },
        {
            "buffer" : 0,
            "byteLength" : 1536,
            "byteOffset" : 98848
        },
        {
            "buffer" : 0,
            "byteLength" : 1536,
            "byteOffset" : 100384
        },
        {
            "buffer" : 0,
            "byteLength" : 1024,
            "byteOffset" : 101920
        },
        {
            "buffer" : 0,
            "byteLength" : 828,
            "byteOffset" : 102944
        },
        {
            "buffer" : 0,
            "byteLength" : 6792,
            "byteOffset" : 103772
        },
        {
            "buffer" : 0,
            "byteLength" : 6792,
            "byteOffset" : 110564
        },
        {
            "buffer" : 0,
            "byteLength" : 4528,
            "byteOffset" : 117356
        },
        {
            "buffer" : 0,
            "byteLength" : 5832,
            "byteOffset" : 121884
        }
    ],
    "buffers" : [
        {
            "byteLength" : 127716,
            "uri" : "data:application/octet-stream;base64,"
        }
    ]
}
