<?xml version="1.0" encoding="UTF-8" standalone="no"?>
<!-- Created with Inkscape (http://www.inkscape.org/) -->

<svg
   xmlns:dc="http://purl.org/dc/elements/1.1/"
   xmlns:cc="http://creativecommons.org/ns#"
   xmlns:rdf="http://www.w3.org/1999/02/22-rdf-syntax-ns#"
   xmlns:svg="http://www.w3.org/2000/svg"
   xmlns="http://www.w3.org/2000/svg"
   xmlns:sodipodi="http://sodipodi.sourceforge.net/DTD/sodipodi-0.dtd"
   xmlns:inkscape="http://www.inkscape.org/namespaces/inkscape"
   width="100mm"
   height="200mm"
   viewBox="0 0 354.33071 708.66141"
   id="svg2"
   version="1.1"
   inkscape:version="0.91 r13725"
   sodipodi:docname="color.svg"
   inkscape:export-filename="/home/cort/rect4292.png"
   inkscape:export-xdpi="25.4"
   inkscape:export-ydpi="25.4">
  <defs
     id="defs4" />
  <sodipodi:namedview
     id="base"
     pagecolor="#ffffff"
     bordercolor="#666666"
     borderopacity="1.0"
     inkscape:pageopacity="0.0"
     inkscape:pageshadow="2"
     inkscape:zoom="0.35"
     inkscape:cx="-75.983817"
     inkscape:cy="525.95765"
     inkscape:document-units="px"
     inkscape:current-layer="layer1"
     showgrid="false"
     inkscape:window-width="1855"
     inkscape:window-height="1056"
     inkscape:window-x="65"
     inkscape:window-y="24"
     inkscape:window-maximized="1" />
  <metadata
     id="metadata7">
    <rdf:RDF>
      <cc:Work
         rdf:about="">
        <dc:format>image/svg+xml</dc:format>
        <dc:type
           rdf:resource="http://purl.org/dc/dcmitype/StillImage" />
        <dc:title></dc:title>
      </cc:Work>
    </rdf:RDF>
  </metadata>
  <g
     inkscape:label="Layer 1"
     inkscape:groupmode="layer"
     id="layer1"
     transform="translate(0,-343.70079)">
    <g
       id="g4260"
       transform="matrix(1.6711523,0,0,1.6711523,-127.81993,-309.32642)">
      <circle
         r="51.42857"
         cy="463.7908"
         cx="183.42857"
         id="path4136-97"
         style="opacity:1;fill:#ff0000;fill-opacity:1;fill-rule:evenodd;stroke:none;stroke-width:8;stroke-linecap:butt;stroke-linejoin:round;stroke-miterlimit:2;stroke-dasharray:none;stroke-opacity:1" />
      <circle
         r="51.42857"
         cy="529.50507"
         cx="215.71428"
         id="path4136-9-7"
         style="opacity:1;fill:#0000ff;fill-opacity:1;fill-rule:evenodd;stroke:none;stroke-width:8;stroke-linecap:butt;stroke-linejoin:round;stroke-miterlimit:2;stroke-dasharray:none;stroke-opacity:1" />
      <circle
         r="51.42857"
         cy="529.50507"
         cx="149.28571"
         id="path4136-9-3"
         style="opacity:1;fill:#00ff00;fill-opacity:1;fill-rule:evenodd;stroke:none;stroke-width:8;stroke-linecap:butt;stroke-linejoin:round;stroke-miterlimit:2;stroke-dasharray:none;stroke-opacity:1" />
      <path
         id="path4136-9"
         d="m 215.71484,478.07579 a 51.42857,51.42857 0 0 0 -48.49218,34.47852 51.42857,51.42857 0 0 0 16.20507,2.66601 51.42857,51.42857 0 0 0 48.49219,-34.47851 51.42857,51.42857 0 0 0 -16.20508,-2.66602 z"
         style="opacity:1;fill:#ff00ff;fill-opacity:1;fill-rule:evenodd;stroke:none;stroke-width:8;stroke-linecap:butt;stroke-linejoin:round;stroke-miterlimit:2;stroke-dasharray:none;stroke-opacity:1"
         inkscape:connector-curvature="0" />
      <path
         id="path4136-6"
         d="m 149.28516,478.07579 a 51.42857,51.42857 0 0 0 -14.52735,2.13086 51.42857,51.42857 0 0 0 48.66992,35.01367 51.42857,51.42857 0 0 0 14.5293,-2.13086 51.42857,51.42857 0 0 0 -48.67187,-35.01367 z"
         style="opacity:1;fill:#ffff00;fill-opacity:1;fill-rule:evenodd;stroke:none;stroke-width:8;stroke-linecap:butt;stroke-linejoin:round;stroke-miterlimit:2;stroke-dasharray:none;stroke-opacity:1"
         inkscape:connector-curvature="0" />
      <path
         id="path4136-9-8"
         transform="translate(0,343.70079)"
         d="m 182.53711,146.58203 a 51.42857,51.42857 0 0 0 -18.25195,39.22266 51.42857,51.42857 0 0 0 18.17968,39.22265 51.42857,51.42857 0 0 0 18.25,-39.22265 51.42857,51.42857 0 0 0 -18.17773,-39.22266 z"
         style="opacity:1;fill:#00ffff;fill-opacity:1;fill-rule:evenodd;stroke:none;stroke-width:8;stroke-linecap:butt;stroke-linejoin:round;stroke-miterlimit:2;stroke-dasharray:none;stroke-opacity:1"
         inkscape:connector-curvature="0" />
      <path
         id="path4136"
         transform="translate(0,343.70079)"
         d="m 182.45703,146.64062 a 51.42857,51.42857 0 0 0 -15.22656,22.18946 51.42857,51.42857 0 0 0 1.03906,0.3164 51.42857,51.42857 0 0 0 3.51172,0.98633 51.42857,51.42857 0 0 0 1.77539,0.35157 51.42857,51.42857 0 0 0 3.18555,0.55859 51.42857,51.42857 0 0 0 2.21679,0.21289 51.42857,51.42857 0 0 0 3.16797,0.23242 51.42857,51.42857 0 0 0 1.30078,0.0312 51.42857,51.42857 0 0 0 12.19532,-1.54492 51.42857,51.42857 0 0 0 2.32812,-0.59961 51.42857,51.42857 0 0 0 -15.49414,-22.73438 z"
         style="opacity:1;fill:#ffffff;fill-opacity:0.78431373;fill-rule:evenodd;stroke:none;stroke-width:8;stroke-linecap:butt;stroke-linejoin:round;stroke-miterlimit:2;stroke-dasharray:none;stroke-opacity:1"
         inkscape:connector-curvature="0" />
    </g>
    <g
       id="g4295"
       transform="translate(-521.42857,-22.857143)">
      <path
         sodipodi:nodetypes="ccc"
         inkscape:connector-curvature="0"
         id="path4269"
         d="m 56.568543,967.50941 c 0,0 70.444827,-94.14002 120.208157,-255.56859 64.04905,157.14286 128.28937,255.56859 128.28937,255.56859"
         style="fill:none;fill-rule:evenodd;stroke:#000000;stroke-width:15;stroke-linecap:round;stroke-linejoin:miter;stroke-miterlimit:4;stroke-dasharray:none;stroke-opacity:1" />
      <path
         sodipodi:nodetypes="czc"
         inkscape:connector-curvature="0"
         id="path4271"
         d="m 69.285715,947.36223 c 0,0 75.238095,15.47619 112.142855,15.35714 36.90476,-0.11904 109.28571,-16.07142 109.28571,-16.07142"
         style="fill:none;fill-rule:evenodd;stroke:#000000;stroke-width:15;stroke-linecap:butt;stroke-linejoin:miter;stroke-miterlimit:4;stroke-dasharray:none;stroke-opacity:1" />
      <ellipse
         ry="30.971178"
         rx="77.461029"
         cy="948.79388"
         cx="179.9059"
         id="path4273"
         style="opacity:1;fill:#000000;fill-opacity:1;fill-rule:evenodd;stroke:none;stroke-width:10;stroke-linecap:round;stroke-linejoin:round;stroke-miterlimit:4;stroke-dasharray:none;stroke-opacity:1" />
      <ellipse
         ry="12.39975"
         rx="31.012619"
         cy="963.79077"
         cx="177.83733"
         id="path4273-4"
         style="opacity:1;fill:#ffffff;fill-opacity:1;fill-rule:evenodd;stroke:none;stroke-width:10;stroke-linecap:round;stroke-linejoin:round;stroke-miterlimit:4;stroke-dasharray:none;stroke-opacity:1" />
    </g>
    <rect
       style="opacity:1;fill:none;fill-opacity:1;fill-rule:evenodd;stroke:#000000;stroke-width:15;stroke-linecap:round;stroke-linejoin:round;stroke-miterlimit:4;stroke-dasharray:none;stroke-opacity:1"
       id="rect4290"
       width="173.8862"
       height="219.43947"
       x="90.222252"
       y="701.76459"
       ry="29.285715" />
    <path
       style="opacity:1;fill:none;fill-opacity:1;fill-rule:evenodd;stroke:#000000;stroke-width:15;stroke-linecap:round;stroke-linejoin:round;stroke-miterlimit:4;stroke-dasharray:none;stroke-opacity:1"
       d="m 142.87966,922.21936 65.71429,0 28.57142,77.14286 -119.99999,0 z"
       id="rect4292"
       inkscape:connector-curvature="0"
       sodipodi:nodetypes="ccccc" />
  </g>
</svg>
