<?xml version="1.0" encoding="UTF-8" standalone="no"?>
<!-- Created with Inkscape (http://www.inkscape.org/) -->

<svg
   xmlns:dc="http://purl.org/dc/elements/1.1/"
   xmlns:cc="http://creativecommons.org/ns#"
   xmlns:rdf="http://www.w3.org/1999/02/22-rdf-syntax-ns#"
   xmlns:svg="http://www.w3.org/2000/svg"
   xmlns="http://www.w3.org/2000/svg"
   xmlns:sodipodi="http://sodipodi.sourceforge.net/DTD/sodipodi-0.dtd"
   xmlns:inkscape="http://www.inkscape.org/namespaces/inkscape"
   width="37mm"
   height="37mm"
   viewBox="0 0 131.10236 131.10236"
   id="svg2"
   version="1.1"
   inkscape:version="0.91 r13725"
   sodipodi:docname="gyro.svg"
   inkscape:export-filename="/home/cort/path14002-3.png"
   inkscape:export-xdpi="65.128204"
   inkscape:export-ydpi="65.128204">
  <defs
     id="defs4">
    <marker
       inkscape:stockid="Arrow2Lend"
       orient="auto"
       refY="0"
       refX="0"
       id="Arrow2Lend"
       style="overflow:visible"
       inkscape:isstock="true">
      <path
         id="path4163"
         style="fill:#000000;fill-opacity:1;fill-rule:evenodd;stroke:#000000;stroke-width:0.625;stroke-linejoin:round;stroke-opacity:1"
         d="M 8.7185878,4.0337352 -2.2072895,0.01601326 8.7185884,-4.0017078 c -1.7454984,2.3720609 -1.7354408,5.6174519 -6e-7,8.035443 z"
         transform="matrix(-1.1,0,0,-1.1,-1.1,0)"
         inkscape:connector-curvature="0" />
    </marker>
    <marker
       inkscape:stockid="Arrow2Lstart"
       orient="auto"
       refY="0"
       refX="0"
       id="Arrow2Lstart"
       style="overflow:visible"
       inkscape:isstock="true">
      <path
         id="path4160"
         style="fill:#000000;fill-opacity:1;fill-rule:evenodd;stroke:#000000;stroke-width:0.625;stroke-linejoin:round;stroke-opacity:1"
         d="M 8.7185878,4.0337352 -2.2072895,0.01601326 8.7185884,-4.0017078 c -1.7454984,2.3720609 -1.7354408,5.6174519 -6e-7,8.035443 z"
         transform="matrix(1.1,0,0,1.1,1.1,0)"
         inkscape:connector-curvature="0" />
    </marker>
    <marker
       inkscape:stockid="Arrow1Mend"
       orient="auto"
       refY="0"
       refX="0"
       id="Arrow1Mend"
       style="overflow:visible"
       inkscape:isstock="true">
      <path
         id="path4151"
         d="M 0,0 5,-5 -12.5,0 5,5 0,0 Z"
         style="fill:#000000;fill-opacity:1;fill-rule:evenodd;stroke:#000000;stroke-width:1pt;stroke-opacity:1"
         transform="matrix(-0.4,0,0,-0.4,-4,0)"
         inkscape:connector-curvature="0" />
    </marker>
    <marker
       inkscape:stockid="Arrow1Mstart"
       orient="auto"
       refY="0"
       refX="0"
       id="Arrow1Mstart"
       style="overflow:visible"
       inkscape:isstock="true">
      <path
         id="path4148"
         d="M 0,0 5,-5 -12.5,0 5,5 0,0 Z"
         style="fill:#000000;fill-opacity:1;fill-rule:evenodd;stroke:#000000;stroke-width:1pt;stroke-opacity:1"
         transform="matrix(0.4,0,0,0.4,4,0)"
         inkscape:connector-curvature="0" />
    </marker>
    <marker
       inkscape:stockid="Arrow1Lend"
       orient="auto"
       refY="0"
       refX="0"
       id="Arrow1Lend"
       style="overflow:visible"
       inkscape:isstock="true">
      <path
         id="path4145"
         d="M 0,0 5,-5 -12.5,0 5,5 0,0 Z"
         style="fill:#000000;fill-opacity:1;fill-rule:evenodd;stroke:#000000;stroke-width:1pt;stroke-opacity:1"
         transform="matrix(-0.8,0,0,-0.8,-10,0)"
         inkscape:connector-curvature="0" />
    </marker>
    <marker
       inkscape:stockid="Arrow1Lstart"
       orient="auto"
       refY="0"
       refX="0"
       id="Arrow1Lstart"
       style="overflow:visible"
       inkscape:isstock="true">
      <path
         id="path4142"
         d="M 0,0 5,-5 -12.5,0 5,5 0,0 Z"
         style="fill:#000000;fill-opacity:1;fill-rule:evenodd;stroke:#000000;stroke-width:1pt;stroke-opacity:1"
         transform="matrix(0.8,0,0,0.8,10,0)"
         inkscape:connector-curvature="0" />
    </marker>
    <clipPath
       clipPathUnits="userSpaceOnUse"
       id="clipPath14290">
      <path
         sodipodi:nodetypes="ccccc"
         inkscape:connector-curvature="0"
         id="path14292"
         d="m -262.16758,-17.093434 0.50144,-5.791607 -13.73157,-4.41121 0.56668,6.018584 z"
         style="opacity:1;fill:#d15a5a;fill-opacity:1;fill-rule:evenodd;stroke:none;stroke-width:5;stroke-linecap:butt;stroke-linejoin:round;stroke-miterlimit:4;stroke-dasharray:none;stroke-opacity:1" />
    </clipPath>
  </defs>
  <sodipodi:namedview
     id="base"
     pagecolor="#ffffff"
     bordercolor="#666666"
     borderopacity="1.0"
     inkscape:pageopacity="0.0"
     inkscape:pageshadow="2"
     inkscape:zoom="2.8284271"
     inkscape:cx="145.50413"
     inkscape:cy="45.095095"
     inkscape:document-units="px"
     inkscape:current-layer="layer1"
     showgrid="false"
     inkscape:window-width="1855"
     inkscape:window-height="1056"
     inkscape:window-x="65"
     inkscape:window-y="24"
     inkscape:window-maximized="1"
     fit-margin-top="0"
     fit-margin-left="0"
     fit-margin-right="0"
     fit-margin-bottom="0"
     inkscape:snap-bbox="true"
     inkscape:snap-bbox-midpoints="false"
     inkscape:bbox-nodes="false"
     inkscape:snap-intersection-paths="true"
     inkscape:bbox-paths="false"
     inkscape:snap-bbox-edge-midpoints="false"
     inkscape:snap-global="true"
     inkscape:snap-nodes="true" />
  <metadata
     id="metadata7">
    <rdf:RDF>
      <cc:Work
         rdf:about="">
        <dc:format>image/svg+xml</dc:format>
        <dc:type
           rdf:resource="http://purl.org/dc/dcmitype/StillImage" />
        <dc:title></dc:title>
      </cc:Work>
    </rdf:RDF>
  </metadata>
  <g
     inkscape:label="Layer 1"
     inkscape:groupmode="layer"
     id="layer1"
     transform="translate(-55.721187,-200.85829)">
    <rect
       style="opacity:1;fill:#0aff0b;fill-opacity:1;fill-rule:evenodd;stroke:none;stroke-width:8;stroke-linecap:butt;stroke-linejoin:round;stroke-miterlimit:2;stroke-dasharray:none;stroke-opacity:1"
       id="rect14287"
       width="276.37796"
       height="138.18898"
       x="52.471188"
       y="197.31499" />
    <g
       id="g14019"
       transform="translate(3.9063441,1.6137024)">
      <path
         inkscape:connector-curvature="0"
         id="path14000"
         d="M 61.228818,320.50338 171.9431,209.7891"
         style="fill:none;fill-rule:evenodd;stroke:#000000;stroke-width:5;stroke-linecap:butt;stroke-linejoin:miter;stroke-miterlimit:4;stroke-dasharray:none;stroke-opacity:1" />
      <circle
         r="8.9285717"
         cy="209.58992"
         cx="172.35513"
         id="path14002"
         style="opacity:1;fill:#000000;fill-opacity:1;fill-rule:evenodd;stroke:none;stroke-width:5;stroke-linecap:butt;stroke-linejoin:round;stroke-miterlimit:2;stroke-dasharray:none;stroke-opacity:1" />
      <circle
         r="8.9285717"
         cy="320.00162"
         cx="62.376915"
         id="path14002-4"
         style="opacity:1;fill:#000000;fill-opacity:1;fill-rule:evenodd;stroke:none;stroke-width:5;stroke-linecap:butt;stroke-linejoin:round;stroke-miterlimit:2;stroke-dasharray:none;stroke-opacity:1" />
    </g>
    <circle
       style="opacity:1;fill:#0aff0b;fill-opacity:1;fill-rule:evenodd;stroke:#000000;stroke-width:8;stroke-linecap:butt;stroke-linejoin:round;stroke-miterlimit:2;stroke-dasharray:none;stroke-opacity:1"
       id="path13998"
       cx="121.33658"
       cy="266.56201"
       r="60.609154" />
    <ellipse
       style="opacity:1;fill:#000000;fill-opacity:1;fill-rule:evenodd;stroke:#000000;stroke-width:6.81975651;stroke-linecap:butt;stroke-linejoin:round;stroke-miterlimit:4;stroke-dasharray:none;stroke-opacity:1"
       id="path14024"
       cx="-42.456841"
       cy="287.70615"
       rx="50.047039"
       ry="20.594709"
       transform="matrix(0.82533438,-0.56464428,0.54309366,0.83967212,0,0)" />
    <ellipse
       style="opacity:1;fill:#0aff0b;fill-opacity:1;fill-rule:evenodd;stroke:none;stroke-width:7.13313723;stroke-linecap:butt;stroke-linejoin:round;stroke-miterlimit:4;stroke-dasharray:none;stroke-opacity:1"
       id="path14024-0"
       cx="-38.959751"
       cy="287.32669"
       rx="44.647305"
       ry="19.616863"
       transform="matrix(0.81814241,-0.57501565,0.5327905,0.84624718,0,0)" />
    <ellipse
       style="opacity:1;fill:#0aff0b;fill-opacity:1;fill-rule:evenodd;stroke:#0aff0b;stroke-width:5.62425089;stroke-linecap:butt;stroke-linejoin:round;stroke-miterlimit:4;stroke-dasharray:none;stroke-opacity:1"
       id="path14024-3-4"
       cx="-290.98868"
       cy="-6.358561"
       rx="41.273773"
       ry="16.984449"
       transform="matrix(-0.39842967,-0.91719889,-0.90657939,0.42203531,1.6335008,-1.4167553)"
       clip-path="url(#clipPath14290)" />
    <path
       style="opacity:1;fill:#0aff0b;fill-opacity:1;fill-rule:evenodd;stroke:none;stroke-width:5;stroke-linecap:butt;stroke-linejoin:round;stroke-miterlimit:4;stroke-dasharray:none;stroke-opacity:1"
       d="m 100.62845,243.70729 c 0,0 4.25144,-1.26048 3.91434,0 -1.55866,5.82808 0,11.8693 0,11.8693 l -3.91434,0 z"
       id="rect14223"
       inkscape:connector-curvature="0"
       sodipodi:nodetypes="csccc" />
    <path
       style="opacity:1;fill:#000000;fill-opacity:1;fill-rule:evenodd;stroke:none;stroke-width:7.13313723;stroke-linecap:butt;stroke-linejoin:round;stroke-miterlimit:4;stroke-dasharray:none;stroke-opacity:1"
       d="m 109.72007,225.93032 c -1.17068,0.0786 -2.27039,0.36348 -3.28711,0.85156 -9.854029,4.7356 -10.039408,27.17543 -0.41406,50.1211 9.62529,22.94625 25.41693,37.70954 35.27148,32.97461 9.85403,-4.7356 10.03941,-27.17543 0.41406,-50.1211 -8.48231,-20.22078 -21.98482,-34.50082 -31.98437,-33.82617 z m 1.95756,5.69202 c 8.92798,-0.602 19.48071,10.99853 27.05404,29.05212 8.59364,20.48635 8.78193,39.19531 -0.0156,43.42417 -8.79825,4.22855 -21.13009,-7.80297 -29.72441,-28.2904 -8.59395,-20.48761 -9.046522,-39.19716 -0.24763,-43.42417 0.90736,-0.43615 1.88879,-0.69099 2.93359,-0.76172 z"
       id="path14024-0-0-5-9"
       inkscape:connector-curvature="0"
       sodipodi:nodetypes="ccccsccscccc" />
    <path
       style="opacity:1;fill:#0aff0b;fill-opacity:1;fill-rule:evenodd;stroke:none;stroke-width:5;stroke-linecap:butt;stroke-linejoin:round;stroke-miterlimit:4;stroke-dasharray:none;stroke-opacity:1"
       d="m 141.85253,272.08294 3.61445,-3.21986 c 0,0 0.50793,1.0476 0.14916,1.41973 -1.05621,1.09552 -1.87883,1.92576 -3.14016,3.09517 -0.34198,0.31707 -0.62345,-1.29504 -0.62345,-1.29504 z"
       id="rect14229"
       inkscape:connector-curvature="0"
       sodipodi:nodetypes="ccssc" />
    <path
       style="opacity:1;fill:#0aff0b;fill-opacity:1;fill-rule:evenodd;stroke:none;stroke-width:5;stroke-linecap:butt;stroke-linejoin:round;stroke-miterlimit:4;stroke-dasharray:none;stroke-opacity:1"
       d="m 113.30415,291.2724 3.57572,-1.6256 c 0,0 0.59633,0.79875 0.12967,1.02106 -1.14567,0.54581 -1.59807,0.70501 -3.15454,1.36768 -0.42908,0.18268 -0.55085,-0.76314 -0.55085,-0.76314 z"
       id="rect14229-6"
       inkscape:connector-curvature="0"
       sodipodi:nodetypes="ccssc" />
    <circle
       style="opacity:1;fill:#000000;fill-opacity:1;fill-rule:evenodd;stroke:none;stroke-width:5;stroke-linecap:butt;stroke-linejoin:round;stroke-miterlimit:2;stroke-dasharray:none;stroke-opacity:1"
       id="path14002-3"
       cx="121.66487"
       cy="263.85986"
       r="11.580222" />
  </g>
</svg>
