<?xml version="1.0" encoding="UTF-8" standalone="no"?>
<!-- Created with Inkscape (http://www.inkscape.org/) -->

<svg
   xmlns:dc="http://purl.org/dc/elements/1.1/"
   xmlns:cc="http://creativecommons.org/ns#"
   xmlns:rdf="http://www.w3.org/1999/02/22-rdf-syntax-ns#"
   xmlns:svg="http://www.w3.org/2000/svg"
   xmlns="http://www.w3.org/2000/svg"
   xmlns:sodipodi="http://sodipodi.sourceforge.net/DTD/sodipodi-0.dtd"
   xmlns:inkscape="http://www.inkscape.org/namespaces/inkscape"
   width="300"
   height="300"
   viewBox="0 0 300.00001 300"
   id="svg2"
   version="1.1"
   inkscape:version="0.91 r13725"
   sodipodi:docname="splatter.svg"
   inkscape:export-filename="/home/cort/g4208.png"
   inkscape:export-xdpi="45"
   inkscape:export-ydpi="45">
  <defs
     id="defs4" />
  <sodipodi:namedview
     id="base"
     pagecolor="#ffffff"
     bordercolor="#666666"
     borderopacity="1.0"
     inkscape:pageopacity="0.0"
     inkscape:pageshadow="2"
     inkscape:zoom="1.4"
     inkscape:cx="33.220921"
     inkscape:cy="186.25372"
     inkscape:document-units="px"
     inkscape:current-layer="layer1"
     showgrid="false"
     inkscape:snap-global="false"
     units="px"
     inkscape:window-width="1855"
     inkscape:window-height="1056"
     inkscape:window-x="65"
     inkscape:window-y="24"
     inkscape:window-maximized="1" />
  <metadata
     id="metadata7">
    <rdf:RDF>
      <cc:Work
         rdf:about="">
        <dc:format>image/svg+xml</dc:format>
        <dc:type
           rdf:resource="http://purl.org/dc/dcmitype/StillImage" />
        <dc:title></dc:title>
      </cc:Work>
    </rdf:RDF>
  </metadata>
  <g
     inkscape:label="Layer 1"
     inkscape:groupmode="layer"
     id="layer1"
     transform="translate(0,-752.36216)">
    <path
       style="fill:#ff0000;fill-opacity:1;fill-rule:evenodd;stroke:none;stroke-width:1px;stroke-linecap:butt;stroke-linejoin:miter;stroke-opacity:1"
       d="m 97.843048,819.76058 c 19.672312,-10.11062 24.460762,-47.74146 24.460762,-47.74146 0,0 24.63964,34.0594 43.67993,35.94651 13.65536,1.35341 36.10875,-19.09659 36.10875,-19.09659 0,0 -3.01759,16.98468 2.32959,22.46657 4.98589,5.1115 21.54877,3.36999 21.54877,3.36999 0,0 -9.27909,20.37644 -2.3296,25.83655 12.09507,9.50292 44.84473,-12.91828 44.84473,-12.91828 0,0 -14.07354,20.43622 -13.97758,32.01486 0.0848,10.22683 12.81279,28.08321 12.81279,28.08321 0,0 -34.32467,-5.17155 -39.02075,6.73997 -4.1269,10.46782 31.81753,21.16918 21.54877,26.39822 -12.61125,6.42186 0,27.52154 0,27.52154 0,0 -26.06189,-17.44221 -33.77915,-8.98663 -5.97914,6.55117 14.79565,17.49953 10.48319,24.15156 -3.04776,4.7012 3.49439,16.28826 3.49439,16.28826 0,0 -30.14893,-14.33007 -41.93273,-6.73997 -9.6572,6.22033 -4.6592,52.23471 -4.6592,52.23471 0,0 -8.61164,-26.23207 -20.38397,-29.76815 -12.39081,-3.72186 -25.69026,0.55487 -36.10873,14.04165 -1.34519,-12.89337 -2.97653,-17.60251 -18.05437,-19.65829 -8.42712,-1.14898 -7.95427,-9.79238 -16.307175,-9.54829 -13.43208,0.39253 -9.900795,25.27488 -9.900795,25.27488 0,0 -14.393584,-3.9247 -21.548764,-2.8083 -10.027804,1.5645 -27.372758,12.9183 -27.372758,12.9183 0,0 19.632574,-31.85219 9.900787,-43.24818 -5.061511,-5.92706 -23.878359,0.56167 -23.878359,0.56167 0,0 40.549256,-21.37387 35.526345,-37.6315 -3.321013,-10.74912 -33.779154,-8.42496 -33.779154,-8.42496 0,0 25.588093,-9.57276 25.043164,-20.21991 C 46.095035,897.10983 2.4846894e-6,889.40693 2.4846894e-6,889.40693 c 0,0 53.7548465153106,7.4697 58.2399065153106,-3.93165 3.603176,-9.15953 -13.678971,-14.58724 -21.548765,-20.78157 -9.552449,-7.51876 -30.8671484,-19.65825 -30.8671484,-19.65825 0,0 35.6608464,14.93023 47.1743234,4.49331 11.606941,-10.52164 -1.747192,-46.05646 -1.747192,-46.05646 10.239104,13.5533 29.947905,23.98601 46.591921,16.28827 z"
       id="path4147"
       inkscape:connector-curvature="0"
       sodipodi:nodetypes="ccacacacacascascscacsscacacacscsacacc" />
    <path
       style="fill:#ff0000;fill-opacity:1;fill-rule:evenodd;stroke:none;stroke-width:1px;stroke-linecap:butt;stroke-linejoin:miter;stroke-opacity:1"
       d="m 121.72851,1019.64 c 0,0 -8.18331,9.4257 -9.90078,15.165 -1.6687,5.5763 -5.78491,15.8115 0,17.4116 5.28143,1.4607 7.0668,-8.4317 8.73598,-13.48 2.00869,-6.0751 1.1648,-19.0966 1.1648,-19.0966 z"
       id="path4149"
       inkscape:connector-curvature="0"
       sodipodi:nodetypes="caaac" />
    <path
       style="fill:#ff0000;fill-opacity:1;fill-rule:evenodd;stroke:none;stroke-width:1px;stroke-linecap:butt;stroke-linejoin:miter;stroke-opacity:1"
       d="m 254.26592,954.32987 c 0,0 4.01463,11.19388 6.17285,16.73763 1.96658,5.0515 0.72625,16.28694 6.17296,15.05294 5.34873,-1.21181 0.40805,-10.83443 -1.39724,-15.83897 -2.17249,-6.0225 -10.94857,-15.9516 -10.94857,-15.9516 z"
       id="path4149-3"
       inkscape:connector-curvature="0"
       sodipodi:nodetypes="caaac" />
    <path
       style="fill:#ff0000;fill-opacity:1;fill-rule:evenodd;stroke:none;stroke-width:1px;stroke-linecap:butt;stroke-linejoin:miter;stroke-opacity:1"
       d="m 121.31346,767.54237 c 0,0 1.04356,-6.51872 0.71363,-9.35843 -0.28603,-2.46195 -2.46239,-6.48354 -4.90914,-5.72897 -2.68233,0.82721 -1.32212,5.50048 -0.60461,8.12672 0.73618,2.69453 4.80012,6.96068 4.80012,6.96068 z"
       id="path4149-6"
       inkscape:connector-curvature="0"
       sodipodi:nodetypes="csaac" />
    <path
       style="fill:#ff0000;fill-opacity:1;fill-rule:evenodd;stroke:none;stroke-width:1px;stroke-linecap:butt;stroke-linejoin:miter;stroke-opacity:1"
       d="m 273.41544,823.66001 c 0,0 10.46716,-7.3972 15.28049,-11.57745 3.92523,-3.40896 12.96771,-8.74177 11.03716,-10.9663 -1.87034,-2.15515 -8.99943,5.09125 -12.92923,8.35836 -5.02163,4.17481 -13.38842,14.18539 -13.38842,14.18539 z"
       id="path4149-7"
       inkscape:connector-curvature="0"
       sodipodi:nodetypes="casac" />
    <path
       style="fill:#ff0000;fill-opacity:1;fill-rule:evenodd;stroke:none;stroke-width:0.48902482px;stroke-linecap:butt;stroke-linejoin:miter;stroke-opacity:1"
       d="m 185.75661,1030.7187 c 0,0 -0.39425,2.917 0.19197,4.1989 0.55709,1.2181 1.65221,3.3191 2.93229,2.8206 1.31299,-0.5114 0.62861,-2.8367 0.081,-4.0961 -0.56874,-1.3078 -3.20523,-2.9234 -3.20523,-2.9234 z"
       id="path4149-6-5"
       inkscape:connector-curvature="0"
       sodipodi:nodetypes="caaac" />
    <path
       style="fill:#ff0000;fill-opacity:1;fill-rule:evenodd;stroke:none;stroke-width:1px;stroke-linecap:butt;stroke-linejoin:miter;stroke-opacity:1"
       d="m 204.63518,782.52685 c 0,0 4.2021,-6.20662 5.80551,-8.60955 1.39011,-2.08327 2.63063,-4.89764 0.81927,-5.64465 -1.63977,-0.67625 -2.63062,2.4604 -3.31873,4.04714 -1.1085,2.55611 -3.30608,10.20706 -3.30608,10.20706 z"
       id="path4149-6-3"
       inkscape:connector-curvature="0"
       sodipodi:nodetypes="csascc" />
    <path
       style="fill:#ff0000;fill-opacity:1;fill-rule:evenodd;stroke:none;stroke-width:0.48902482px;stroke-linecap:butt;stroke-linejoin:miter;stroke-opacity:1"
       d="m 41.711955,790.41408 c 0,0 -0.323642,-3.75725 -1.41538,-5.19581 -1.03746,-1.36694 -2.994719,-3.68709 -4.455556,-2.70554 -1.498369,1.0069 0.0082,3.72246 1.045332,5.14369 1.077134,1.47583 4.825567,2.75766 4.825567,2.75766 z"
       id="path4149-6-5-5"
       inkscape:connector-curvature="0"
       sodipodi:nodetypes="caaac" />
    <path
       style="fill:#ff0000;fill-opacity:1;fill-rule:evenodd;stroke:none;stroke-width:0.48902482px;stroke-linecap:butt;stroke-linejoin:miter;stroke-opacity:1"
       d="m 22.035118,1029.362 c 0,0 -2.70669,1.1568 -3.50685,2.3173 -0.760312,1.1027 -2.002898,3.12 -0.91869,3.9636 1.112155,0.8652 2.75788,-0.9144 3.558513,-2.0302 0.831358,-1.1587 0.867043,-4.2506 0.867043,-4.2506 z"
       id="path4149-6-5-6"
       inkscape:connector-curvature="0"
       sodipodi:nodetypes="caaac" />
    <path
       style="fill:#ff0000;fill-opacity:1;fill-rule:evenodd;stroke:none;stroke-width:1px;stroke-linecap:butt;stroke-linejoin:miter;stroke-opacity:1"
       d="m 274.09718,892.15785 c 0,0 8.60801,11.49744 10.73992,15.39148 2.44592,4.46759 4.27528,14.69441 8.6485,12.59684 3.76221,-1.80451 1.10414,-12.49526 -2.10658,-17.36072 -2.57852,-3.90745 -17.28184,-10.6276 -17.28184,-10.6276 z"
       id="path4149-2"
       inkscape:connector-curvature="0"
       sodipodi:nodetypes="csssc" />
  </g>
</svg>
