{
  "accessors": [
    {
      "name": "Mesh1 Group2 Group1 Model_1_positions",
      "componentType": 5126,
      "count": 336,
      "min": [
        -0.718146026134491,
        0.4352400004863739,
        -2.7565200328826904
      ],
      "max": [
        -0.06528600305318832,
        1.4507999420166016,
        -1.7409600019454956
      ],
      "type": "VEC3",
      "bufferView": 0,
      "byteOffset": 0
    },
    {
      "name": "Mesh1 Group2 Group1 Model_1_normals",
      "componentType": 5126,
      "count": 336,
      "min": [
        -1,
        -1,
        -1
      ],
      "max": [
        1,
        1,
        1
      ],
      "type": "VEC3",
      "bufferView": 0,
      "byteOffset": 23496
    },
    {
      "name": "Mesh1 Group2 Group1 Model_1_texcoords",
      "componentType": 5126,
      "count": 336,
      "min": [
        -27.7987003326416,
        -20.653499603271484
      ],
      "max": [
        25.590599060058594,
        32.39419937133789
      ],
      "type": "VEC2",
      "bufferView": 1,
      "byteOffset": 0
    },
    {
      "name": "Mesh1 Group2 Group1 Model_1_0_indices",
      "componentType": 5123,
      "count": 156,
      "min": [
        0
      ],
      "max": [
        335
      ],
      "type": "SCALAR",
      "bufferView": 2,
      "byteOffset": 0
    },
    {
      "name": "Mesh1 Group2 Group1 Model_1_1_indices",
      "componentType": 5123,
      "count": 498,
      "min": [
        25
      ],
      "max": [
        308
      ],
      "type": "SCALAR",
      "bufferView": 2,
      "byteOffset": 312
    },
    {
      "name": "Mesh2 Group3 Group1 Model_1_positions",
      "componentType": 5126,
      "count": 72,
      "min": [
        -0.7108920216560364,
        0.31554898619651794,
        -2.647710084915161
      ],
      "max": [
        -0.07254000008106232,
        0.9539009928703308,
        -2.5751700401306152
      ],
      "type": "VEC3",
      "bufferView": 0,
      "byteOffset": 4032
    },
    {
      "name": "Mesh2 Group3 Group1 Model_1_normals",
      "componentType": 5126,
      "count": 72,
      "min": [
        -1,
        -1,
        -1
      ],
      "max": [
        1,
        1,
        1
      ],
      "type": "VEC3",
      "bufferView": 0,
      "byteOffset": 27528
    },
    {
      "name": "Mesh2 Group3 Group1 Model_1_texcoords",
      "componentType": 5126,
      "count": 72,
      "min": [
        -21.28660011291504,
        -18.684999465942383
      ],
      "max": [
        21.28660011291504,
        1
      ],
      "type": "VEC2",
      "bufferView": 1,
      "byteOffset": 2688
    },
    {
      "name": "Mesh2 Group3 Group1 Model_1_0_indices",
      "componentType": 5123,
      "count": 132,
      "min": [
        0
      ],
      "max": [
        71
      ],
      "type": "SCALAR",
      "bufferView": 2,
      "byteOffset": 1308
    },
    {
      "name": "Mesh3 Group4 Group1 Model_1_positions",
      "componentType": 5126,
      "count": 72,
      "min": [
        0.07254000008106232,
        0.31554898619651794,
        -2.647710084915161
      ],
      "max": [
        0.7108920216560364,
        0.9539009928703308,
        -2.5751700401306152
      ],
      "type": "VEC3",
      "bufferView": 0,
      "byteOffset": 4896
    },
    {
      "name": "Mesh3 Group4 Group1 Model_1_normals",
      "componentType": 5126,
      "count": 72,
      "min": [
        -1,
        -1,
        -1
      ],
      "max": [
        1,
        1,
        1
      ],
      "type": "VEC3",
      "bufferView": 0,
      "byteOffset": 28392
    },
    {
      "name": "Mesh3 Group4 Group1 Model_1_texcoords",
      "componentType": 5126,
      "count": 72,
      "min": [
        -21.28660011291504,
        -18.684999465942383
      ],
      "max": [
        21.28660011291504,
        1
      ],
      "type": "VEC2",
      "bufferView": 1,
      "byteOffset": 3264
    },
    {
      "name": "Mesh3 Group4 Group1 Model_1_0_indices",
      "componentType": 5123,
      "count": 132,
      "min": [
        0
      ],
      "max": [
        71
      ],
      "type": "SCALAR",
      "bufferView": 2,
      "byteOffset": 1572
    },
    {
      "name": "Mesh4 Group5 Group1 Model_1_positions",
      "componentType": 5126,
      "count": 336,
      "min": [
        0.06528600305318832,
        0.4352400004863739,
        -2.7565200328826904
      ],
      "max": [
        0.718146026134491,
        1.4507999420166016,
        -1.7409600019454956
      ],
      "type": "VEC3",
      "bufferView": 0,
      "byteOffset": 5760
    },
    {
      "name": "Mesh4 Group5 Group1 Model_1_normals",
      "componentType": 5126,
      "count": 336,
      "min": [
        -1,
        -1,
        -1
      ],
      "max": [
        1,
        1,
        1
      ],
      "type": "VEC3",
      "bufferView": 0,
      "byteOffset": 29256
    },
    {
      "name": "Mesh4 Group5 Group1 Model_1_texcoords",
      "componentType": 5126,
      "count": 336,
      "min": [
        -27.7987003326416,
        -20.653499603271484
      ],
      "max": [
        25.590599060058594,
        32.39419937133789
      ],
      "type": "VEC2",
      "bufferView": 1,
      "byteOffset": 3840
    },
    {
      "name": "Mesh4 Group5 Group1 Model_1_0_indices",
      "componentType": 5123,
      "count": 156,
      "min": [
        0
      ],
      "max": [
        335
      ],
      "type": "SCALAR",
      "bufferView": 2,
      "byteOffset": 1836
    },
    {
      "name": "Mesh4 Group5 Group1 Model_1_1_indices",
      "componentType": 5123,
      "count": 498,
      "min": [
        25
      ],
      "max": [
        308
      ],
      "type": "SCALAR",
      "bufferView": 2,
      "byteOffset": 2148
    },
    {
      "name": "Mesh5 Group1 Model_1_positions",
      "componentType": 5126,
      "count": 1142,
      "min": [
        -1.2948399782180786,
        -1.3313899445981548e-16,
        -2.0311200618743896
      ],
      "max": [
        1.2948399782180786,
        3.3339600563049316,
        3.583479881286621
      ],
      "type": "VEC3",
      "bufferView": 0,
      "byteOffset": 9792
    },
    {
      "name": "Mesh5 Group1 Model_1_normals",
      "componentType": 5126,
      "count": 1142,
      "min": [
        -1,
        -1,
        -1
      ],
      "max": [
        1,
        1,
        1
      ],
      "type": "VEC3",
      "bufferView": 0,
      "byteOffset": 33288
    },
    {
      "name": "Mesh5 Group1 Model_1_texcoords",
      "componentType": 5126,
      "count": 1142,
      "min": [
        -114.09300231933594,
        -130.25799560546875
      ],
      "max": [
        114.09300231933594,
        142.08200073242188
      ],
      "type": "VEC2",
      "bufferView": 1,
      "byteOffset": 6528
    },
    {
      "name": "Mesh5 Group1 Model_1_0_indices",
      "componentType": 5123,
      "count": 1365,
      "min": [
        0
      ],
      "max": [
        1141
      ],
      "type": "SCALAR",
      "bufferView": 2,
      "byteOffset": 3144
    },
    {
      "name": "Mesh5 Group1 Model_1_1_indices",
      "componentType": 5123,
      "count": 66,
      "min": [
        86
      ],
      "max": [
        148
      ],
      "type": "SCALAR",
      "bufferView": 2,
      "byteOffset": 5876
    },
    {
      "name": "Mesh5 Group1 Model_1_2_indices",
      "componentType": 5123,
      "count": 18,
      "min": [
        125
      ],
      "max": [
        1054
      ],
      "type": "SCALAR",
      "bufferView": 2,
      "byteOffset": 6008
    },
    {
      "name": "Mesh5 Group1 Model_1_3_indices",
      "componentType": 5123,
      "count": 807,
      "min": [
        72
      ],
      "max": [
        1137
      ],
      "type": "SCALAR",
      "bufferView": 2,
      "byteOffset": 6044
    }
  ],
  "asset": {
    "generator": "obj2gltf",
    "version": "2.0"
  },
  "buffers": [
    {
      "name": "watercraftPack_024",
      "byteLength": 70316,
      "uri": "data:application/octet-stream;base64,"
    }
  ],
  "bufferViews": [
    {
      "name": "bufferView_0",
      "buffer": 0,
      "byteLength": 46992,
      "byteOffset": 0,
      "byteStride": 12,
      "target": 34962
    },
    {
      "name": "bufferView_1",
      "buffer": 0,
      "byteLength": 15664,
      "byteOffset": 46992,
      "byteStride": 8,
      "target": 34962
    },
    {
      "name": "bufferView_2",
      "buffer": 0,
      "byteLength": 7660,
      "byteOffset": 62656,
      "target": 34963
    }
  ],
  "materials": [
    {
      "name": "Dark_blue_metal",
      "pbrMetallicRoughness": {
        "baseColorFactor": [
          0.364706,
          0.384314,
          0.447059,
          1
        ],
        "metallicFactor": 0,
        "roughnessFactor": 1
      },
      "emissiveFactor": [
        0,
        0,
        0
      ],
      "alphaMode": "OPAQUE",
      "doubleSided": false
    },
    {
      "name": "Dark_metal",
      "pbrMetallicRoughness": {
        "baseColorFactor": [
          0.266667,
          0.266667,
          0.266667,
          1
        ],
        "metallicFactor": 0,
        "roughnessFactor": 1
      },
      "emissiveFactor": [
        0,
        0,
        0
      ],
      "alphaMode": "OPAQUE",
      "doubleSided": false
    },
    {
      "name": "Grey_metal_1",
      "pbrMetallicRoughness": {
        "baseColorFactor": [
          0.768627,
          0.768627,
          0.768627,
          1
        ],
        "metallicFactor": 0,
        "roughnessFactor": 1
      },
      "emissiveFactor": [
        0,
        0,
        0
      ],
      "alphaMode": "OPAQUE",
      "doubleSided": false
    },
    {
      "name": "Glass",
      "pbrMetallicRoughness": {
        "baseColorFactor": [
          0.776471,
          0.901961,
          0.94902,
          1
        ],
        "metallicFactor": 0,
        "roughnessFactor": 1
      },
      "emissiveFactor": [
        0,
        0,
        0
      ],
      "alphaMode": "OPAQUE",
      "doubleSided": false
    }
  ],
  "meshes": [
    {
      "name": "Mesh1 Group2 Group1 Model_1",
      "primitives": [
        {
          "attributes": {
            "POSITION": 0,
            "NORMAL": 1,
            "TEXCOORD_0": 2
          },
          "indices": 3,
          "material": 0,
          "mode": 4
        },
        {
          "attributes": {
            "POSITION": 0,
            "NORMAL": 1,
            "TEXCOORD_0": 2
          },
          "indices": 4,
          "material": 1,
          "mode": 4
        }
      ]
    },
    {
      "name": "Mesh2 Group3 Group1 Model_1",
      "primitives": [
        {
          "attributes": {
            "POSITION": 5,
            "NORMAL": 6,
            "TEXCOORD_0": 7
          },
          "indices": 8,
          "material": 2,
          "mode": 4
        }
      ]
    },
    {
      "name": "Mesh3 Group4 Group1 Model_1",
      "primitives": [
        {
          "attributes": {
            "POSITION": 9,
            "NORMAL": 10,
            "TEXCOORD_0": 11
          },
          "indices": 12,
          "material": 2,
          "mode": 4
        }
      ]
    },
    {
      "name": "Mesh4 Group5 Group1 Model_1",
      "primitives": [
        {
          "attributes": {
            "POSITION": 13,
            "NORMAL": 14,
            "TEXCOORD_0": 15
          },
          "indices": 16,
          "material": 0,
          "mode": 4
        },
        {
          "attributes": {
            "POSITION": 13,
            "NORMAL": 14,
            "TEXCOORD_0": 15
          },
          "indices": 17,
          "material": 1,
          "mode": 4
        }
      ]
    },
    {
      "name": "Mesh5 Group1 Model_1",
      "primitives": [
        {
          "attributes": {
            "POSITION": 18,
            "NORMAL": 19,
            "TEXCOORD_0": 20
          },
          "indices": 21,
          "material": 0,
          "mode": 4
        },
        {
          "attributes": {
            "POSITION": 18,
            "NORMAL": 19,
            "TEXCOORD_0": 20
          },
          "indices": 22,
          "material": 2,
          "mode": 4
        },
        {
          "attributes": {
            "POSITION": 18,
            "NORMAL": 19,
            "TEXCOORD_0": 20
          },
          "indices": 23,
          "material": 3,
          "mode": 4
        },
        {
          "attributes": {
            "POSITION": 18,
            "NORMAL": 19,
            "TEXCOORD_0": 20
          },
          "indices": 24,
          "material": 1,
          "mode": 4
        }
      ]
    }
  ],
  "nodes": [
    {
      "name": "Mesh1 Group2 Group1 Model",
      "mesh": 0
    },
    {
      "name": "Mesh2 Group3 Group1 Model",
      "mesh": 1
    },
    {
      "name": "Mesh3 Group4 Group1 Model",
      "mesh": 2
    },
    {
      "name": "Mesh4 Group5 Group1 Model",
      "mesh": 3
    },
    {
      "name": "Mesh5 Group1 Model",
      "mesh": 4
    }
  ],
  "scene": 0,
  "scenes": [
    {
      "nodes": [
        0,
        1,
        2,
        3,
        4
      ]
    }
  ]
}
