{
  "accessors": [
    {
      "name": "Mesh1 Container_4 Group1 Model_1_positions",
      "componentType": 5126,
      "count": 24,
      "min": [
        -1.3799999952316284,
        1.1039999723434448,
        -3.572089910507202
      ],
      "max": [
        1.3799999952316284,
        2.2079999446868896,
        -2.1920900344848633
      ],
      "type": "VEC3",
      "bufferView": 0,
      "byteOffset": 0
    },
    {
      "name": "Mesh1 Container_4 Group1 Model_1_normals",
      "componentType": 5126,
      "count": 24,
      "min": [
        -1,
        -1,
        -1
      ],
      "max": [
        1,
        1,
        1
      ],
      "type": "VEC3",
      "bufferView": 0,
      "byteOffset": 14436
    },
    {
      "name": "Mesh1 Container_4 Group1 Model_1_texcoords",
      "componentType": 5126,
      "count": 24,
      "min": [
        -80.70870208740234,
        -54.90549850463867
      ],
      "max": [
        80.70870208740234,
        1
      ],
      "type": "VEC2",
      "bufferView": 1,
      "byteOffset": 0
    },
    {
      "name": "Mesh1 Container_4 Group1 Model_1_0_indices",
      "componentType": 5123,
      "count": 36,
      "min": [
        0
      ],
      "max": [
        23
      ],
      "type": "SCALAR",
      "bufferView": 2,
      "byteOffset": 0
    },
    {
      "name": "Mesh2 Container_1 Group1 Model_1_positions",
      "componentType": 5126,
      "count": 24,
      "min": [
        -1.3799999952316284,
        1.1039999723434448,
        1.3959100246429443
      ],
      "max": [
        1.3799999952316284,
        2.2079999446868896,
        2.775909900665283
      ],
      "type": "VEC3",
      "bufferView": 0,
      "byteOffset": 288
    },
    {
      "name": "Mesh2 Container_1 Group1 Model_1_normals",
      "componentType": 5126,
      "count": 24,
      "min": [
        -1,
        -1,
        -1
      ],
      "max": [
        1,
        1,
        1
      ],
      "type": "VEC3",
      "bufferView": 0,
      "byteOffset": 14724
    },
    {
      "name": "Mesh2 Container_1 Group1 Model_1_texcoords",
      "componentType": 5126,
      "count": 24,
      "min": [
        -80.70870208740234,
        -54.90549850463867
      ],
      "max": [
        80.70870208740234,
        1
      ],
      "type": "VEC2",
      "bufferView": 1,
      "byteOffset": 192
    },
    {
      "name": "Mesh2 Container_1 Group1 Model_1_0_indices",
      "componentType": 5123,
      "count": 36,
      "min": [
        0
      ],
      "max": [
        23
      ],
      "type": "SCALAR",
      "bufferView": 2,
      "byteOffset": 72
    },
    {
      "name": "Mesh3 Container_2 Group1 Model_1_positions",
      "componentType": 5126,
      "count": 24,
      "min": [
        -1.3799999952316284,
        1.1039999723434448,
        -0.2600890100002289
      ],
      "max": [
        1.3799999952316284,
        2.2079999446868896,
        1.1199100017547607
      ],
      "type": "VEC3",
      "bufferView": 0,
      "byteOffset": 576
    },
    {
      "name": "Mesh3 Container_2 Group1 Model_1_normals",
      "componentType": 5126,
      "count": 24,
      "min": [
        -1,
        -1,
        -1
      ],
      "max": [
        1,
        1,
        1
      ],
      "type": "VEC3",
      "bufferView": 0,
      "byteOffset": 15012
    },
    {
      "name": "Mesh3 Container_2 Group1 Model_1_texcoords",
      "componentType": 5126,
      "count": 24,
      "min": [
        -80.70870208740234,
        -54.90549850463867
      ],
      "max": [
        80.70870208740234,
        1
      ],
      "type": "VEC2",
      "bufferView": 1,
      "byteOffset": 384
    },
    {
      "name": "Mesh3 Container_2 Group1 Model_1_0_indices",
      "componentType": 5123,
      "count": 36,
      "min": [
        0
      ],
      "max": [
        23
      ],
      "type": "SCALAR",
      "bufferView": 2,
      "byteOffset": 144
    },
    {
      "name": "Mesh4 Container_3 Group1 Model_1_positions",
      "componentType": 5126,
      "count": 24,
      "min": [
        -1.3799999952316284,
        1.1039999723434448,
        -1.9160900115966797
      ],
      "max": [
        1.3799999952316284,
        2.2079999446868896,
        -0.5360890030860901
      ],
      "type": "VEC3",
      "bufferView": 0,
      "byteOffset": 864
    },
    {
      "name": "Mesh4 Container_3 Group1 Model_1_normals",
      "componentType": 5126,
      "count": 24,
      "min": [
        -1,
        -1,
        -1
      ],
      "max": [
        1,
        1,
        1
      ],
      "type": "VEC3",
      "bufferView": 0,
      "byteOffset": 15300
    },
    {
      "name": "Mesh4 Container_3 Group1 Model_1_texcoords",
      "componentType": 5126,
      "count": 24,
      "min": [
        -80.70870208740234,
        -54.90549850463867
      ],
      "max": [
        80.70870208740234,
        1
      ],
      "type": "VEC2",
      "bufferView": 1,
      "byteOffset": 576
    },
    {
      "name": "Mesh4 Container_3 Group1 Model_1_0_indices",
      "componentType": 5123,
      "count": 36,
      "min": [
        0
      ],
      "max": [
        23
      ],
      "type": "SCALAR",
      "bufferView": 2,
      "byteOffset": 216
    },
    {
      "name": "Mesh5 Group1 Model_1_positions",
      "componentType": 5126,
      "count": 1107,
      "min": [
        -1.8474700450897217,
        2.7071699742861513e-16,
        -4.055089950561523
      ],
      "max": [
        1.847480058670044,
        3.38031005859375,
        6.4936299324035645
      ],
      "type": "VEC3",
      "bufferView": 0,
      "byteOffset": 1152
    },
    {
      "name": "Mesh5 Group1 Model_1_normals",
      "componentType": 5126,
      "count": 1107,
      "min": [
        -1,
        -1,
        -1
      ],
      "max": [
        1,
        1,
        1
      ],
      "type": "VEC3",
      "bufferView": 0,
      "byteOffset": 15588
    },
    {
      "name": "Mesh5 Group1 Model_1_texcoords",
      "componentType": 5126,
      "count": 1107,
      "min": [
        -200.64500427246094,
        -209.63099670410156
      ],
      "max": [
        200.64500427246094,
        256.6549987792969
      ],
      "type": "VEC2",
      "bufferView": 1,
      "byteOffset": 768
    },
    {
      "name": "Mesh5 Group1 Model_1_0_indices",
      "componentType": 5123,
      "count": 15,
      "min": [
        609
      ],
      "max": [
        631
      ],
      "type": "SCALAR",
      "bufferView": 2,
      "byteOffset": 288
    },
    {
      "name": "Mesh5 Group1 Model_1_1_indices",
      "componentType": 5123,
      "count": 825,
      "min": [
        0
      ],
      "max": [
        1094
      ],
      "type": "SCALAR",
      "bufferView": 2,
      "byteOffset": 320
    },
    {
      "name": "Mesh5 Group1 Model_1_2_indices",
      "componentType": 5123,
      "count": 1224,
      "min": [
        4
      ],
      "max": [
        1106
      ],
      "type": "SCALAR",
      "bufferView": 2,
      "byteOffset": 1972
    },
    {
      "name": "Mesh5 Group1 Model_1_3_indices",
      "componentType": 5123,
      "count": 111,
      "min": [
        512
      ],
      "max": [
        719
      ],
      "type": "SCALAR",
      "bufferView": 2,
      "byteOffset": 4420
    },
    {
      "name": "Mesh5 Group1 Model_1_4_indices",
      "componentType": 5123,
      "count": 18,
      "min": [
        539
      ],
      "max": [
        550
      ],
      "type": "SCALAR",
      "bufferView": 2,
      "byteOffset": 4644
    }
  ],
  "asset": {
    "generator": "obj2gltf",
    "version": "2.0"
  },
  "buffers": [
    {
      "name": "watercraftPack_006",
      "byteLength": 43176,
      "uri": "data:application/octet-stream;base64,"
    }
  ],
  "bufferViews": [
    {
      "name": "bufferView_0",
      "buffer": 0,
      "byteLength": 28872,
      "byteOffset": 0,
      "byteStride": 12,
      "target": 34962
    },
    {
      "name": "bufferView_1",
      "buffer": 0,
      "byteLength": 9624,
      "byteOffset": 28872,
      "byteStride": 8,
      "target": 34962
    },
    {
      "name": "bufferView_2",
      "buffer": 0,
      "byteLength": 4680,
      "byteOffset": 38496,
      "target": 34963
    }
  ],
  "materials": [
    {
      "name": "Blue_metal",
      "pbrMetallicRoughness": {
        "baseColorFactor": [
          0.235294,
          0.466667,
          0.556863,
          1
        ],
        "metallicFactor": 0,
        "roughnessFactor": 1
      },
      "emissiveFactor": [
        0,
        0,
        0
      ],
      "alphaMode": "OPAQUE",
      "doubleSided": false
    },
    {
      "name": "Cloth",
      "pbrMetallicRoughness": {
        "baseColorFactor": [
          0.94902,
          0.945098,
          0.827451,
          1
        ],
        "metallicFactor": 0,
        "roughnessFactor": 1
      },
      "emissiveFactor": [
        0,
        0,
        0
      ],
      "alphaMode": "OPAQUE",
      "doubleSided": false
    },
    {
      "name": "Red_metal",
      "pbrMetallicRoughness": {
        "baseColorFactor": [
          0.909804,
          0.333333,
          0.32549,
          1
        ],
        "metallicFactor": 0,
        "roughnessFactor": 1
      },
      "emissiveFactor": [
        0,
        0,
        0
      ],
      "alphaMode": "OPAQUE",
      "doubleSided": false
    },
    {
      "name": "Green_metal",
      "pbrMetallicRoughness": {
        "baseColorFactor": [
          0.443137,
          0.788235,
          0.584314,
          1
        ],
        "metallicFactor": 0,
        "roughnessFactor": 1
      },
      "emissiveFactor": [
        0,
        0,
        0
      ],
      "alphaMode": "OPAQUE",
      "doubleSided": false
    },
    {
      "name": "Dark_metal",
      "pbrMetallicRoughness": {
        "baseColorFactor": [
          0.266667,
          0.266667,
          0.266667,
          1
        ],
        "metallicFactor": 0,
        "roughnessFactor": 1
      },
      "emissiveFactor": [
        0,
        0,
        0
      ],
      "alphaMode": "OPAQUE",
      "doubleSided": false
    },
    {
      "name": "Yellow_metal",
      "pbrMetallicRoughness": {
        "baseColorFactor": [
          0.960784,
          0.72549,
          0.258824,
          1
        ],
        "metallicFactor": 0,
        "roughnessFactor": 1
      },
      "emissiveFactor": [
        0,
        0,
        0
      ],
      "alphaMode": "OPAQUE",
      "doubleSided": false
    },
    {
      "name": "Grey_metal_1",
      "pbrMetallicRoughness": {
        "baseColorFactor": [
          0.768627,
          0.768627,
          0.768627,
          1
        ],
        "metallicFactor": 0,
        "roughnessFactor": 1
      },
      "emissiveFactor": [
        0,
        0,
        0
      ],
      "alphaMode": "OPAQUE",
      "doubleSided": false
    },
    {
      "name": "Glass",
      "pbrMetallicRoughness": {
        "baseColorFactor": [
          0.776471,
          0.901961,
          0.94902,
          1
        ],
        "metallicFactor": 0,
        "roughnessFactor": 1
      },
      "emissiveFactor": [
        0,
        0,
        0
      ],
      "alphaMode": "OPAQUE",
      "doubleSided": false
    }
  ],
  "meshes": [
    {
      "name": "Mesh1 Container_4 Group1 Model_1",
      "primitives": [
        {
          "attributes": {
            "POSITION": 0,
            "NORMAL": 1,
            "TEXCOORD_0": 2
          },
          "indices": 3,
          "material": 0,
          "mode": 4
        }
      ]
    },
    {
      "name": "Mesh2 Container_1 Group1 Model_1",
      "primitives": [
        {
          "attributes": {
            "POSITION": 4,
            "NORMAL": 5,
            "TEXCOORD_0": 6
          },
          "indices": 7,
          "material": 1,
          "mode": 4
        }
      ]
    },
    {
      "name": "Mesh3 Container_2 Group1 Model_1",
      "primitives": [
        {
          "attributes": {
            "POSITION": 8,
            "NORMAL": 9,
            "TEXCOORD_0": 10
          },
          "indices": 11,
          "material": 2,
          "mode": 4
        }
      ]
    },
    {
      "name": "Mesh4 Container_3 Group1 Model_1",
      "primitives": [
        {
          "attributes": {
            "POSITION": 12,
            "NORMAL": 13,
            "TEXCOORD_0": 14
          },
          "indices": 15,
          "material": 3,
          "mode": 4
        }
      ]
    },
    {
      "name": "Mesh5 Group1 Model_1",
      "primitives": [
        {
          "attributes": {
            "POSITION": 16,
            "NORMAL": 17,
            "TEXCOORD_0": 18
          },
          "indices": 19,
          "material": 3,
          "mode": 4
        },
        {
          "attributes": {
            "POSITION": 16,
            "NORMAL": 17,
            "TEXCOORD_0": 18
          },
          "indices": 20,
          "material": 4,
          "mode": 4
        },
        {
          "attributes": {
            "POSITION": 16,
            "NORMAL": 17,
            "TEXCOORD_0": 18
          },
          "indices": 21,
          "material": 5,
          "mode": 4
        },
        {
          "attributes": {
            "POSITION": 16,
            "NORMAL": 17,
            "TEXCOORD_0": 18
          },
          "indices": 22,
          "material": 6,
          "mode": 4
        },
        {
          "attributes": {
            "POSITION": 16,
            "NORMAL": 17,
            "TEXCOORD_0": 18
          },
          "indices": 23,
          "material": 7,
          "mode": 4
        }
      ]
    }
  ],
  "nodes": [
    {
      "name": "Mesh1 Container_4 Group1 Model",
      "mesh": 0
    },
    {
      "name": "Mesh2 Container_1 Group1 Model",
      "mesh": 1
    },
    {
      "name": "Mesh3 Container_2 Group1 Model",
      "mesh": 2
    },
    {
      "name": "Mesh4 Container_3 Group1 Model",
      "mesh": 3
    },
    {
      "name": "Mesh5 Group1 Model",
      "mesh": 4
    }
  ],
  "scene": 0,
  "scenes": [
    {
      "nodes": [
        0,
        1,
        2,
        3,
        4
      ]
    }
  ]
}
