{
  "accessors": [
    {
      "name": "Mesh1 Group2 Group1 Model_1_positions",
      "componentType": 5126,
      "count": 336,
      "min": [
        -0.4950000047683716,
        0.30000001192092896,
        -1.399999976158142
      ],
      "max": [
        -0.04500000178813934,
        1,
        -0.699999988079071
      ],
      "type": "VEC3",
      "bufferView": 0,
      "byteOffset": 0
    },
    {
      "name": "Mesh1 Group2 Group1 Model_1_normals",
      "componentType": 5126,
      "count": 336,
      "min": [
        -1,
        -1,
        -1
      ],
      "max": [
        1,
        1,
        1
      ],
      "type": "VEC3",
      "bufferView": 0,
      "byteOffset": 12264
    },
    {
      "name": "Mesh1 Group2 Group1 Model_1_texcoords",
      "componentType": 5126,
      "count": 336,
      "min": [
        -27.7987003326416,
        -20.653499603271484
      ],
      "max": [
        25.590599060058594,
        32.39419937133789
      ],
      "type": "VEC2",
      "bufferView": 1,
      "byteOffset": 0
    },
    {
      "name": "Mesh1 Group2 Group1 Model_1_0_indices",
      "componentType": 5123,
      "count": 156,
      "min": [
        0
      ],
      "max": [
        335
      ],
      "type": "SCALAR",
      "bufferView": 2,
      "byteOffset": 0
    },
    {
      "name": "Mesh1 Group2 Group1 Model_1_1_indices",
      "componentType": 5123,
      "count": 498,
      "min": [
        25
      ],
      "max": [
        308
      ],
      "type": "SCALAR",
      "bufferView": 2,
      "byteOffset": 312
    },
    {
      "name": "Mesh2 Group3 Group1 Model_1_positions",
      "componentType": 5126,
      "count": 72,
      "min": [
        0.05000000074505806,
        0.2175000011920929,
        -1.3250000476837158
      ],
      "max": [
        0.49000000953674316,
        0.6575000286102295,
        -1.274999976158142
      ],
      "type": "VEC3",
      "bufferView": 0,
      "byteOffset": 4032
    },
    {
      "name": "Mesh2 Group3 Group1 Model_1_normals",
      "componentType": 5126,
      "count": 72,
      "min": [
        -1,
        -1,
        -1
      ],
      "max": [
        1,
        1,
        1
      ],
      "type": "VEC3",
      "bufferView": 0,
      "byteOffset": 16296
    },
    {
      "name": "Mesh2 Group3 Group1 Model_1_texcoords",
      "componentType": 5126,
      "count": 72,
      "min": [
        -21.28660011291504,
        -18.684999465942383
      ],
      "max": [
        21.28660011291504,
        1
      ],
      "type": "VEC2",
      "bufferView": 1,
      "byteOffset": 2688
    },
    {
      "name": "Mesh2 Group3 Group1 Model_1_0_indices",
      "componentType": 5123,
      "count": 132,
      "min": [
        0
      ],
      "max": [
        71
      ],
      "type": "SCALAR",
      "bufferView": 2,
      "byteOffset": 1308
    },
    {
      "name": "Mesh3 Group4 Group1 Model_1_positions",
      "componentType": 5126,
      "count": 336,
      "min": [
        0.04500000178813934,
        0.30000001192092896,
        -1.399999976158142
      ],
      "max": [
        0.4950000047683716,
        1,
        -0.699999988079071
      ],
      "type": "VEC3",
      "bufferView": 0,
      "byteOffset": 4896
    },
    {
      "name": "Mesh3 Group4 Group1 Model_1_normals",
      "componentType": 5126,
      "count": 336,
      "min": [
        -1,
        -1,
        -1
      ],
      "max": [
        1,
        1,
        1
      ],
      "type": "VEC3",
      "bufferView": 0,
      "byteOffset": 17160
    },
    {
      "name": "Mesh3 Group4 Group1 Model_1_texcoords",
      "componentType": 5126,
      "count": 336,
      "min": [
        -27.7987003326416,
        -20.653499603271484
      ],
      "max": [
        25.590599060058594,
        32.39419937133789
      ],
      "type": "VEC2",
      "bufferView": 1,
      "byteOffset": 3264
    },
    {
      "name": "Mesh3 Group4 Group1 Model_1_0_indices",
      "componentType": 5123,
      "count": 156,
      "min": [
        0
      ],
      "max": [
        335
      ],
      "type": "SCALAR",
      "bufferView": 2,
      "byteOffset": 1572
    },
    {
      "name": "Mesh3 Group4 Group1 Model_1_1_indices",
      "componentType": 5123,
      "count": 498,
      "min": [
        25
      ],
      "max": [
        308
      ],
      "type": "SCALAR",
      "bufferView": 2,
      "byteOffset": 1884
    },
    {
      "name": "Mesh4 Group5 Group1 Model_1_positions",
      "componentType": 5126,
      "count": 72,
      "min": [
        -0.49000000953674316,
        0.2175000011920929,
        -1.3250000476837158
      ],
      "max": [
        -0.05000000074505806,
        0.6575000286102295,
        -1.274999976158142
      ],
      "type": "VEC3",
      "bufferView": 0,
      "byteOffset": 8928
    },
    {
      "name": "Mesh4 Group5 Group1 Model_1_normals",
      "componentType": 5126,
      "count": 72,
      "min": [
        -1,
        -1,
        -1
      ],
      "max": [
        1,
        1,
        1
      ],
      "type": "VEC3",
      "bufferView": 0,
      "byteOffset": 21192
    },
    {
      "name": "Mesh4 Group5 Group1 Model_1_texcoords",
      "componentType": 5126,
      "count": 72,
      "min": [
        -21.28660011291504,
        -18.684999465942383
      ],
      "max": [
        21.28660011291504,
        1
      ],
      "type": "VEC2",
      "bufferView": 1,
      "byteOffset": 5952
    },
    {
      "name": "Mesh4 Group5 Group1 Model_1_0_indices",
      "componentType": 5123,
      "count": 132,
      "min": [
        0
      ],
      "max": [
        71
      ],
      "type": "SCALAR",
      "bufferView": 2,
      "byteOffset": 2880
    },
    {
      "name": "Mesh5 Group1 Model_1_positions",
      "componentType": 5126,
      "count": 206,
      "min": [
        -0.8924999833106995,
        -9.02388998811982e-17,
        -0.8999999761581421
      ],
      "max": [
        0.8924999833106995,
        1.5494999885559082,
        1.9700000286102295
      ],
      "type": "VEC3",
      "bufferView": 0,
      "byteOffset": 9792
    },
    {
      "name": "Mesh5 Group1 Model_1_normals",
      "componentType": 5126,
      "count": 206,
      "min": [
        -1,
        -1,
        -1
      ],
      "max": [
        1,
        1,
        1
      ],
      "type": "VEC3",
      "bufferView": 0,
      "byteOffset": 22056
    },
    {
      "name": "Mesh5 Group1 Model_1_texcoords",
      "componentType": 5126,
      "count": 206,
      "min": [
        -58.95669937133789,
        -68.3927993774414
      ],
      "max": [
        58.95669937133789,
        78.55909729003906
      ],
      "type": "VEC2",
      "bufferView": 1,
      "byteOffset": 6528
    },
    {
      "name": "Mesh5 Group1 Model_1_0_indices",
      "componentType": 5123,
      "count": 72,
      "min": [
        105
      ],
      "max": [
        182
      ],
      "type": "SCALAR",
      "bufferView": 2,
      "byteOffset": 3144
    },
    {
      "name": "Mesh5 Group1 Model_1_1_indices",
      "componentType": 5123,
      "count": 207,
      "min": [
        0
      ],
      "max": [
        205
      ],
      "type": "SCALAR",
      "bufferView": 2,
      "byteOffset": 3288
    },
    {
      "name": "Mesh5 Group1 Model_1_2_indices",
      "componentType": 5123,
      "count": 99,
      "min": [
        8
      ],
      "max": [
        184
      ],
      "type": "SCALAR",
      "bufferView": 2,
      "byteOffset": 3704
    },
    {
      "name": "Mesh5 Group1 Model_1_3_indices",
      "componentType": 5123,
      "count": 12,
      "min": [
        109
      ],
      "max": [
        142
      ],
      "type": "SCALAR",
      "bufferView": 2,
      "byteOffset": 3904
    }
  ],
  "asset": {
    "generator": "obj2gltf",
    "version": "2.0"
  },
  "buffers": [
    {
      "name": "watercraftPack_009",
      "byteLength": 36632,
      "uri": "data:application/octet-stream;base64,"
    }
  ],
  "bufferViews": [
    {
      "name": "bufferView_0",
      "buffer": 0,
      "byteLength": 24528,
      "byteOffset": 0,
      "byteStride": 12,
      "target": 34962
    },
    {
      "name": "bufferView_1",
      "buffer": 0,
      "byteLength": 8176,
      "byteOffset": 24528,
      "byteStride": 8,
      "target": 34962
    },
    {
      "name": "bufferView_2",
      "buffer": 0,
      "byteLength": 3928,
      "byteOffset": 32704,
      "target": 34963
    }
  ],
  "materials": [
    {
      "name": "Dark_blue_metal",
      "pbrMetallicRoughness": {
        "baseColorFactor": [
          0.364706,
          0.384314,
          0.447059,
          1
        ],
        "metallicFactor": 0,
        "roughnessFactor": 1
      },
      "emissiveFactor": [
        0,
        0,
        0
      ],
      "alphaMode": "OPAQUE",
      "doubleSided": false
    },
    {
      "name": "Dark_metal",
      "pbrMetallicRoughness": {
        "baseColorFactor": [
          0.266667,
          0.266667,
          0.266667,
          1
        ],
        "metallicFactor": 0,
        "roughnessFactor": 1
      },
      "emissiveFactor": [
        0,
        0,
        0
      ],
      "alphaMode": "OPAQUE",
      "doubleSided": false
    },
    {
      "name": "Grey_metal_1",
      "pbrMetallicRoughness": {
        "baseColorFactor": [
          0.768627,
          0.768627,
          0.768627,
          1
        ],
        "metallicFactor": 0,
        "roughnessFactor": 1
      },
      "emissiveFactor": [
        0,
        0,
        0
      ],
      "alphaMode": "OPAQUE",
      "doubleSided": false
    },
    {
      "name": "Red_metal",
      "pbrMetallicRoughness": {
        "baseColorFactor": [
          0.909804,
          0.333333,
          0.32549,
          1
        ],
        "metallicFactor": 0,
        "roughnessFactor": 1
      },
      "emissiveFactor": [
        0,
        0,
        0
      ],
      "alphaMode": "OPAQUE",
      "doubleSided": false
    },
    {
      "name": "Glass",
      "pbrMetallicRoughness": {
        "baseColorFactor": [
          0.776471,
          0.901961,
          0.94902,
          1
        ],
        "metallicFactor": 0,
        "roughnessFactor": 1
      },
      "emissiveFactor": [
        0,
        0,
        0
      ],
      "alphaMode": "OPAQUE",
      "doubleSided": false
    }
  ],
  "meshes": [
    {
      "name": "Mesh1 Group2 Group1 Model_1",
      "primitives": [
        {
          "attributes": {
            "POSITION": 0,
            "NORMAL": 1,
            "TEXCOORD_0": 2
          },
          "indices": 3,
          "material": 0,
          "mode": 4
        },
        {
          "attributes": {
            "POSITION": 0,
            "NORMAL": 1,
            "TEXCOORD_0": 2
          },
          "indices": 4,
          "material": 1,
          "mode": 4
        }
      ]
    },
    {
      "name": "Mesh2 Group3 Group1 Model_1",
      "primitives": [
        {
          "attributes": {
            "POSITION": 5,
            "NORMAL": 6,
            "TEXCOORD_0": 7
          },
          "indices": 8,
          "material": 2,
          "mode": 4
        }
      ]
    },
    {
      "name": "Mesh3 Group4 Group1 Model_1",
      "primitives": [
        {
          "attributes": {
            "POSITION": 9,
            "NORMAL": 10,
            "TEXCOORD_0": 11
          },
          "indices": 12,
          "material": 0,
          "mode": 4
        },
        {
          "attributes": {
            "POSITION": 9,
            "NORMAL": 10,
            "TEXCOORD_0": 11
          },
          "indices": 13,
          "material": 1,
          "mode": 4
        }
      ]
    },
    {
      "name": "Mesh4 Group5 Group1 Model_1",
      "primitives": [
        {
          "attributes": {
            "POSITION": 14,
            "NORMAL": 15,
            "TEXCOORD_0": 16
          },
          "indices": 17,
          "material": 2,
          "mode": 4
        }
      ]
    },
    {
      "name": "Mesh5 Group1 Model_1",
      "primitives": [
        {
          "attributes": {
            "POSITION": 18,
            "NORMAL": 19,
            "TEXCOORD_0": 20
          },
          "indices": 21,
          "material": 2,
          "mode": 4
        },
        {
          "attributes": {
            "POSITION": 18,
            "NORMAL": 19,
            "TEXCOORD_0": 20
          },
          "indices": 22,
          "material": 3,
          "mode": 4
        },
        {
          "attributes": {
            "POSITION": 18,
            "NORMAL": 19,
            "TEXCOORD_0": 20
          },
          "indices": 23,
          "material": 1,
          "mode": 4
        },
        {
          "attributes": {
            "POSITION": 18,
            "NORMAL": 19,
            "TEXCOORD_0": 20
          },
          "indices": 24,
          "material": 4,
          "mode": 4
        }
      ]
    }
  ],
  "nodes": [
    {
      "name": "Mesh1 Group2 Group1 Model",
      "mesh": 0
    },
    {
      "name": "Mesh2 Group3 Group1 Model",
      "mesh": 1
    },
    {
      "name": "Mesh3 Group4 Group1 Model",
      "mesh": 2
    },
    {
      "name": "Mesh4 Group5 Group1 Model",
      "mesh": 3
    },
    {
      "name": "Mesh5 Group1 Model",
      "mesh": 4
    }
  ],
  "scene": 0,
  "scenes": [
    {
      "nodes": [
        0,
        1,
        2,
        3,
        4
      ]
    }
  ]
}
