{
  "accessors": [
    {
      "name": "Mesh1 Group2 Group1 Model_1_positions",
      "componentType": 5126,
      "count": 336,
      "min": [
        0.11749999970197678,
        0.30000001192092896,
        -2.180000066757202
      ],
      "max": [
        0.5674999952316284,
        1,
        -1.4800000190734863
      ],
      "type": "VEC3",
      "bufferView": 0,
      "byteOffset": 0
    },
    {
      "name": "Mesh1 Group2 Group1 Model_1_normals",
      "componentType": 5126,
      "count": 336,
      "min": [
        -1,
        -1,
        -1
      ],
      "max": [
        1,
        1,
        1
      ],
      "type": "VEC3",
      "bufferView": 0,
      "byteOffset": 14064
    },
    {
      "name": "Mesh1 Group2 Group1 Model_1_texcoords",
      "componentType": 5126,
      "count": 336,
      "min": [
        -27.7987003326416,
        -20.653499603271484
      ],
      "max": [
        25.590599060058594,
        32.39419937133789
      ],
      "type": "VEC2",
      "bufferView": 1,
      "byteOffset": 0
    },
    {
      "name": "Mesh1 Group2 Group1 Model_1_0_indices",
      "componentType": 5123,
      "count": 156,
      "min": [
        0
      ],
      "max": [
        335
      ],
      "type": "SCALAR",
      "bufferView": 2,
      "byteOffset": 0
    },
    {
      "name": "Mesh1 Group2 Group1 Model_1_1_indices",
      "componentType": 5123,
      "count": 498,
      "min": [
        25
      ],
      "max": [
        308
      ],
      "type": "SCALAR",
      "bufferView": 2,
      "byteOffset": 312
    },
    {
      "name": "Mesh2 Group3 Group1 Model_1_positions",
      "componentType": 5126,
      "count": 336,
      "min": [
        -0.5674999952316284,
        0.30000001192092896,
        -2.180000066757202
      ],
      "max": [
        -0.11749999970197678,
        1,
        -1.4800000190734863
      ],
      "type": "VEC3",
      "bufferView": 0,
      "byteOffset": 4032
    },
    {
      "name": "Mesh2 Group3 Group1 Model_1_normals",
      "componentType": 5126,
      "count": 336,
      "min": [
        -1,
        -1,
        -1
      ],
      "max": [
        1,
        1,
        1
      ],
      "type": "VEC3",
      "bufferView": 0,
      "byteOffset": 18096
    },
    {
      "name": "Mesh2 Group3 Group1 Model_1_texcoords",
      "componentType": 5126,
      "count": 336,
      "min": [
        -27.7987003326416,
        -20.653499603271484
      ],
      "max": [
        25.590599060058594,
        32.39419937133789
      ],
      "type": "VEC2",
      "bufferView": 1,
      "byteOffset": 2688
    },
    {
      "name": "Mesh2 Group3 Group1 Model_1_0_indices",
      "componentType": 5123,
      "count": 156,
      "min": [
        0
      ],
      "max": [
        335
      ],
      "type": "SCALAR",
      "bufferView": 2,
      "byteOffset": 1308
    },
    {
      "name": "Mesh2 Group3 Group1 Model_1_1_indices",
      "componentType": 5123,
      "count": 498,
      "min": [
        25
      ],
      "max": [
        308
      ],
      "type": "SCALAR",
      "bufferView": 2,
      "byteOffset": 1620
    },
    {
      "name": "Mesh3 Group4 Group1 Model_1_positions",
      "componentType": 5126,
      "count": 72,
      "min": [
        -0.5625,
        0.2175000011920929,
        -2.1050000190734863
      ],
      "max": [
        -0.12250000238418579,
        0.6575000286102295,
        -2.055000066757202
      ],
      "type": "VEC3",
      "bufferView": 0,
      "byteOffset": 8064
    },
    {
      "name": "Mesh3 Group4 Group1 Model_1_normals",
      "componentType": 5126,
      "count": 72,
      "min": [
        -1,
        -1,
        -1
      ],
      "max": [
        1,
        1,
        1
      ],
      "type": "VEC3",
      "bufferView": 0,
      "byteOffset": 22128
    },
    {
      "name": "Mesh3 Group4 Group1 Model_1_texcoords",
      "componentType": 5126,
      "count": 72,
      "min": [
        -21.28660011291504,
        -18.684999465942383
      ],
      "max": [
        21.28660011291504,
        1
      ],
      "type": "VEC2",
      "bufferView": 1,
      "byteOffset": 5376
    },
    {
      "name": "Mesh3 Group4 Group1 Model_1_0_indices",
      "componentType": 5123,
      "count": 132,
      "min": [
        0
      ],
      "max": [
        71
      ],
      "type": "SCALAR",
      "bufferView": 2,
      "byteOffset": 2616
    },
    {
      "name": "Mesh4 Group5 Group1 Model_1_positions",
      "componentType": 5126,
      "count": 72,
      "min": [
        0.12250000238418579,
        0.2175000011920929,
        -2.1050000190734863
      ],
      "max": [
        0.5625,
        0.6575000286102295,
        -2.055000066757202
      ],
      "type": "VEC3",
      "bufferView": 0,
      "byteOffset": 8928
    },
    {
      "name": "Mesh4 Group5 Group1 Model_1_normals",
      "componentType": 5126,
      "count": 72,
      "min": [
        -1,
        -1,
        -1
      ],
      "max": [
        1,
        1,
        1
      ],
      "type": "VEC3",
      "bufferView": 0,
      "byteOffset": 22992
    },
    {
      "name": "Mesh4 Group5 Group1 Model_1_texcoords",
      "componentType": 5126,
      "count": 72,
      "min": [
        -21.28660011291504,
        -18.684999465942383
      ],
      "max": [
        21.28660011291504,
        1
      ],
      "type": "VEC2",
      "bufferView": 1,
      "byteOffset": 5952
    },
    {
      "name": "Mesh4 Group5 Group1 Model_1_0_indices",
      "componentType": 5123,
      "count": 132,
      "min": [
        0
      ],
      "max": [
        71
      ],
      "type": "SCALAR",
      "bufferView": 2,
      "byteOffset": 2880
    },
    {
      "name": "Mesh5 Group1 Model_1_positions",
      "componentType": 5126,
      "count": 356,
      "min": [
        -1.3387500047683716,
        -9.02388998811982e-17,
        -1.6799999475479126
      ],
      "max": [
        1.3387500047683716,
        2.3994998931884766,
        2.9639999866485596
      ],
      "type": "VEC3",
      "bufferView": 0,
      "byteOffset": 9792
    },
    {
      "name": "Mesh5 Group1 Model_1_normals",
      "componentType": 5126,
      "count": 356,
      "min": [
        -1,
        -1,
        -1
      ],
      "max": [
        1,
        1,
        1
      ],
      "type": "VEC3",
      "bufferView": 0,
      "byteOffset": 23856
    },
    {
      "name": "Mesh5 Group1 Model_1_texcoords",
      "componentType": 5126,
      "count": 356,
      "min": [
        -94.37010192871094,
        -99.94999694824219
      ],
      "max": [
        94.37010192871094,
        117.69300079345703
      ],
      "type": "VEC2",
      "bufferView": 1,
      "byteOffset": 6528
    },
    {
      "name": "Mesh5 Group1 Model_1_0_indices",
      "componentType": 5123,
      "count": 45,
      "min": [
        60
      ],
      "max": [
        182
      ],
      "type": "SCALAR",
      "bufferView": 2,
      "byteOffset": 3144
    },
    {
      "name": "Mesh5 Group1 Model_1_1_indices",
      "componentType": 5123,
      "count": 99,
      "min": [
        0
      ],
      "max": [
        129
      ],
      "type": "SCALAR",
      "bufferView": 2,
      "byteOffset": 3236
    },
    {
      "name": "Mesh5 Group1 Model_1_2_indices",
      "componentType": 5123,
      "count": 246,
      "min": [
        8
      ],
      "max": [
        295
      ],
      "type": "SCALAR",
      "bufferView": 2,
      "byteOffset": 3436
    },
    {
      "name": "Mesh5 Group1 Model_1_3_indices",
      "componentType": 5123,
      "count": 162,
      "min": [
        143
      ],
      "max": [
        329
      ],
      "type": "SCALAR",
      "bufferView": 2,
      "byteOffset": 3928
    },
    {
      "name": "Mesh5 Group1 Model_1_4_indices",
      "componentType": 5123,
      "count": 30,
      "min": [
        211
      ],
      "max": [
        313
      ],
      "type": "SCALAR",
      "bufferView": 2,
      "byteOffset": 4252
    },
    {
      "name": "Mesh5 Group1 Model_1_5_indices",
      "componentType": 5123,
      "count": 114,
      "min": [
        217
      ],
      "max": [
        355
      ],
      "type": "SCALAR",
      "bufferView": 2,
      "byteOffset": 4312
    }
  ],
  "asset": {
    "generator": "obj2gltf",
    "version": "2.0"
  },
  "buffers": [
    {
      "name": "watercraftPack_001",
      "byteLength": 42044,
      "uri": "data:application/octet-stream;base64,"
    }
  ],
  "bufferViews": [
    {
      "name": "bufferView_0",
      "buffer": 0,
      "byteLength": 28128,
      "byteOffset": 0,
      "byteStride": 12,
      "target": 34962
    },
    {
      "name": "bufferView_1",
      "buffer": 0,
      "byteLength": 9376,
      "byteOffset": 28128,
      "byteStride": 8,
      "target": 34962
    },
    {
      "name": "bufferView_2",
      "buffer": 0,
      "byteLength": 4540,
      "byteOffset": 37504,
      "target": 34963
    }
  ],
  "materials": [
    {
      "name": "Dark_blue_metal",
      "pbrMetallicRoughness": {
        "baseColorFactor": [
          0.364706,
          0.384314,
          0.447059,
          1
        ],
        "metallicFactor": 0,
        "roughnessFactor": 1
      },
      "emissiveFactor": [
        0,
        0,
        0
      ],
      "alphaMode": "OPAQUE",
      "doubleSided": false
    },
    {
      "name": "Dark_metal",
      "pbrMetallicRoughness": {
        "baseColorFactor": [
          0.266667,
          0.266667,
          0.266667,
          1
        ],
        "metallicFactor": 0,
        "roughnessFactor": 1
      },
      "emissiveFactor": [
        0,
        0,
        0
      ],
      "alphaMode": "OPAQUE",
      "doubleSided": false
    },
    {
      "name": "Grey_metal_1",
      "pbrMetallicRoughness": {
        "baseColorFactor": [
          0.768627,
          0.768627,
          0.768627,
          1
        ],
        "metallicFactor": 0,
        "roughnessFactor": 1
      },
      "emissiveFactor": [
        0,
        0,
        0
      ],
      "alphaMode": "OPAQUE",
      "doubleSided": false
    },
    {
      "name": "Green_metal",
      "pbrMetallicRoughness": {
        "baseColorFactor": [
          0.443137,
          0.788235,
          0.584314,
          1
        ],
        "metallicFactor": 0,
        "roughnessFactor": 1
      },
      "emissiveFactor": [
        0,
        0,
        0
      ],
      "alphaMode": "OPAQUE",
      "doubleSided": false
    },
    {
      "name": "Cloth",
      "pbrMetallicRoughness": {
        "baseColorFactor": [
          0.94902,
          0.945098,
          0.827451,
          1
        ],
        "metallicFactor": 0,
        "roughnessFactor": 1
      },
      "emissiveFactor": [
        0,
        0,
        0
      ],
      "alphaMode": "OPAQUE",
      "doubleSided": false
    },
    {
      "name": "Glass",
      "pbrMetallicRoughness": {
        "baseColorFactor": [
          0.776471,
          0.901961,
          0.94902,
          1
        ],
        "metallicFactor": 0,
        "roughnessFactor": 1
      },
      "emissiveFactor": [
        0,
        0,
        0
      ],
      "alphaMode": "OPAQUE",
      "doubleSided": false
    },
    {
      "name": "Blue_metal",
      "pbrMetallicRoughness": {
        "baseColorFactor": [
          0.235294,
          0.466667,
          0.556863,
          1
        ],
        "metallicFactor": 0,
        "roughnessFactor": 1
      },
      "emissiveFactor": [
        0,
        0,
        0
      ],
      "alphaMode": "OPAQUE",
      "doubleSided": false
    }
  ],
  "meshes": [
    {
      "name": "Mesh1 Group2 Group1 Model_1",
      "primitives": [
        {
          "attributes": {
            "POSITION": 0,
            "NORMAL": 1,
            "TEXCOORD_0": 2
          },
          "indices": 3,
          "material": 0,
          "mode": 4
        },
        {
          "attributes": {
            "POSITION": 0,
            "NORMAL": 1,
            "TEXCOORD_0": 2
          },
          "indices": 4,
          "material": 1,
          "mode": 4
        }
      ]
    },
    {
      "name": "Mesh2 Group3 Group1 Model_1",
      "primitives": [
        {
          "attributes": {
            "POSITION": 5,
            "NORMAL": 6,
            "TEXCOORD_0": 7
          },
          "indices": 8,
          "material": 0,
          "mode": 4
        },
        {
          "attributes": {
            "POSITION": 5,
            "NORMAL": 6,
            "TEXCOORD_0": 7
          },
          "indices": 9,
          "material": 1,
          "mode": 4
        }
      ]
    },
    {
      "name": "Mesh3 Group4 Group1 Model_1",
      "primitives": [
        {
          "attributes": {
            "POSITION": 10,
            "NORMAL": 11,
            "TEXCOORD_0": 12
          },
          "indices": 13,
          "material": 2,
          "mode": 4
        }
      ]
    },
    {
      "name": "Mesh4 Group5 Group1 Model_1",
      "primitives": [
        {
          "attributes": {
            "POSITION": 14,
            "NORMAL": 15,
            "TEXCOORD_0": 16
          },
          "indices": 17,
          "material": 2,
          "mode": 4
        }
      ]
    },
    {
      "name": "Mesh5 Group1 Model_1",
      "primitives": [
        {
          "attributes": {
            "POSITION": 18,
            "NORMAL": 19,
            "TEXCOORD_0": 20
          },
          "indices": 21,
          "material": 2,
          "mode": 4
        },
        {
          "attributes": {
            "POSITION": 18,
            "NORMAL": 19,
            "TEXCOORD_0": 20
          },
          "indices": 22,
          "material": 1,
          "mode": 4
        },
        {
          "attributes": {
            "POSITION": 18,
            "NORMAL": 19,
            "TEXCOORD_0": 20
          },
          "indices": 23,
          "material": 3,
          "mode": 4
        },
        {
          "attributes": {
            "POSITION": 18,
            "NORMAL": 19,
            "TEXCOORD_0": 20
          },
          "indices": 24,
          "material": 4,
          "mode": 4
        },
        {
          "attributes": {
            "POSITION": 18,
            "NORMAL": 19,
            "TEXCOORD_0": 20
          },
          "indices": 25,
          "material": 5,
          "mode": 4
        },
        {
          "attributes": {
            "POSITION": 18,
            "NORMAL": 19,
            "TEXCOORD_0": 20
          },
          "indices": 26,
          "material": 6,
          "mode": 4
        }
      ]
    }
  ],
  "nodes": [
    {
      "name": "Mesh1 Group2 Group1 Model",
      "mesh": 0
    },
    {
      "name": "Mesh2 Group3 Group1 Model",
      "mesh": 1
    },
    {
      "name": "Mesh3 Group4 Group1 Model",
      "mesh": 2
    },
    {
      "name": "Mesh4 Group5 Group1 Model",
      "mesh": 3
    },
    {
      "name": "Mesh5 Group1 Model",
      "mesh": 4
    }
  ],
  "scene": 0,
  "scenes": [
    {
      "nodes": [
        0,
        1,
        2,
        3,
        4
      ]
    }
  ]
}
