{
  "accessors": [
    {
      "name": "Mesh1 Group2 Group1 Model_1_positions",
      "componentType": 5126,
      "count": 72,
      "min": [
        -0.5625,
        0.2175000011920929,
        -2.234600067138672
      ],
      "max": [
        -0.12250000238418579,
        0.6575000286102295,
        -2.1846001148223877
      ],
      "type": "VEC3",
      "bufferView": 0,
      "byteOffset": 0
    },
    {
      "name": "Mesh1 Group2 Group1 Model_1_normals",
      "componentType": 5126,
      "count": 72,
      "min": [
        -1,
        -1,
        -1
      ],
      "max": [
        1,
        1,
        1
      ],
      "type": "VEC3",
      "bufferView": 0,
      "byteOffset": 13272
    },
    {
      "name": "Mesh1 Group2 Group1 Model_1_texcoords",
      "componentType": 5126,
      "count": 72,
      "min": [
        -21.28660011291504,
        -18.684999465942383
      ],
      "max": [
        21.28660011291504,
        1
      ],
      "type": "VEC2",
      "bufferView": 1,
      "byteOffset": 0
    },
    {
      "name": "Mesh1 Group2 Group1 Model_1_0_indices",
      "componentType": 5123,
      "count": 132,
      "min": [
        0
      ],
      "max": [
        71
      ],
      "type": "SCALAR",
      "bufferView": 2,
      "byteOffset": 0
    },
    {
      "name": "Mesh2 Group3 Group1 Model_1_positions",
      "componentType": 5126,
      "count": 336,
      "min": [
        0.11749999970197678,
        0.30000001192092896,
        -2.3096001148223877
      ],
      "max": [
        0.5674999952316284,
        1,
        -1.6095999479293823
      ],
      "type": "VEC3",
      "bufferView": 0,
      "byteOffset": 864
    },
    {
      "name": "Mesh2 Group3 Group1 Model_1_normals",
      "componentType": 5126,
      "count": 336,
      "min": [
        -1,
        -1,
        -1
      ],
      "max": [
        1,
        1,
        1
      ],
      "type": "VEC3",
      "bufferView": 0,
      "byteOffset": 14136
    },
    {
      "name": "Mesh2 Group3 Group1 Model_1_texcoords",
      "componentType": 5126,
      "count": 336,
      "min": [
        -27.7987003326416,
        -20.653499603271484
      ],
      "max": [
        25.590599060058594,
        32.39419937133789
      ],
      "type": "VEC2",
      "bufferView": 1,
      "byteOffset": 576
    },
    {
      "name": "Mesh2 Group3 Group1 Model_1_0_indices",
      "componentType": 5123,
      "count": 156,
      "min": [
        0
      ],
      "max": [
        335
      ],
      "type": "SCALAR",
      "bufferView": 2,
      "byteOffset": 264
    },
    {
      "name": "Mesh2 Group3 Group1 Model_1_1_indices",
      "componentType": 5123,
      "count": 498,
      "min": [
        25
      ],
      "max": [
        308
      ],
      "type": "SCALAR",
      "bufferView": 2,
      "byteOffset": 576
    },
    {
      "name": "Mesh3 Group4 Group1 Model_1_positions",
      "componentType": 5126,
      "count": 72,
      "min": [
        0.12250000238418579,
        0.2175000011920929,
        -2.234600067138672
      ],
      "max": [
        0.5625,
        0.6575000286102295,
        -2.1846001148223877
      ],
      "type": "VEC3",
      "bufferView": 0,
      "byteOffset": 4896
    },
    {
      "name": "Mesh3 Group4 Group1 Model_1_normals",
      "componentType": 5126,
      "count": 72,
      "min": [
        -1,
        -1,
        -1
      ],
      "max": [
        1,
        1,
        1
      ],
      "type": "VEC3",
      "bufferView": 0,
      "byteOffset": 18168
    },
    {
      "name": "Mesh3 Group4 Group1 Model_1_texcoords",
      "componentType": 5126,
      "count": 72,
      "min": [
        -21.28660011291504,
        -18.684999465942383
      ],
      "max": [
        21.28660011291504,
        1
      ],
      "type": "VEC2",
      "bufferView": 1,
      "byteOffset": 3264
    },
    {
      "name": "Mesh3 Group4 Group1 Model_1_0_indices",
      "componentType": 5123,
      "count": 132,
      "min": [
        0
      ],
      "max": [
        71
      ],
      "type": "SCALAR",
      "bufferView": 2,
      "byteOffset": 1572
    },
    {
      "name": "Mesh4 Group5 Group1 Model_1_positions",
      "componentType": 5126,
      "count": 336,
      "min": [
        -0.5674999952316284,
        0.30000001192092896,
        -2.3096001148223877
      ],
      "max": [
        -0.11749999970197678,
        1,
        -1.6095999479293823
      ],
      "type": "VEC3",
      "bufferView": 0,
      "byteOffset": 5760
    },
    {
      "name": "Mesh4 Group5 Group1 Model_1_normals",
      "componentType": 5126,
      "count": 336,
      "min": [
        -1,
        -1,
        -1
      ],
      "max": [
        1,
        1,
        1
      ],
      "type": "VEC3",
      "bufferView": 0,
      "byteOffset": 19032
    },
    {
      "name": "Mesh4 Group5 Group1 Model_1_texcoords",
      "componentType": 5126,
      "count": 336,
      "min": [
        -27.7987003326416,
        -20.653499603271484
      ],
      "max": [
        25.590599060058594,
        32.39419937133789
      ],
      "type": "VEC2",
      "bufferView": 1,
      "byteOffset": 3840
    },
    {
      "name": "Mesh4 Group5 Group1 Model_1_0_indices",
      "componentType": 5123,
      "count": 156,
      "min": [
        0
      ],
      "max": [
        335
      ],
      "type": "SCALAR",
      "bufferView": 2,
      "byteOffset": 1836
    },
    {
      "name": "Mesh4 Group5 Group1 Model_1_1_indices",
      "componentType": 5123,
      "count": 498,
      "min": [
        25
      ],
      "max": [
        308
      ],
      "type": "SCALAR",
      "bufferView": 2,
      "byteOffset": 2148
    },
    {
      "name": "Mesh5 Group1 Model_1_positions",
      "componentType": 5126,
      "count": 290,
      "min": [
        -1.3387500047683716,
        -4.5119499571435854e-17,
        -1.8095999956130981
      ],
      "max": [
        1.3387500047683716,
        2.3994998931884766,
        2.834399938583374
      ],
      "type": "VEC3",
      "bufferView": 0,
      "byteOffset": 9792
    },
    {
      "name": "Mesh5 Group1 Model_1_normals",
      "componentType": 5126,
      "count": 290,
      "min": [
        -1,
        -1,
        -1
      ],
      "max": [
        1,
        1,
        1
      ],
      "type": "VEC3",
      "bufferView": 0,
      "byteOffset": 23064
    },
    {
      "name": "Mesh5 Group1 Model_1_texcoords",
      "componentType": 5126,
      "count": 290,
      "min": [
        -111.59100341796875,
        -98.81320190429688
      ],
      "max": [
        111.59100341796875,
        112.59100341796875
      ],
      "type": "VEC2",
      "bufferView": 1,
      "byteOffset": 6528
    },
    {
      "name": "Mesh5 Group1 Model_1_0_indices",
      "componentType": 5123,
      "count": 114,
      "min": [
        149
      ],
      "max": [
        241
      ],
      "type": "SCALAR",
      "bufferView": 2,
      "byteOffset": 3144
    },
    {
      "name": "Mesh5 Group1 Model_1_1_indices",
      "componentType": 5123,
      "count": 162,
      "min": [
        0
      ],
      "max": [
        288
      ],
      "type": "SCALAR",
      "bufferView": 2,
      "byteOffset": 3372
    },
    {
      "name": "Mesh5 Group1 Model_1_2_indices",
      "componentType": 5123,
      "count": 54,
      "min": [
        15
      ],
      "max": [
        96
      ],
      "type": "SCALAR",
      "bufferView": 2,
      "byteOffset": 3696
    },
    {
      "name": "Mesh5 Group1 Model_1_3_indices",
      "componentType": 5123,
      "count": 48,
      "min": [
        19
      ],
      "max": [
        289
      ],
      "type": "SCALAR",
      "bufferView": 2,
      "byteOffset": 3804
    },
    {
      "name": "Mesh5 Group1 Model_1_4_indices",
      "componentType": 5123,
      "count": 162,
      "min": [
        102
      ],
      "max": [
        271
      ],
      "type": "SCALAR",
      "bufferView": 2,
      "byteOffset": 3900
    },
    {
      "name": "Mesh5 Group1 Model_1_5_indices",
      "componentType": 5123,
      "count": 30,
      "min": [
        135
      ],
      "max": [
        279
      ],
      "type": "SCALAR",
      "bufferView": 2,
      "byteOffset": 4224
    }
  ],
  "asset": {
    "generator": "obj2gltf",
    "version": "2.0"
  },
  "buffers": [
    {
      "name": "watercraftPack_002",
      "byteLength": 39676,
      "uri": "data:application/octet-stream;base64,"
    }
  ],
  "bufferViews": [
    {
      "name": "bufferView_0",
      "buffer": 0,
      "byteLength": 26544,
      "byteOffset": 0,
      "byteStride": 12,
      "target": 34962
    },
    {
      "name": "bufferView_1",
      "buffer": 0,
      "byteLength": 8848,
      "byteOffset": 26544,
      "byteStride": 8,
      "target": 34962
    },
    {
      "name": "bufferView_2",
      "buffer": 0,
      "byteLength": 4284,
      "byteOffset": 35392,
      "target": 34963
    }
  ],
  "materials": [
    {
      "name": "Grey_metal_1",
      "pbrMetallicRoughness": {
        "baseColorFactor": [
          0.768627,
          0.768627,
          0.768627,
          1
        ],
        "metallicFactor": 0,
        "roughnessFactor": 1
      },
      "emissiveFactor": [
        0,
        0,
        0
      ],
      "alphaMode": "OPAQUE",
      "doubleSided": false
    },
    {
      "name": "Dark_blue_metal",
      "pbrMetallicRoughness": {
        "baseColorFactor": [
          0.364706,
          0.384314,
          0.447059,
          1
        ],
        "metallicFactor": 0,
        "roughnessFactor": 1
      },
      "emissiveFactor": [
        0,
        0,
        0
      ],
      "alphaMode": "OPAQUE",
      "doubleSided": false
    },
    {
      "name": "Dark_metal",
      "pbrMetallicRoughness": {
        "baseColorFactor": [
          0.266667,
          0.266667,
          0.266667,
          1
        ],
        "metallicFactor": 0,
        "roughnessFactor": 1
      },
      "emissiveFactor": [
        0,
        0,
        0
      ],
      "alphaMode": "OPAQUE",
      "doubleSided": false
    },
    {
      "name": "Green_metal",
      "pbrMetallicRoughness": {
        "baseColorFactor": [
          0.443137,
          0.788235,
          0.584314,
          1
        ],
        "metallicFactor": 0,
        "roughnessFactor": 1
      },
      "emissiveFactor": [
        0,
        0,
        0
      ],
      "alphaMode": "OPAQUE",
      "doubleSided": false
    },
    {
      "name": "Cloth",
      "pbrMetallicRoughness": {
        "baseColorFactor": [
          0.94902,
          0.945098,
          0.827451,
          1
        ],
        "metallicFactor": 0,
        "roughnessFactor": 1
      },
      "emissiveFactor": [
        0,
        0,
        0
      ],
      "alphaMode": "OPAQUE",
      "doubleSided": false
    },
    {
      "name": "Glass",
      "pbrMetallicRoughness": {
        "baseColorFactor": [
          0.776471,
          0.901961,
          0.94902,
          1
        ],
        "metallicFactor": 0,
        "roughnessFactor": 1
      },
      "emissiveFactor": [
        0,
        0,
        0
      ],
      "alphaMode": "OPAQUE",
      "doubleSided": false
    }
  ],
  "meshes": [
    {
      "name": "Mesh1 Group2 Group1 Model_1",
      "primitives": [
        {
          "attributes": {
            "POSITION": 0,
            "NORMAL": 1,
            "TEXCOORD_0": 2
          },
          "indices": 3,
          "material": 0,
          "mode": 4
        }
      ]
    },
    {
      "name": "Mesh2 Group3 Group1 Model_1",
      "primitives": [
        {
          "attributes": {
            "POSITION": 4,
            "NORMAL": 5,
            "TEXCOORD_0": 6
          },
          "indices": 7,
          "material": 1,
          "mode": 4
        },
        {
          "attributes": {
            "POSITION": 4,
            "NORMAL": 5,
            "TEXCOORD_0": 6
          },
          "indices": 8,
          "material": 2,
          "mode": 4
        }
      ]
    },
    {
      "name": "Mesh3 Group4 Group1 Model_1",
      "primitives": [
        {
          "attributes": {
            "POSITION": 9,
            "NORMAL": 10,
            "TEXCOORD_0": 11
          },
          "indices": 12,
          "material": 0,
          "mode": 4
        }
      ]
    },
    {
      "name": "Mesh4 Group5 Group1 Model_1",
      "primitives": [
        {
          "attributes": {
            "POSITION": 13,
            "NORMAL": 14,
            "TEXCOORD_0": 15
          },
          "indices": 16,
          "material": 1,
          "mode": 4
        },
        {
          "attributes": {
            "POSITION": 13,
            "NORMAL": 14,
            "TEXCOORD_0": 15
          },
          "indices": 17,
          "material": 2,
          "mode": 4
        }
      ]
    },
    {
      "name": "Mesh5 Group1 Model_1",
      "primitives": [
        {
          "attributes": {
            "POSITION": 18,
            "NORMAL": 19,
            "TEXCOORD_0": 20
          },
          "indices": 21,
          "material": 1,
          "mode": 4
        },
        {
          "attributes": {
            "POSITION": 18,
            "NORMAL": 19,
            "TEXCOORD_0": 20
          },
          "indices": 22,
          "material": 3,
          "mode": 4
        },
        {
          "attributes": {
            "POSITION": 18,
            "NORMAL": 19,
            "TEXCOORD_0": 20
          },
          "indices": 23,
          "material": 2,
          "mode": 4
        },
        {
          "attributes": {
            "POSITION": 18,
            "NORMAL": 19,
            "TEXCOORD_0": 20
          },
          "indices": 24,
          "material": 0,
          "mode": 4
        },
        {
          "attributes": {
            "POSITION": 18,
            "NORMAL": 19,
            "TEXCOORD_0": 20
          },
          "indices": 25,
          "material": 4,
          "mode": 4
        },
        {
          "attributes": {
            "POSITION": 18,
            "NORMAL": 19,
            "TEXCOORD_0": 20
          },
          "indices": 26,
          "material": 5,
          "mode": 4
        }
      ]
    }
  ],
  "nodes": [
    {
      "name": "Mesh1 Group2 Group1 Model",
      "mesh": 0
    },
    {
      "name": "Mesh2 Group3 Group1 Model",
      "mesh": 1
    },
    {
      "name": "Mesh3 Group4 Group1 Model",
      "mesh": 2
    },
    {
      "name": "Mesh4 Group5 Group1 Model",
      "mesh": 3
    },
    {
      "name": "Mesh5 Group1 Model",
      "mesh": 4
    }
  ],
  "scene": 0,
  "scenes": [
    {
      "nodes": [
        0,
        1,
        2,
        3,
        4
      ]
    }
  ]
}
