{
  "accessors": [
    {
      "name": "Mesh1 Group2 Group1 Model_1_positions",
      "componentType": 5126,
      "count": 185,
      "min": [
        -0.8924999833106995,
        0,
        -0.9514700174331665
      ],
      "max": [
        0.8924999833106995,
        1.1994999647140503,
        2.7185299396514893
      ],
      "type": "VEC3",
      "bufferView": 0,
      "byteOffset": 0
    },
    {
      "name": "Mesh1 Group2 Group1 Model_1_normals",
      "componentType": 5126,
      "count": 185,
      "min": [
        -1,
        -1,
        -1
      ],
      "max": [
        1,
        1,
        0.8023380041122437
      ],
      "type": "VEC3",
      "bufferView": 0,
      "byteOffset": 12012
    },
    {
      "name": "Mesh1 Group2 Group1 Model_1_texcoords",
      "componentType": 5126,
      "count": 185,
      "min": [
        -108.16899871826172,
        -117.53399658203125
      ],
      "max": [
        122.5459976196289,
        134.78599548339844
      ],
      "type": "VEC2",
      "bufferView": 1,
      "byteOffset": 0
    },
    {
      "name": "Mesh1 Group2 Group1 Model_1_0_indices",
      "componentType": 5123,
      "count": 99,
      "min": [
        0
      ],
      "max": [
        84
      ],
      "type": "SCALAR",
      "bufferView": 2,
      "byteOffset": 0
    },
    {
      "name": "Mesh1 Group2 Group1 Model_1_1_indices",
      "componentType": 5123,
      "count": 165,
      "min": [
        43
      ],
      "max": [
        184
      ],
      "type": "SCALAR",
      "bufferView": 2,
      "byteOffset": 200
    },
    {
      "name": "Mesh1 Group2 Group1 Model_1_2_indices",
      "componentType": 5123,
      "count": 45,
      "min": [
        128
      ],
      "max": [
        171
      ],
      "type": "SCALAR",
      "bufferView": 2,
      "byteOffset": 532
    },
    {
      "name": "Mesh1 Group2 Group1 Model_1_3_indices",
      "componentType": 5123,
      "count": 12,
      "min": [
        138
      ],
      "max": [
        158
      ],
      "type": "SCALAR",
      "bufferView": 2,
      "byteOffset": 624
    },
    {
      "name": "Mesh2 Group3 Group1 Model_1_positions",
      "componentType": 5126,
      "count": 336,
      "min": [
        -0.4950000047683716,
        0.30000001192092896,
        -1.4514700174331665
      ],
      "max": [
        -0.04500000178813934,
        1,
        -0.7514700293540955
      ],
      "type": "VEC3",
      "bufferView": 0,
      "byteOffset": 2220
    },
    {
      "name": "Mesh2 Group3 Group1 Model_1_normals",
      "componentType": 5126,
      "count": 336,
      "min": [
        -1,
        -1,
        -1
      ],
      "max": [
        1,
        1,
        1
      ],
      "type": "VEC3",
      "bufferView": 0,
      "byteOffset": 14232
    },
    {
      "name": "Mesh2 Group3 Group1 Model_1_texcoords",
      "componentType": 5126,
      "count": 336,
      "min": [
        -27.7987003326416,
        -20.653499603271484
      ],
      "max": [
        25.590599060058594,
        32.39419937133789
      ],
      "type": "VEC2",
      "bufferView": 1,
      "byteOffset": 1480
    },
    {
      "name": "Mesh2 Group3 Group1 Model_1_0_indices",
      "componentType": 5123,
      "count": 156,
      "min": [
        0
      ],
      "max": [
        335
      ],
      "type": "SCALAR",
      "bufferView": 2,
      "byteOffset": 648
    },
    {
      "name": "Mesh2 Group3 Group1 Model_1_1_indices",
      "componentType": 5123,
      "count": 498,
      "min": [
        25
      ],
      "max": [
        308
      ],
      "type": "SCALAR",
      "bufferView": 2,
      "byteOffset": 960
    },
    {
      "name": "Mesh3 Group4 Group1 Model_1_positions",
      "componentType": 5126,
      "count": 72,
      "min": [
        0.05000000074505806,
        0.2175000011920929,
        -1.3764699697494507
      ],
      "max": [
        0.49000000953674316,
        0.6575000286102295,
        -1.3264700174331665
      ],
      "type": "VEC3",
      "bufferView": 0,
      "byteOffset": 6252
    },
    {
      "name": "Mesh3 Group4 Group1 Model_1_normals",
      "componentType": 5126,
      "count": 72,
      "min": [
        -1,
        -1,
        -1
      ],
      "max": [
        1,
        1,
        1
      ],
      "type": "VEC3",
      "bufferView": 0,
      "byteOffset": 18264
    },
    {
      "name": "Mesh3 Group4 Group1 Model_1_texcoords",
      "componentType": 5126,
      "count": 72,
      "min": [
        -21.28660011291504,
        -18.684999465942383
      ],
      "max": [
        21.28660011291504,
        1
      ],
      "type": "VEC2",
      "bufferView": 1,
      "byteOffset": 4168
    },
    {
      "name": "Mesh3 Group4 Group1 Model_1_0_indices",
      "componentType": 5123,
      "count": 132,
      "min": [
        0
      ],
      "max": [
        71
      ],
      "type": "SCALAR",
      "bufferView": 2,
      "byteOffset": 1956
    },
    {
      "name": "Mesh4 Group5 Group1 Model_1_positions",
      "componentType": 5126,
      "count": 336,
      "min": [
        0.04500000178813934,
        0.30000001192092896,
        -1.4514700174331665
      ],
      "max": [
        0.4950000047683716,
        1,
        -0.7514700293540955
      ],
      "type": "VEC3",
      "bufferView": 0,
      "byteOffset": 7116
    },
    {
      "name": "Mesh4 Group5 Group1 Model_1_normals",
      "componentType": 5126,
      "count": 336,
      "min": [
        -1,
        -1,
        -1
      ],
      "max": [
        1,
        1,
        1
      ],
      "type": "VEC3",
      "bufferView": 0,
      "byteOffset": 19128
    },
    {
      "name": "Mesh4 Group5 Group1 Model_1_texcoords",
      "componentType": 5126,
      "count": 336,
      "min": [
        -27.7987003326416,
        -20.653499603271484
      ],
      "max": [
        25.590599060058594,
        32.39419937133789
      ],
      "type": "VEC2",
      "bufferView": 1,
      "byteOffset": 4744
    },
    {
      "name": "Mesh4 Group5 Group1 Model_1_0_indices",
      "componentType": 5123,
      "count": 156,
      "min": [
        0
      ],
      "max": [
        335
      ],
      "type": "SCALAR",
      "bufferView": 2,
      "byteOffset": 2220
    },
    {
      "name": "Mesh4 Group5 Group1 Model_1_1_indices",
      "componentType": 5123,
      "count": 498,
      "min": [
        25
      ],
      "max": [
        308
      ],
      "type": "SCALAR",
      "bufferView": 2,
      "byteOffset": 2532
    },
    {
      "name": "Mesh5 Group6 Group1 Model_1_positions",
      "componentType": 5126,
      "count": 72,
      "min": [
        -0.49000000953674316,
        0.2175000011920929,
        -1.3764699697494507
      ],
      "max": [
        -0.05000000074505806,
        0.6575000286102295,
        -1.3264700174331665
      ],
      "type": "VEC3",
      "bufferView": 0,
      "byteOffset": 11148
    },
    {
      "name": "Mesh5 Group6 Group1 Model_1_normals",
      "componentType": 5126,
      "count": 72,
      "min": [
        -1,
        -1,
        -1
      ],
      "max": [
        1,
        1,
        1
      ],
      "type": "VEC3",
      "bufferView": 0,
      "byteOffset": 23160
    },
    {
      "name": "Mesh5 Group6 Group1 Model_1_texcoords",
      "componentType": 5126,
      "count": 72,
      "min": [
        -21.28660011291504,
        -18.684999465942383
      ],
      "max": [
        21.28660011291504,
        1
      ],
      "type": "VEC2",
      "bufferView": 1,
      "byteOffset": 7432
    },
    {
      "name": "Mesh5 Group6 Group1 Model_1_0_indices",
      "componentType": 5123,
      "count": 132,
      "min": [
        0
      ],
      "max": [
        71
      ],
      "type": "SCALAR",
      "bufferView": 2,
      "byteOffset": 3528
    }
  ],
  "asset": {
    "generator": "obj2gltf",
    "version": "2.0"
  },
  "buffers": [
    {
      "name": "watercraftPack_021",
      "byteLength": 35824,
      "uri": "data:application/octet-stream;base64,"
    }
  ],
  "bufferViews": [
    {
      "name": "bufferView_0",
      "buffer": 0,
      "byteLength": 24024,
      "byteOffset": 0,
      "byteStride": 12,
      "target": 34962
    },
    {
      "name": "bufferView_1",
      "buffer": 0,
      "byteLength": 8008,
      "byteOffset": 24024,
      "byteStride": 8,
      "target": 34962
    },
    {
      "name": "bufferView_2",
      "buffer": 0,
      "byteLength": 3792,
      "byteOffset": 32032,
      "target": 34963
    }
  ],
  "materials": [
    {
      "name": "Dark_metal",
      "pbrMetallicRoughness": {
        "baseColorFactor": [
          0.266667,
          0.266667,
          0.266667,
          1
        ],
        "metallicFactor": 0,
        "roughnessFactor": 1
      },
      "emissiveFactor": [
        0,
        0,
        0
      ],
      "alphaMode": "OPAQUE",
      "doubleSided": false
    },
    {
      "name": "Red_metal",
      "pbrMetallicRoughness": {
        "baseColorFactor": [
          0.909804,
          0.333333,
          0.32549,
          1
        ],
        "metallicFactor": 0,
        "roughnessFactor": 1
      },
      "emissiveFactor": [
        0,
        0,
        0
      ],
      "alphaMode": "OPAQUE",
      "doubleSided": false
    },
    {
      "name": "Grey_metal_1",
      "pbrMetallicRoughness": {
        "baseColorFactor": [
          0.768627,
          0.768627,
          0.768627,
          1
        ],
        "metallicFactor": 0,
        "roughnessFactor": 1
      },
      "emissiveFactor": [
        0,
        0,
        0
      ],
      "alphaMode": "OPAQUE",
      "doubleSided": false
    },
    {
      "name": "Glass",
      "pbrMetallicRoughness": {
        "baseColorFactor": [
          0.776471,
          0.901961,
          0.94902,
          1
        ],
        "metallicFactor": 0,
        "roughnessFactor": 1
      },
      "emissiveFactor": [
        0,
        0,
        0
      ],
      "alphaMode": "OPAQUE",
      "doubleSided": false
    },
    {
      "name": "Dark_blue_metal",
      "pbrMetallicRoughness": {
        "baseColorFactor": [
          0.364706,
          0.384314,
          0.447059,
          1
        ],
        "metallicFactor": 0,
        "roughnessFactor": 1
      },
      "emissiveFactor": [
        0,
        0,
        0
      ],
      "alphaMode": "OPAQUE",
      "doubleSided": false
    }
  ],
  "meshes": [
    {
      "name": "Mesh1 Group2 Group1 Model_1",
      "primitives": [
        {
          "attributes": {
            "POSITION": 0,
            "NORMAL": 1,
            "TEXCOORD_0": 2
          },
          "indices": 3,
          "material": 0,
          "mode": 4
        },
        {
          "attributes": {
            "POSITION": 0,
            "NORMAL": 1,
            "TEXCOORD_0": 2
          },
          "indices": 4,
          "material": 1,
          "mode": 4
        },
        {
          "attributes": {
            "POSITION": 0,
            "NORMAL": 1,
            "TEXCOORD_0": 2
          },
          "indices": 5,
          "material": 2,
          "mode": 4
        },
        {
          "attributes": {
            "POSITION": 0,
            "NORMAL": 1,
            "TEXCOORD_0": 2
          },
          "indices": 6,
          "material": 3,
          "mode": 4
        }
      ]
    },
    {
      "name": "Mesh2 Group3 Group1 Model_1",
      "primitives": [
        {
          "attributes": {
            "POSITION": 7,
            "NORMAL": 8,
            "TEXCOORD_0": 9
          },
          "indices": 10,
          "material": 4,
          "mode": 4
        },
        {
          "attributes": {
            "POSITION": 7,
            "NORMAL": 8,
            "TEXCOORD_0": 9
          },
          "indices": 11,
          "material": 0,
          "mode": 4
        }
      ]
    },
    {
      "name": "Mesh3 Group4 Group1 Model_1",
      "primitives": [
        {
          "attributes": {
            "POSITION": 12,
            "NORMAL": 13,
            "TEXCOORD_0": 14
          },
          "indices": 15,
          "material": 2,
          "mode": 4
        }
      ]
    },
    {
      "name": "Mesh4 Group5 Group1 Model_1",
      "primitives": [
        {
          "attributes": {
            "POSITION": 16,
            "NORMAL": 17,
            "TEXCOORD_0": 18
          },
          "indices": 19,
          "material": 4,
          "mode": 4
        },
        {
          "attributes": {
            "POSITION": 16,
            "NORMAL": 17,
            "TEXCOORD_0": 18
          },
          "indices": 20,
          "material": 0,
          "mode": 4
        }
      ]
    },
    {
      "name": "Mesh5 Group6 Group1 Model_1",
      "primitives": [
        {
          "attributes": {
            "POSITION": 21,
            "NORMAL": 22,
            "TEXCOORD_0": 23
          },
          "indices": 24,
          "material": 2,
          "mode": 4
        }
      ]
    }
  ],
  "nodes": [
    {
      "name": "Mesh1 Group2 Group1 Model",
      "mesh": 0
    },
    {
      "name": "Mesh2 Group3 Group1 Model",
      "mesh": 1
    },
    {
      "name": "Mesh3 Group4 Group1 Model",
      "mesh": 2
    },
    {
      "name": "Mesh4 Group5 Group1 Model",
      "mesh": 3
    },
    {
      "name": "Mesh5 Group6 Group1 Model",
      "mesh": 4
    }
  ],
  "scene": 0,
  "scenes": [
    {
      "nodes": [
        0,
        1,
        2,
        3,
        4
      ]
    }
  ]
}
