{
  "accessors": [
    {
      "name": "Mesh1 Group1 Model_1_positions",
      "componentType": 5126,
      "count": 206,
      "min": [
        -0.8924999833106995,
        0,
        -0.8999999761581421
      ],
      "max": [
        0.8924999833106995,
        1.1994999647140503,
        1.9700000286102295
      ],
      "type": "VEC3",
      "bufferView": 0,
      "byteOffset": 0
    },
    {
      "name": "Mesh1 Group1 Model_1_normals",
      "componentType": 5126,
      "count": 206,
      "min": [
        -1,
        -1,
        -1
      ],
      "max": [
        1,
        1,
        1
      ],
      "type": "VEC3",
      "bufferView": 0,
      "byteOffset": 2472
    },
    {
      "name": "Mesh1 Group1 Model_1_texcoords",
      "componentType": 5126,
      "count": 206,
      "min": [
        -58.95669937133789,
        -67.41210174560547
      ],
      "max": [
        58.95669937133789,
        78.55909729003906
      ],
      "type": "VEC2",
      "bufferView": 1,
      "byteOffset": 0
    },
    {
      "name": "Mesh1 Group1 Model_1_0_indices",
      "componentType": 5123,
      "count": 207,
      "min": [
        0
      ],
      "max": [
        205
      ],
      "type": "SCALAR",
      "bufferView": 2,
      "byteOffset": 0
    },
    {
      "name": "Mesh1 Group1 Model_1_1_indices",
      "componentType": 5123,
      "count": 42,
      "min": [
        18
      ],
      "max": [
        41
      ],
      "type": "SCALAR",
      "bufferView": 2,
      "byteOffset": 416
    },
    {
      "name": "Mesh1 Group1 Model_1_2_indices",
      "componentType": 5123,
      "count": 12,
      "min": [
        27
      ],
      "max": [
        45
      ],
      "type": "SCALAR",
      "bufferView": 2,
      "byteOffset": 500
    },
    {
      "name": "Mesh1 Group1 Model_1_3_indices",
      "componentType": 5123,
      "count": 30,
      "min": [
        109
      ],
      "max": [
        161
      ],
      "type": "SCALAR",
      "bufferView": 2,
      "byteOffset": 524
    },
    {
      "name": "Mesh1 Group1 Model_1_4_indices",
      "componentType": 5123,
      "count": 99,
      "min": [
        57
      ],
      "max": [
        204
      ],
      "type": "SCALAR",
      "bufferView": 2,
      "byteOffset": 584
    }
  ],
  "asset": {
    "generator": "obj2gltf",
    "version": "2.0"
  },
  "buffers": [
    {
      "name": "watercraftPack_010",
      "byteLength": 7376,
      "uri": "data:application/octet-stream;base64,"
    }
  ],
  "bufferViews": [
    {
      "name": "bufferView_0",
      "buffer": 0,
      "byteLength": 4944,
      "byteOffset": 0,
      "byteStride": 12,
      "target": 34962
    },
    {
      "name": "bufferView_1",
      "buffer": 0,
      "byteLength": 1648,
      "byteOffset": 4944,
      "byteStride": 8,
      "target": 34962
    },
    {
      "name": "bufferView_2",
      "buffer": 0,
      "byteLength": 784,
      "byteOffset": 6592,
      "target": 34963
    }
  ],
  "materials": [
    {
      "name": "Red_metal",
      "pbrMetallicRoughness": {
        "baseColorFactor": [
          0.909804,
          0.333333,
          0.32549,
          1
        ],
        "metallicFactor": 0,
        "roughnessFactor": 1
      },
      "emissiveFactor": [
        0,
        0,
        0
      ],
      "alphaMode": "OPAQUE",
      "doubleSided": false
    },
    {
      "name": "Grey_metal_1",
      "pbrMetallicRoughness": {
        "baseColorFactor": [
          0.768627,
          0.768627,
          0.768627,
          1
        ],
        "metallicFactor": 0,
        "roughnessFactor": 1
      },
      "emissiveFactor": [
        0,
        0,
        0
      ],
      "alphaMode": "OPAQUE",
      "doubleSided": false
    },
    {
      "name": "Glass",
      "pbrMetallicRoughness": {
        "baseColorFactor": [
          0.776471,
          0.901961,
          0.94902,
          1
        ],
        "metallicFactor": 0,
        "roughnessFactor": 1
      },
      "emissiveFactor": [
        0,
        0,
        0
      ],
      "alphaMode": "OPAQUE",
      "doubleSided": false
    },
    {
      "name": "Green_metal",
      "pbrMetallicRoughness": {
        "baseColorFactor": [
          0.443137,
          0.788235,
          0.584314,
          1
        ],
        "metallicFactor": 0,
        "roughnessFactor": 1
      },
      "emissiveFactor": [
        0,
        0,
        0
      ],
      "alphaMode": "OPAQUE",
      "doubleSided": false
    },
    {
      "name": "Dark_metal",
      "pbrMetallicRoughness": {
        "baseColorFactor": [
          0.266667,
          0.266667,
          0.266667,
          1
        ],
        "metallicFactor": 0,
        "roughnessFactor": 1
      },
      "emissiveFactor": [
        0,
        0,
        0
      ],
      "alphaMode": "OPAQUE",
      "doubleSided": false
    }
  ],
  "meshes": [
    {
      "name": "Mesh1 Group1 Model_1",
      "primitives": [
        {
          "attributes": {
            "POSITION": 0,
            "NORMAL": 1,
            "TEXCOORD_0": 2
          },
          "indices": 3,
          "material": 0,
          "mode": 4
        },
        {
          "attributes": {
            "POSITION": 0,
            "NORMAL": 1,
            "TEXCOORD_0": 2
          },
          "indices": 4,
          "material": 1,
          "mode": 4
        },
        {
          "attributes": {
            "POSITION": 0,
            "NORMAL": 1,
            "TEXCOORD_0": 2
          },
          "indices": 5,
          "material": 2,
          "mode": 4
        },
        {
          "attributes": {
            "POSITION": 0,
            "NORMAL": 1,
            "TEXCOORD_0": 2
          },
          "indices": 6,
          "material": 3,
          "mode": 4
        },
        {
          "attributes": {
            "POSITION": 0,
            "NORMAL": 1,
            "TEXCOORD_0": 2
          },
          "indices": 7,
          "material": 4,
          "mode": 4
        }
      ]
    }
  ],
  "nodes": [
    {
      "name": "Mesh1 Group1 Model",
      "mesh": 0
    }
  ],
  "scene": 0,
  "scenes": [
    {
      "nodes": [
        0
      ]
    }
  ]
}
